<?xml version="1.0" encoding="UTF-8" standalone="no"?>
<!DOCTYPE svg PUBLIC "-//W3C//DTD SVG 1.1//EN"
 "http://www.w3.org/Graphics/SVG/1.1/DTD/svg11.dtd">
<!-- Generated by graphviz version 2.38.0 (20140413.2041)
 -->
<!-- Title: G Pages: 1 -->
<svg width="932pt" height="1078pt"
 viewBox="0.00 0.00 932.00 1078.00" xmlns="http://www.w3.org/2000/svg" xmlns:xlink="http://www.w3.org/1999/xlink">
<g id="graph0" class="graph" transform="scale(1 1) rotate(0) translate(4 1074)">
<title>G</title>
<polygon fill="white" stroke="none" points="-4,4 -4,-1074 928,-1074 928,4 -4,4"/>
<g id="clust1" class="cluster"><title>cluster_Global</title>
<path fill="none" stroke="gray" d="M20,-8C20,-8 904,-8 904,-8 910,-8 916,-14 916,-20 916,-20 916,-1050 916,-1050 916,-1056 910,-1062 904,-1062 904,-1062 20,-1062 20,-1062 14,-1062 8,-1056 8,-1050 8,-1050 8,-20 8,-20 8,-14 14,-8 20,-8"/>
<text text-anchor="middle" x="462" y="-1049.2" font-family="Times New Roman,serif" font-size="11.00" fill="gray">Global</text>
</g>
<g id="clust2" class="cluster"><title>cluster_\db_connector</title>
<path fill="none" stroke="gray" d="M28,-16C28,-16 896,-16 896,-16 902,-16 908,-22 908,-28 908,-28 908,-1022 908,-1022 908,-1028 902,-1034 896,-1034 896,-1034 28,-1034 28,-1034 22,-1034 16,-1028 16,-1022 16,-1022 16,-28 16,-28 16,-22 22,-16 28,-16"/>
<text text-anchor="middle" x="462" y="-1021.2" font-family="Times New Roman,serif" font-size="11.00" fill="gray">db_connector</text>
</g>
<g id="clust3" class="cluster"><title>cluster_\db_connector\utilities</title>
<path fill="none" stroke="gray" d="M769,-934C769,-934 859,-934 859,-934 865,-934 871,-940 871,-946 871,-946 871,-994 871,-994 871,-1000 865,-1006 859,-1006 859,-1006 769,-1006 769,-1006 763,-1006 757,-1000 757,-994 757,-994 757,-946 757,-946 757,-940 763,-934 769,-934"/>
<text text-anchor="middle" x="814" y="-993.2" font-family="Times New Roman,serif" font-size="11.00" fill="gray">utilities</text>
</g>
<!-- \\db_connector\\utilities\\TableCreator -->
<g id="node1" class="node"><title>\\db_connector\\utilities\\TableCreator</title>
<polygon fill="none" stroke="black" points="863,-978 765,-978 765,-942 863,-942 863,-978"/>
<text text-anchor="middle" x="814" y="-957.2" font-family="Courier,monospace" font-size="11.00">TableCreator</text>
</g>
<!-- \\db_connector\\BooleanConnector -->
<g id="node2" class="node"><title>\\db_connector\\BooleanConnector</title>
<polygon fill="none" stroke="black" points="358.5,-870 233.5,-870 233.5,-834 358.5,-834 358.5,-870"/>
<text text-anchor="start" x="262" y="-855.2" font-family="Courier,monospace" font-size="11.00">«abstract»</text>
<text text-anchor="start" x="241.5" y="-843.2" font-family="Courier,monospace" font-size="11.00">BooleanConnector</text>
</g>
<!-- \\db_connector\\DatabaseConnector -->
<g id="node3" class="node"><title>\\db_connector\\DatabaseConnector</title>
<polygon fill="none" stroke="black" points="155,-654 24,-654 24,-618 155,-618 155,-654"/>
<text text-anchor="start" x="55.5" y="-639.2" font-family="Courier,monospace" font-size="11.00">«abstract»</text>
<text text-anchor="start" x="32" y="-627.2" font-family="Courier,monospace" font-size="11.00">DatabaseConnector</text>
</g>
<!-- \\db_connector\\BooleanConnector&#45;&gt;\\db_connector\\DatabaseConnector -->
<g id="edge1" class="edge"><title>\\db_connector\\BooleanConnector&#45;&gt;\\db_connector\\DatabaseConnector</title>
<path fill="none" stroke="black" d="M277.916,-833.955C241.602,-795.6 156.641,-705.86 114.741,-661.604"/>
<polygon fill="none" stroke="black" points="117.096,-659.001 107.679,-654.145 112.013,-663.813 117.096,-659.001"/>
</g>
<!-- \\db_connector\\DeleteConnector -->
<g id="node4" class="node"><title>\\db_connector\\DeleteConnector</title>
<polygon fill="none" stroke="black" points="605.5,-978 487.5,-978 487.5,-942 605.5,-942 605.5,-978"/>
<text text-anchor="start" x="512.5" y="-963.2" font-family="Courier,monospace" font-size="11.00">«abstract»</text>
<text text-anchor="start" x="495.5" y="-951.2" font-family="Courier,monospace" font-size="11.00">DeleteConnector</text>
</g>
<!-- \\db_connector\\DeleteConnector&#45;&gt;\\db_connector\\BooleanConnector -->
<g id="edge2" class="edge"><title>\\db_connector\\DeleteConnector&#45;&gt;\\db_connector\\BooleanConnector</title>
<path fill="none" stroke="black" d="M487.39,-948.719C470.808,-944.653 452.927,-939.439 437,-933 399.062,-917.662 358.95,-893.538 331.433,-875.602"/>
<polygon fill="none" stroke="black" points="333.235,-872.598 322.96,-870.015 329.381,-878.442 333.235,-872.598"/>
</g>
<!-- \\db_connector\\DeleteItinerary -->
<g id="node5" class="node"><title>\\db_connector\\DeleteItinerary</title>
<polygon fill="none" stroke="black" points="873,-924 755,-924 755,-888 873,-888 873,-924"/>
<text text-anchor="middle" x="814" y="-903.2" font-family="Courier,monospace" font-size="11.00">DeleteItinerary</text>
</g>
<!-- \\db_connector\\DeleteItinerary&#45;&gt;\\db_connector\\DeleteConnector -->
<g id="edge3" class="edge"><title>\\db_connector\\DeleteItinerary&#45;&gt;\\db_connector\\DeleteConnector</title>
<path fill="none" stroke="black" d="M754.735,-917.851C713.667,-926.203 658.537,-937.416 615.463,-946.177"/>
<polygon fill="none" stroke="black" points="614.731,-942.754 605.629,-948.177 616.126,-949.614 614.731,-942.754"/>
</g>
<!-- \\db_connector\\DeleteWishlist -->
<g id="node6" class="node"><title>\\db_connector\\DeleteWishlist</title>
<polygon fill="none" stroke="black" points="869.5,-870 758.5,-870 758.5,-834 869.5,-834 869.5,-870"/>
<text text-anchor="middle" x="814" y="-849.2" font-family="Courier,monospace" font-size="11.00">DeleteWishlist</text>
</g>
<!-- \\db_connector\\DeleteWishlist&#45;&gt;\\db_connector\\DeleteConnector -->
<g id="edge4" class="edge"><title>\\db_connector\\DeleteWishlist&#45;&gt;\\db_connector\\DeleteConnector</title>
<path fill="none" stroke="black" d="M758.401,-866.343C748.051,-869.893 737.498,-874.109 728,-879 692.438,-897.313 692.127,-915.829 656,-933 643.374,-939.001 629.265,-943.763 615.506,-947.507"/>
<polygon fill="none" stroke="black" points="614.391,-944.18 605.576,-950.057 616.132,-950.96 614.391,-944.18"/>
</g>
<!-- \\db_connector\\InsertConnector -->
<g id="node7" class="node"><title>\\db_connector\\InsertConnector</title>
<polygon fill="none" stroke="black" points="605.5,-924 487.5,-924 487.5,-888 605.5,-888 605.5,-924"/>
<text text-anchor="start" x="512.5" y="-909.2" font-family="Courier,monospace" font-size="11.00">«abstract»</text>
<text text-anchor="start" x="495.5" y="-897.2" font-family="Courier,monospace" font-size="11.00">InsertConnector</text>
</g>
<!-- \\db_connector\\InsertConnector&#45;&gt;\\db_connector\\BooleanConnector -->
<g id="edge5" class="edge"><title>\\db_connector\\InsertConnector&#45;&gt;\\db_connector\\BooleanConnector</title>
<path fill="none" stroke="black" d="M487.238,-893.339C451.814,-885.642 406.309,-875.753 368.687,-867.578"/>
<polygon fill="none" stroke="black" points="369.318,-864.133 358.802,-865.43 367.831,-870.974 369.318,-864.133"/>
</g>
<!-- \\db_connector\\InsertDocument -->
<g id="node8" class="node"><title>\\db_connector\\InsertDocument</title>
<polygon fill="none" stroke="black" points="869.5,-816 758.5,-816 758.5,-780 869.5,-780 869.5,-816"/>
<text text-anchor="middle" x="814" y="-795.2" font-family="Courier,monospace" font-size="11.00">InsertDocument</text>
</g>
<!-- \\db_connector\\InsertDocument&#45;&gt;\\db_connector\\InsertConnector -->
<g id="edge6" class="edge"><title>\\db_connector\\InsertDocument&#45;&gt;\\db_connector\\InsertConnector</title>
<path fill="none" stroke="black" d="M758.401,-812.343C748.051,-815.893 737.498,-820.109 728,-825 692.438,-843.313 692.127,-861.829 656,-879 643.374,-885.001 629.265,-889.763 615.506,-893.507"/>
<polygon fill="none" stroke="black" points="614.391,-890.18 605.576,-896.057 616.132,-896.96 614.391,-890.18"/>
</g>
<!-- \\db_connector\\InsertItinerary -->
<g id="node9" class="node"><title>\\db_connector\\InsertItinerary</title>
<polygon fill="none" stroke="black" points="873,-762 755,-762 755,-726 873,-726 873,-762"/>
<text text-anchor="middle" x="814" y="-741.2" font-family="Courier,monospace" font-size="11.00">InsertItinerary</text>
</g>
<!-- \\db_connector\\InsertItinerary&#45;&gt;\\db_connector\\InsertConnector -->
<g id="edge7" class="edge"><title>\\db_connector\\InsertItinerary&#45;&gt;\\db_connector\\InsertConnector</title>
<path fill="none" stroke="black" d="M754.642,-756.725C745.189,-760.374 735.918,-765.041 728,-771 681.907,-805.691 703.174,-845.794 656,-879 644.07,-887.397 629.794,-893.191 615.577,-897.187"/>
<polygon fill="none" stroke="black" points="614.604,-893.822 605.773,-899.675 616.327,-900.607 614.604,-893.822"/>
</g>
<!-- \\db_connector\\InsertItineraryLanguage -->
<g id="node10" class="node"><title>\\db_connector\\InsertItineraryLanguage</title>
<polygon fill="none" stroke="black" points="900,-708 728,-708 728,-672 900,-672 900,-708"/>
<text text-anchor="middle" x="814" y="-687.2" font-family="Courier,monospace" font-size="11.00">InsertItineraryLanguage</text>
</g>
<!-- \\db_connector\\InsertItineraryLanguage&#45;&gt;\\db_connector\\InsertConnector -->
<g id="edge8" class="edge"><title>\\db_connector\\InsertItineraryLanguage&#45;&gt;\\db_connector\\InsertConnector</title>
<path fill="none" stroke="black" d="M740.54,-708.012C736.045,-710.615 731.807,-713.592 728,-717 669.291,-769.547 716.352,-828.348 656,-879 644.523,-888.632 630.104,-894.91 615.559,-898.982"/>
<polygon fill="none" stroke="black" points="614.375,-895.669 605.504,-901.462 616.051,-902.465 614.375,-895.669"/>
</g>
<!-- \\db_connector\\InsertItineraryReview -->
<g id="node11" class="node"><title>\\db_connector\\InsertItineraryReview</title>
<polygon fill="none" stroke="black" points="893,-654 735,-654 735,-618 893,-618 893,-654"/>
<text text-anchor="middle" x="814" y="-633.2" font-family="Courier,monospace" font-size="11.00">InsertItineraryReview</text>
</g>
<!-- \\db_connector\\InsertItineraryReview&#45;&gt;\\db_connector\\InsertConnector -->
<g id="edge9" class="edge"><title>\\db_connector\\InsertItineraryReview&#45;&gt;\\db_connector\\InsertConnector</title>
<path fill="none" stroke="black" d="M739.358,-654.099C735.255,-656.68 731.418,-659.63 728,-663 655.94,-734.045 730.285,-810.285 656,-879 644.778,-889.38 630.194,-895.929 615.377,-900.022"/>
<polygon fill="none" stroke="black" points="614.539,-896.623 605.639,-902.372 616.181,-903.428 614.539,-896.623"/>
</g>
<!-- \\db_connector\\InsertLanguage -->
<g id="node12" class="node"><title>\\db_connector\\InsertLanguage</title>
<polygon fill="none" stroke="black" points="869.5,-600 758.5,-600 758.5,-564 869.5,-564 869.5,-600"/>
<text text-anchor="middle" x="814" y="-579.2" font-family="Courier,monospace" font-size="11.00">InsertLanguage</text>
</g>
<!-- \\db_connector\\InsertLanguage&#45;&gt;\\db_connector\\InsertConnector -->
<g id="edge10" class="edge"><title>\\db_connector\\InsertLanguage&#45;&gt;\\db_connector\\InsertConnector</title>
<path fill="none" stroke="black" d="M758.074,-590.646C746.915,-594.648 736.123,-600.486 728,-609 642.268,-698.856 744.549,-791.919 656,-879 644.987,-889.83 630.339,-896.536 615.378,-900.636"/>
<polygon fill="none" stroke="black" points="614.459,-897.257 605.536,-902.97 616.074,-904.067 614.459,-897.257"/>
</g>
<!-- \\db_connector\\InsertRegisteredUser -->
<g id="node13" class="node"><title>\\db_connector\\InsertRegisteredUser</title>
<polygon fill="none" stroke="black" points="890,-546 738,-546 738,-510 890,-510 890,-546"/>
<text text-anchor="middle" x="814" y="-525.2" font-family="Courier,monospace" font-size="11.00">InsertRegisteredUser</text>
</g>
<!-- \\db_connector\\InsertRegisteredUser&#45;&gt;\\db_connector\\InsertConnector -->
<g id="edge11" class="edge"><title>\\db_connector\\InsertRegisteredUser&#45;&gt;\\db_connector\\InsertConnector</title>
<path fill="none" stroke="black" d="M738.174,-546.224C734.466,-548.778 731.031,-551.687 728,-555 628.431,-663.839 758.983,-773.386 656,-879 645.161,-890.116 630.505,-896.921 615.474,-901.025"/>
<polygon fill="none" stroke="black" points="614.513,-897.655 605.578,-903.349 616.114,-904.469 614.513,-897.655"/>
</g>
<!-- \\db_connector\\InsertReport -->
<g id="node14" class="node"><title>\\db_connector\\InsertReport</title>
<polygon fill="none" stroke="black" points="863,-492 765,-492 765,-456 863,-456 863,-492"/>
<text text-anchor="middle" x="814" y="-471.2" font-family="Courier,monospace" font-size="11.00">InsertReport</text>
</g>
<!-- \\db_connector\\InsertReport&#45;&gt;\\db_connector\\InsertConnector -->
<g id="edge12" class="edge"><title>\\db_connector\\InsertReport&#45;&gt;\\db_connector\\InsertConnector</title>
<path fill="none" stroke="black" d="M764.683,-479.926C751.091,-483.861 737.454,-490.345 728,-501 614.497,-628.926 773.517,-754.751 656,-879 645.277,-890.337 630.589,-897.216 615.484,-901.32"/>
<polygon fill="none" stroke="black" points="614.482,-897.959 605.535,-903.634 616.068,-904.777 614.482,-897.959"/>
</g>
<!-- \\db_connector\\InsertReportDetails -->
<g id="node15" class="node"><title>\\db_connector\\InsertReportDetails</title>
<polygon fill="none" stroke="black" points="886.5,-438 741.5,-438 741.5,-402 886.5,-402 886.5,-438"/>
<text text-anchor="middle" x="814" y="-417.2" font-family="Courier,monospace" font-size="11.00">InsertReportDetails</text>
</g>
<!-- \\db_connector\\InsertReportDetails&#45;&gt;\\db_connector\\InsertConnector -->
<g id="edge13" class="edge"><title>\\db_connector\\InsertReportDetails&#45;&gt;\\db_connector\\InsertConnector</title>
<path fill="none" stroke="black" d="M741.447,-435.72C736.437,-438.833 731.854,-442.554 728,-447 600.504,-594.081 788.113,-736.052 656,-879 645.409,-890.46 630.77,-897.385 615.67,-901.493"/>
<polygon fill="none" stroke="black" points="614.667,-898.133 605.718,-903.806 616.251,-904.951 614.667,-898.133"/>
</g>
<!-- \\db_connector\\InsertReservation -->
<g id="node16" class="node"><title>\\db_connector\\InsertReservation</title>
<polygon fill="none" stroke="black" points="879.5,-384 748.5,-384 748.5,-348 879.5,-348 879.5,-384"/>
<text text-anchor="middle" x="814" y="-363.2" font-family="Courier,monospace" font-size="11.00">InsertReservation</text>
</g>
<!-- \\db_connector\\InsertReservation&#45;&gt;\\db_connector\\InsertConnector -->
<g id="edge14" class="edge"><title>\\db_connector\\InsertReservation&#45;&gt;\\db_connector\\InsertConnector</title>
<path fill="none" stroke="black" d="M748.292,-377.803C740.591,-381.57 733.52,-386.515 728,-393 586.471,-559.282 802.75,-717.307 656,-879 645.459,-890.614 630.763,-897.587 615.585,-901.691"/>
<polygon fill="none" stroke="black" points="614.541,-898.339 605.581,-903.993 616.111,-905.161 614.541,-898.339"/>
</g>
<!-- \\db_connector\\InsertUserLanguage -->
<g id="node17" class="node"><title>\\db_connector\\InsertUserLanguage</title>
<polygon fill="none" stroke="black" points="883,-330 745,-330 745,-294 883,-294 883,-330"/>
<text text-anchor="middle" x="814" y="-309.2" font-family="Courier,monospace" font-size="11.00">InsertUserLanguage</text>
</g>
<!-- \\db_connector\\InsertUserLanguage&#45;&gt;\\db_connector\\InsertConnector -->
<g id="edge15" class="edge"><title>\\db_connector\\InsertUserLanguage&#45;&gt;\\db_connector\\InsertConnector</title>
<path fill="none" stroke="black" d="M744.894,-325.455C738.501,-328.986 732.676,-333.424 728,-339 572.41,-524.515 817.416,-698.531 656,-879 645.544,-890.691 630.879,-897.691 615.704,-901.798"/>
<polygon fill="none" stroke="black" points="614.659,-898.447 605.698,-904.099 616.228,-905.269 614.659,-898.447"/>
</g>
<!-- \\db_connector\\InsertUserReview -->
<g id="node18" class="node"><title>\\db_connector\\InsertUserReview</title>
<polygon fill="none" stroke="black" points="876.5,-276 751.5,-276 751.5,-240 876.5,-240 876.5,-276"/>
<text text-anchor="middle" x="814" y="-255.2" font-family="Courier,monospace" font-size="11.00">InsertUserReview</text>
</g>
<!-- \\db_connector\\InsertUserReview&#45;&gt;\\db_connector\\InsertConnector -->
<g id="edge16" class="edge"><title>\\db_connector\\InsertUserReview&#45;&gt;\\db_connector\\InsertConnector</title>
<path fill="none" stroke="black" d="M751.094,-268.281C742.269,-272.213 734.125,-277.608 728,-285 558.329,-489.773 832.103,-679.732 656,-879 645.561,-890.812 630.826,-897.847 615.572,-901.947"/>
<polygon fill="none" stroke="black" points="614.485,-898.605 605.512,-904.238 616.04,-905.43 614.485,-898.605"/>
</g>
<!-- \\db_connector\\InsertWishlist -->
<g id="node19" class="node"><title>\\db_connector\\InsertWishlist</title>
<polygon fill="none" stroke="black" points="869.5,-222 758.5,-222 758.5,-186 869.5,-186 869.5,-222"/>
<text text-anchor="middle" x="814" y="-201.2" font-family="Courier,monospace" font-size="11.00">InsertWishlist</text>
</g>
<!-- \\db_connector\\InsertWishlist&#45;&gt;\\db_connector\\InsertConnector -->
<g id="edge17" class="edge"><title>\\db_connector\\InsertWishlist&#45;&gt;\\db_connector\\InsertConnector</title>
<path fill="none" stroke="black" d="M758.413,-211.31C746.821,-215.351 735.757,-221.542 728,-231 544.233,-455.049 846.805,-660.915 656,-879 645.62,-890.864 630.907,-897.918 615.654,-902.02"/>
<polygon fill="none" stroke="black" points="614.567,-898.678 605.593,-904.31 616.121,-905.503 614.567,-898.678"/>
</g>
<!-- \\db_connector\\JsonConnector -->
<g id="node20" class="node"><title>\\db_connector\\JsonConnector</title>
<polygon fill="none" stroke="black" points="348,-438 244,-438 244,-402 348,-402 348,-438"/>
<text text-anchor="start" x="262" y="-423.2" font-family="Courier,monospace" font-size="11.00">«abstract»</text>
<text text-anchor="start" x="252" y="-411.2" font-family="Courier,monospace" font-size="11.00">JsonConnector</text>
</g>
<!-- \\db_connector\\JsonConnector&#45;&gt;\\db_connector\\DatabaseConnector -->
<g id="edge18" class="edge"><title>\\db_connector\\JsonConnector&#45;&gt;\\db_connector\\DatabaseConnector</title>
<path fill="none" stroke="black" d="M277.916,-438.045C241.602,-476.4 156.641,-566.14 114.741,-610.396"/>
<polygon fill="none" stroke="black" points="112.013,-608.187 107.679,-617.855 117.096,-612.999 112.013,-608.187"/>
</g>
<!-- \\db_connector\\RequestDocument -->
<g id="node21" class="node"><title>\\db_connector\\RequestDocument</title>
<polygon fill="none" stroke="black" points="605.5,-762 487.5,-762 487.5,-726 605.5,-726 605.5,-762"/>
<text text-anchor="middle" x="546.5" y="-741.2" font-family="Courier,monospace" font-size="11.00">RequestDocument</text>
</g>
<!-- \\db_connector\\RequestDocument&#45;&gt;\\db_connector\\JsonConnector -->
<g id="edge19" class="edge"><title>\\db_connector\\RequestDocument&#45;&gt;\\db_connector\\JsonConnector</title>
<path fill="none" stroke="black" d="M487.371,-739.213C469.678,-735.36 451.181,-728.635 437,-717 392.241,-680.276 330.366,-514.834 306.719,-448.069"/>
<polygon fill="none" stroke="black" points="309.88,-446.508 303.261,-438.235 303.277,-448.83 309.88,-446.508"/>
</g>
<!-- \\db_connector\\RequestItinerary -->
<g id="node22" class="node"><title>\\db_connector\\RequestItinerary</title>
<polygon fill="none" stroke="black" points="609,-708 484,-708 484,-672 609,-672 609,-708"/>
<text text-anchor="middle" x="546.5" y="-687.2" font-family="Courier,monospace" font-size="11.00">RequestItinerary</text>
</g>
<!-- \\db_connector\\RequestItinerary&#45;&gt;\\db_connector\\JsonConnector -->
<g id="edge20" class="edge"><title>\\db_connector\\RequestItinerary&#45;&gt;\\db_connector\\JsonConnector</title>
<path fill="none" stroke="black" d="M483.989,-683.596C467.529,-679.614 450.562,-673.225 437,-663 362.62,-606.924 321.222,-498.944 305.051,-447.959"/>
<polygon fill="none" stroke="black" points="308.355,-446.795 302.065,-438.269 301.665,-448.856 308.355,-446.795"/>
</g>
<!-- \\db_connector\\RequestItineraryLanguage -->
<g id="node23" class="node"><title>\\db_connector\\RequestItineraryLanguage</title>
<polygon fill="none" stroke="black" points="636,-654 457,-654 457,-618 636,-618 636,-654"/>
<text text-anchor="middle" x="546.5" y="-633.2" font-family="Courier,monospace" font-size="11.00">RequestItineraryLanguage</text>
</g>
<!-- \\db_connector\\RequestItineraryLanguage&#45;&gt;\\db_connector\\JsonConnector -->
<g id="edge21" class="edge"><title>\\db_connector\\RequestItineraryLanguage&#45;&gt;\\db_connector\\JsonConnector</title>
<path fill="none" stroke="black" d="M456.809,-619.517C449.84,-616.569 443.135,-613.095 437,-609 374.901,-567.55 330.091,-488.897 309.551,-447.328"/>
<polygon fill="none" stroke="black" points="312.586,-445.564 305.083,-438.084 306.284,-448.61 312.586,-445.564"/>
</g>
<!-- \\db_connector\\RequestItineraryReview -->
<g id="node24" class="node"><title>\\db_connector\\RequestItineraryReview</title>
<polygon fill="none" stroke="black" points="629,-600 464,-600 464,-564 629,-564 629,-600"/>
<text text-anchor="middle" x="546.5" y="-579.2" font-family="Courier,monospace" font-size="11.00">RequestItineraryReview</text>
</g>
<!-- \\db_connector\\RequestItineraryReview&#45;&gt;\\db_connector\\JsonConnector -->
<g id="edge22" class="edge"><title>\\db_connector\\RequestItineraryReview&#45;&gt;\\db_connector\\JsonConnector</title>
<path fill="none" stroke="black" d="M463.726,-566.624C454.433,-563.439 445.322,-559.606 437,-555 387.045,-527.348 342,-477.323 317.175,-446.547"/>
<polygon fill="none" stroke="black" points="319.678,-444.071 310.722,-438.412 314.194,-448.421 319.678,-444.071"/>
</g>
<!-- \\db_connector\\RequestLanguage -->
<g id="node25" class="node"><title>\\db_connector\\RequestLanguage</title>
<polygon fill="none" stroke="black" points="605.5,-546 487.5,-546 487.5,-510 605.5,-510 605.5,-546"/>
<text text-anchor="middle" x="546.5" y="-525.2" font-family="Courier,monospace" font-size="11.00">RequestLanguage</text>
</g>
<!-- \\db_connector\\RequestLanguage&#45;&gt;\\db_connector\\JsonConnector -->
<g id="edge23" class="edge"><title>\\db_connector\\RequestLanguage&#45;&gt;\\db_connector\\JsonConnector</title>
<path fill="none" stroke="black" d="M487.39,-516.719C470.808,-512.653 452.927,-507.439 437,-501 399.062,-485.662 358.95,-461.538 331.433,-443.602"/>
<polygon fill="none" stroke="black" points="333.235,-440.598 322.96,-438.015 329.381,-446.442 333.235,-440.598"/>
</g>
<!-- \\db_connector\\RequestRegisteredUser -->
<g id="node26" class="node"><title>\\db_connector\\RequestRegisteredUser</title>
<polygon fill="none" stroke="black" points="625.5,-492 467.5,-492 467.5,-456 625.5,-456 625.5,-492"/>
<text text-anchor="middle" x="546.5" y="-471.2" font-family="Courier,monospace" font-size="11.00">RequestRegisteredUser</text>
</g>
<!-- \\db_connector\\RequestRegisteredUser&#45;&gt;\\db_connector\\JsonConnector -->
<g id="edge24" class="edge"><title>\\db_connector\\RequestRegisteredUser&#45;&gt;\\db_connector\\JsonConnector</title>
<path fill="none" stroke="black" d="M467.214,-456.988C432.017,-449.34 391.091,-440.446 358.191,-433.297"/>
<polygon fill="none" stroke="black" points="358.769,-429.841 348.253,-431.138 357.282,-436.681 358.769,-429.841"/>
</g>
<!-- \\db_connector\\RequestReport -->
<g id="node27" class="node"><title>\\db_connector\\RequestReport</title>
<polygon fill="none" stroke="black" points="598.5,-438 494.5,-438 494.5,-402 598.5,-402 598.5,-438"/>
<text text-anchor="middle" x="546.5" y="-417.2" font-family="Courier,monospace" font-size="11.00">RequestReport</text>
</g>
<!-- \\db_connector\\RequestReport&#45;&gt;\\db_connector\\JsonConnector -->
<g id="edge25" class="edge"><title>\\db_connector\\RequestReport&#45;&gt;\\db_connector\\JsonConnector</title>
<path fill="none" stroke="black" d="M494.312,-420C454.803,-420 400.009,-420 358.186,-420"/>
<polygon fill="none" stroke="black" points="358.122,-416.5 348.122,-420 358.122,-423.5 358.122,-416.5"/>
</g>
<!-- \\db_connector\\RequestReportDetails -->
<g id="node28" class="node"><title>\\db_connector\\RequestReportDetails</title>
<polygon fill="none" stroke="black" points="622.5,-384 470.5,-384 470.5,-348 622.5,-348 622.5,-384"/>
<text text-anchor="middle" x="546.5" y="-363.2" font-family="Courier,monospace" font-size="11.00">RequestReportDetails</text>
</g>
<!-- \\db_connector\\RequestReportDetails&#45;&gt;\\db_connector\\JsonConnector -->
<g id="edge26" class="edge"><title>\\db_connector\\RequestReportDetails&#45;&gt;\\db_connector\\JsonConnector</title>
<path fill="none" stroke="black" d="M470.267,-382.348C434.537,-390.113 392.365,-399.277 358.573,-406.62"/>
<polygon fill="none" stroke="black" points="357.4,-403.293 348.372,-408.837 358.887,-410.133 357.4,-403.293"/>
</g>
<!-- \\db_connector\\RequestReportJoinReportDetails -->
<g id="node29" class="node"><title>\\db_connector\\RequestReportJoinReportDetails</title>
<polygon fill="none" stroke="black" points="656,-330 437,-330 437,-294 656,-294 656,-330"/>
<text text-anchor="middle" x="546.5" y="-309.2" font-family="Courier,monospace" font-size="11.00">RequestReportJoinReportDetails</text>
</g>
<!-- \\db_connector\\RequestReportJoinReportDetails&#45;&gt;\\db_connector\\JsonConnector -->
<g id="edge27" class="edge"><title>\\db_connector\\RequestReportJoinReportDetails&#45;&gt;\\db_connector\\JsonConnector</title>
<path fill="none" stroke="black" d="M462.673,-330.03C453.893,-332.703 445.188,-335.69 437,-339 399.062,-354.338 358.95,-378.462 331.433,-396.398"/>
<polygon fill="none" stroke="black" points="329.381,-393.558 322.96,-401.985 333.235,-399.402 329.381,-393.558"/>
</g>
<!-- \\db_connector\\RequestReservation -->
<g id="node30" class="node"><title>\\db_connector\\RequestReservation</title>
<polygon fill="none" stroke="black" points="615.5,-276 477.5,-276 477.5,-240 615.5,-240 615.5,-276"/>
<text text-anchor="middle" x="546.5" y="-255.2" font-family="Courier,monospace" font-size="11.00">RequestReservation</text>
</g>
<!-- \\db_connector\\RequestReservation&#45;&gt;\\db_connector\\JsonConnector -->
<g id="edge28" class="edge"><title>\\db_connector\\RequestReservation&#45;&gt;\\db_connector\\JsonConnector</title>
<path fill="none" stroke="black" d="M477.442,-269.145C463.547,-272.993 449.398,-278.137 437,-285 387.045,-312.652 342,-362.677 317.175,-393.453"/>
<polygon fill="none" stroke="black" points="314.194,-391.579 310.722,-401.588 319.678,-395.929 314.194,-391.579"/>
</g>
<!-- \\db_connector\\RequestUserLanguage -->
<g id="node31" class="node"><title>\\db_connector\\RequestUserLanguage</title>
<polygon fill="none" stroke="black" points="619,-222 474,-222 474,-186 619,-186 619,-222"/>
<text text-anchor="middle" x="546.5" y="-201.2" font-family="Courier,monospace" font-size="11.00">RequestUserLanguage</text>
</g>
<!-- \\db_connector\\RequestUserLanguage&#45;&gt;\\db_connector\\JsonConnector -->
<g id="edge29" class="edge"><title>\\db_connector\\RequestUserLanguage&#45;&gt;\\db_connector\\JsonConnector</title>
<path fill="none" stroke="black" d="M473.946,-214.355C460.969,-218.253 448.059,-223.618 437,-231 374.901,-272.45 330.091,-351.103 309.551,-392.672"/>
<polygon fill="none" stroke="black" points="306.284,-391.39 305.083,-401.916 312.586,-394.436 306.284,-391.39"/>
</g>
<!-- \\db_connector\\RequestUserReview -->
<g id="node32" class="node"><title>\\db_connector\\RequestUserReview</title>
<polygon fill="none" stroke="black" points="612,-168 481,-168 481,-132 612,-132 612,-168"/>
<text text-anchor="middle" x="546.5" y="-147.2" font-family="Courier,monospace" font-size="11.00">RequestUserReview</text>
</g>
<!-- \\db_connector\\RequestUserReview&#45;&gt;\\db_connector\\JsonConnector -->
<g id="edge30" class="edge"><title>\\db_connector\\RequestUserReview&#45;&gt;\\db_connector\\JsonConnector</title>
<path fill="none" stroke="black" d="M480.88,-157.184C465.41,-161.204 449.71,-167.418 437,-177 362.62,-233.076 321.222,-341.056 305.051,-392.041"/>
<polygon fill="none" stroke="black" points="301.665,-391.144 302.065,-401.731 308.355,-393.205 301.665,-391.144"/>
</g>
<!-- \\db_connector\\RequestWishlist -->
<g id="node33" class="node"><title>\\db_connector\\RequestWishlist</title>
<polygon fill="none" stroke="black" points="605.5,-114 487.5,-114 487.5,-78 605.5,-78 605.5,-114"/>
<text text-anchor="middle" x="546.5" y="-93.2" font-family="Courier,monospace" font-size="11.00">RequestWishlist</text>
</g>
<!-- \\db_connector\\RequestWishlist&#45;&gt;\\db_connector\\JsonConnector -->
<g id="edge31" class="edge"><title>\\db_connector\\RequestWishlist&#45;&gt;\\db_connector\\JsonConnector</title>
<path fill="none" stroke="black" d="M487.371,-100.787C469.678,-104.64 451.181,-111.365 437,-123 350.085,-194.311 313.996,-332.023 302.006,-391.499"/>
<polygon fill="none" stroke="black" points="298.503,-391.178 300.041,-401.66 305.376,-392.507 298.503,-391.178"/>
</g>
<!-- \\db_connector\\RequestWishlistJoinItinerary -->
<g id="node34" class="node"><title>\\db_connector\\RequestWishlistJoinItinerary</title>
<polygon fill="none" stroke="black" points="649.5,-60 443.5,-60 443.5,-24 649.5,-24 649.5,-60"/>
<text text-anchor="middle" x="546.5" y="-39.2" font-family="Courier,monospace" font-size="11.00">RequestWishlistJoinItinerary</text>
</g>
<!-- \\db_connector\\RequestWishlistJoinItinerary&#45;&gt;\\db_connector\\JsonConnector -->
<g id="edge32" class="edge"><title>\\db_connector\\RequestWishlistJoinItinerary&#45;&gt;\\db_connector\\JsonConnector</title>
<path fill="none" stroke="black" d="M449.591,-60.0365C445.111,-62.6459 440.875,-65.6175 437,-69 337.038,-156.247 307.642,-324.705 299.704,-391.608"/>
<polygon fill="none" stroke="black" points="296.197,-391.48 298.569,-401.806 303.154,-392.254 296.197,-391.48"/>
</g>
<!-- \\db_connector\\UpdateConnector -->
<g id="node35" class="node"><title>\\db_connector\\UpdateConnector</title>
<polygon fill="none" stroke="black" points="605.5,-870 487.5,-870 487.5,-834 605.5,-834 605.5,-870"/>
<text text-anchor="start" x="512.5" y="-855.2" font-family="Courier,monospace" font-size="11.00">«abstract»</text>
<text text-anchor="start" x="495.5" y="-843.2" font-family="Courier,monospace" font-size="11.00">UpdateConnector</text>
</g>
<!-- \\db_connector\\UpdateConnector&#45;&gt;\\db_connector\\BooleanConnector -->
<g id="edge33" class="edge"><title>\\db_connector\\UpdateConnector&#45;&gt;\\db_connector\\BooleanConnector</title>
<path fill="none" stroke="black" d="M487.238,-852C451.965,-852 406.696,-852 369.167,-852"/>
<polygon fill="none" stroke="black" points="368.802,-848.5 358.802,-852 368.802,-855.5 368.802,-848.5"/>
</g>
<!-- \\db_connector\\UpdateDocument -->
<g id="node36" class="node"><title>\\db_connector\\UpdateDocument</title>
<polygon fill="none" stroke="black" points="869.5,-168 758.5,-168 758.5,-132 869.5,-132 869.5,-168"/>
<text text-anchor="middle" x="814" y="-147.2" font-family="Courier,monospace" font-size="11.00">UpdateDocument</text>
</g>
<!-- \\db_connector\\UpdateDocument&#45;&gt;\\db_connector\\UpdateConnector -->
<g id="edge34" class="edge"><title>\\db_connector\\UpdateDocument&#45;&gt;\\db_connector\\UpdateConnector</title>
<path fill="none" stroke="black" d="M758.413,-157.31C746.821,-161.351 735.757,-167.542 728,-177 544.233,-401.049 846.805,-606.915 656,-825 645.62,-836.864 630.907,-843.918 615.654,-848.02"/>
<polygon fill="none" stroke="black" points="614.567,-844.678 605.593,-850.31 616.121,-851.503 614.567,-844.678"/>
</g>
<!-- \\db_connector\\UpdateItinerary -->
<g id="node37" class="node"><title>\\db_connector\\UpdateItinerary</title>
<polygon fill="none" stroke="black" points="873,-114 755,-114 755,-78 873,-78 873,-114"/>
<text text-anchor="middle" x="814" y="-93.2" font-family="Courier,monospace" font-size="11.00">UpdateItinerary</text>
</g>
<!-- \\db_connector\\UpdateItinerary&#45;&gt;\\db_connector\\UpdateConnector -->
<g id="edge35" class="edge"><title>\\db_connector\\UpdateItinerary&#45;&gt;\\db_connector\\UpdateConnector</title>
<path fill="none" stroke="black" d="M754.854,-104.559C744.562,-108.596 734.936,-114.471 728,-123 530.125,-366.338 861.52,-588.083 656,-825 645.67,-836.908 630.975,-843.978 615.724,-848.081"/>
<polygon fill="none" stroke="black" points="614.637,-844.739 605.662,-850.37 616.19,-851.565 614.637,-844.739"/>
</g>
<!-- \\db_connector\\UpdateRegisteredUser -->
<g id="node38" class="node"><title>\\db_connector\\UpdateRegisteredUser</title>
<polygon fill="none" stroke="black" points="890,-60 738,-60 738,-24 890,-24 890,-60"/>
<text text-anchor="middle" x="814" y="-39.2" font-family="Courier,monospace" font-size="11.00">UpdateRegisteredUser</text>
</g>
<!-- \\db_connector\\UpdateRegisteredUser&#45;&gt;\\db_connector\\UpdateConnector -->
<g id="edge36" class="edge"><title>\\db_connector\\UpdateRegisteredUser&#45;&gt;\\db_connector\\UpdateConnector</title>
<path fill="none" stroke="black" d="M737.678,-59.7973C734.092,-62.457 730.82,-65.506 728,-69 622.004,-200.32 766.122,-697.121 656,-825 645.713,-836.945 631.034,-844.029 615.785,-848.133"/>
<polygon fill="none" stroke="black" points="614.697,-844.791 605.722,-850.421 616.249,-851.617 614.697,-844.791"/>
</g>
<!-- \\db_connector\\UserDataDownloader -->
<g id="node39" class="node"><title>\\db_connector\\UserDataDownloader</title>
<polygon fill="none" stroke="black" points="365,-654 227,-654 227,-618 365,-618 365,-654"/>
<text text-anchor="middle" x="296" y="-633.2" font-family="Courier,monospace" font-size="11.00">UserDataDownloader</text>
</g>
<!-- \\db_connector\\UserDataDownloader&#45;&gt;\\db_connector\\DatabaseConnector -->
<g id="edge37" class="edge"><title>\\db_connector\\UserDataDownloader&#45;&gt;\\db_connector\\DatabaseConnector</title>
<path fill="none" stroke="black" d="M226.904,-636C207.125,-636 185.418,-636 165.253,-636"/>
<polygon fill="none" stroke="black" points="165.181,-632.5 155.181,-636 165.181,-639.5 165.181,-632.5"/>
</g>
<!-- \\db_connector\\UserLogin -->
<g id="node40" class="node"><title>\\db_connector\\UserLogin</title>
<polygon fill="none" stroke="black" points="585,-816 508,-816 508,-780 585,-780 585,-816"/>
<text text-anchor="middle" x="546.5" y="-795.2" font-family="Courier,monospace" font-size="11.00">UserLogin</text>
</g>
<!-- \\db_connector\\UserLogin&#45;&gt;\\db_connector\\BooleanConnector -->
<g id="edge38" class="edge"><title>\\db_connector\\UserLogin&#45;&gt;\\db_connector\\BooleanConnector</title>
<path fill="none" stroke="black" d="M507.758,-806.201C470.948,-814.2 414.029,-826.569 368.617,-836.437"/>
<polygon fill="none" stroke="black" points="367.847,-833.023 358.819,-838.567 369.334,-839.863 367.847,-833.023"/>
</g>
</g>
</svg>
