<?xml version="1.0" encoding="UTF-8" standalone="no"?>
<!DOCTYPE svg PUBLIC "-//W3C//DTD SVG 1.1//EN"
 "http://www.w3.org/Graphics/SVG/1.1/DTD/svg11.dtd">
<!-- Generated by graphviz version 2.38.0 (20140413.2041)
 -->
<!-- Title: G Pages: 1 -->
<svg width="932pt" height="1078pt"
 viewBox="0.00 0.00 932.00 1078.00" xmlns="http://www.w3.org/2000/svg" xmlns:xlink="http://www.w3.org/1999/xlink">
<g id="graph0" class="graph" transform="scale(1 1) rotate(0) translate(4 1074)">
<title>G</title>
<polygon fill="white" stroke="none" points="-4,4 -4,-1074 928,-1074 928,4 -4,4"/>
<g id="clust1" class="cluster"><title>cluster_Global</title>
<path fill="none" stroke="gray" d="M20,-8C20,-8 904,-8 904,-8 910,-8 916,-14 916,-20 916,-20 916,-1050 916,-1050 916,-1056 910,-1062 904,-1062 904,-1062 20,-1062 20,-1062 14,-1062 8,-1056 8,-1050 8,-1050 8,-20 8,-20 8,-14 14,-8 20,-8"/>
<text text-anchor="middle" x="462" y="-1049.2" font-family="Times New Roman,serif" font-size="11.00" fill="gray">Global</text>
</g>
<g id="clust2" class="cluster"><title>cluster_\db_connector</title>
<path fill="none" stroke="gray" d="M28,-16C28,-16 896,-16 896,-16 902,-16 908,-22 908,-28 908,-28 908,-1022 908,-1022 908,-1028 902,-1034 896,-1034 896,-1034 28,-1034 28,-1034 22,-1034 16,-1028 16,-1022 16,-1022 16,-28 16,-28 16,-22 22,-16 28,-16"/>
<text text-anchor="middle" x="462" y="-1021.2" font-family="Times New Roman,serif" font-size="11.00" fill="gray">db_connector</text>
</g>
<g id="clust3" class="cluster"><title>cluster_\db_connector\utilities</title>
<path fill="none" stroke="gray" d="M769,-934C769,-934 859,-934 859,-934 865,-934 871,-940 871,-946 871,-946 871,-994 871,-994 871,-1000 865,-1006 859,-1006 859,-1006 769,-1006 769,-1006 763,-1006 757,-1000 757,-994 757,-994 757,-946 757,-946 757,-940 763,-934 769,-934"/>
<text text-anchor="middle" x="814" y="-993.2" font-family="Times New Roman,serif" font-size="11.00" fill="gray">utilities</text>
</g>
<!-- \\db_connector\\utilities\\TableCreator -->
<g id="node1" class="node"><title>\\db_connector\\utilities\\TableCreator</title>
<polygon fill="none" stroke="black" points="863,-978 765,-978 765,-942 863,-942 863,-978"/>
<text text-anchor="middle" x="814" y="-957.2" font-family="Courier,monospace" font-size="11.00">TableCreator</text>
</g>
<!-- \\db_connector\\RequestUserReview -->
<g id="node2" class="node"><title>\\db_connector\\RequestUserReview</title>
<polygon fill="none" stroke="black" points="612,-1006 481,-1006 481,-970 612,-970 612,-1006"/>
<text text-anchor="middle" x="546.5" y="-985.2" font-family="Courier,monospace" font-size="11.00">RequestUserReview</text>
</g>
<!-- \\db_connector\\JsonConnector -->
<g id="node21" class="node"><title>\\db_connector\\JsonConnector</title>
<polygon fill="none" stroke="black" points="348,-628 244,-628 244,-592 348,-592 348,-628"/>
<text text-anchor="start" x="262" y="-613.2" font-family="Courier,monospace" font-size="11.00">«abstract»</text>
<text text-anchor="start" x="252" y="-601.2" font-family="Courier,monospace" font-size="11.00">JsonConnector</text>
</g>
<!-- \\db_connector\\RequestUserReview&#45;&gt;\\db_connector\\JsonConnector -->
<g id="edge1" class="edge"><title>\\db_connector\\RequestUserReview&#45;&gt;\\db_connector\\JsonConnector</title>
<path fill="none" stroke="black" d="M480.925,-983.906C464.723,-979.921 448.654,-972.952 437,-961 334.017,-855.386 460.677,-749.276 365,-637 362.549,-634.124 359.749,-631.551 356.715,-629.251"/>
<polygon fill="none" stroke="black" points="358.516,-626.248 348.214,-623.776 354.726,-632.133 358.516,-626.248"/>
</g>
<!-- \\db_connector\\InsertItinerary -->
<g id="node3" class="node"><title>\\db_connector\\InsertItinerary</title>
<polygon fill="none" stroke="black" points="873,-762 755,-762 755,-726 873,-726 873,-762"/>
<text text-anchor="middle" x="814" y="-741.2" font-family="Courier,monospace" font-size="11.00">InsertItinerary</text>
</g>
<!-- \\db_connector\\InsertConnector -->
<g id="node26" class="node"><title>\\db_connector\\InsertConnector</title>
<polygon fill="none" stroke="black" points="605.5,-142 487.5,-142 487.5,-106 605.5,-106 605.5,-142"/>
<text text-anchor="start" x="512.5" y="-127.2" font-family="Courier,monospace" font-size="11.00">«abstract»</text>
<text text-anchor="start" x="495.5" y="-115.2" font-family="Courier,monospace" font-size="11.00">InsertConnector</text>
</g>
<!-- \\db_connector\\InsertItinerary&#45;&gt;\\db_connector\\InsertConnector -->
<g id="edge2" class="edge"><title>\\db_connector\\InsertItinerary&#45;&gt;\\db_connector\\InsertConnector</title>
<path fill="none" stroke="black" d="M754.581,-735.137C744.44,-731.117 734.94,-725.325 728,-717 565.633,-522.215 824.485,-340.518 656,-151 645.579,-139.278 630.927,-132.266 615.754,-128.158"/>
<polygon fill="none" stroke="black" points="616.277,-124.687 605.747,-125.858 614.708,-131.509 616.277,-124.687"/>
</g>
<!-- \\db_connector\\RequestDocument -->
<g id="node4" class="node"><title>\\db_connector\\RequestDocument</title>
<polygon fill="none" stroke="black" points="605.5,-952 487.5,-952 487.5,-916 605.5,-916 605.5,-952"/>
<text text-anchor="middle" x="546.5" y="-931.2" font-family="Courier,monospace" font-size="11.00">RequestDocument</text>
</g>
<!-- \\db_connector\\RequestDocument&#45;&gt;\\db_connector\\JsonConnector -->
<g id="edge3" class="edge"><title>\\db_connector\\RequestDocument&#45;&gt;\\db_connector\\JsonConnector</title>
<path fill="none" stroke="black" d="M487.464,-930.97C469.254,-927.276 450.425,-920.202 437,-907 348.451,-819.919 447.516,-729.817 365,-637 362.489,-634.176 359.644,-631.643 356.575,-629.373"/>
<polygon fill="none" stroke="black" points="358.331,-626.342 348.008,-623.955 354.589,-632.258 358.331,-626.342"/>
</g>
<!-- \\db_connector\\InsertReport -->
<g id="node5" class="node"><title>\\db_connector\\InsertReport</title>
<polygon fill="none" stroke="black" points="863,-708 765,-708 765,-672 863,-672 863,-708"/>
<text text-anchor="middle" x="814" y="-687.2" font-family="Courier,monospace" font-size="11.00">InsertReport</text>
</g>
<!-- \\db_connector\\InsertReport&#45;&gt;\\db_connector\\InsertConnector -->
<g id="edge4" class="edge"><title>\\db_connector\\InsertReport&#45;&gt;\\db_connector\\InsertConnector</title>
<path fill="none" stroke="black" d="M764.805,-684.479C751.051,-680.571 737.293,-674 728,-663 579.704,-487.461 809.808,-321.73 656,-151 645.502,-139.347 630.822,-132.36 615.646,-128.255"/>
<polygon fill="none" stroke="black" points="616.17,-124.784 605.64,-125.953 614.601,-131.606 616.17,-124.784"/>
</g>
<!-- \\db_connector\\UpdateRegisteredUser -->
<g id="node6" class="node"><title>\\db_connector\\UpdateRegisteredUser</title>
<polygon fill="none" stroke="black" points="890,-924 738,-924 738,-888 890,-888 890,-924"/>
<text text-anchor="middle" x="814" y="-903.2" font-family="Courier,monospace" font-size="11.00">UpdateRegisteredUser</text>
</g>
<!-- \\db_connector\\UpdateConnector -->
<g id="node25" class="node"><title>\\db_connector\\UpdateConnector</title>
<polygon fill="none" stroke="black" points="605.5,-196 487.5,-196 487.5,-160 605.5,-160 605.5,-196"/>
<text text-anchor="start" x="512.5" y="-181.2" font-family="Courier,monospace" font-size="11.00">«abstract»</text>
<text text-anchor="start" x="495.5" y="-169.2" font-family="Courier,monospace" font-size="11.00">UpdateConnector</text>
</g>
<!-- \\db_connector\\UpdateRegisteredUser&#45;&gt;\\db_connector\\UpdateConnector -->
<g id="edge5" class="edge"><title>\\db_connector\\UpdateRegisteredUser&#45;&gt;\\db_connector\\UpdateConnector</title>
<path fill="none" stroke="black" d="M737.725,-888.164C734.128,-885.514 730.84,-882.478 728,-879 537.442,-645.665 853.889,-432.151 656,-205 645.645,-193.114 630.941,-186.052 615.689,-181.949"/>
<polygon fill="none" stroke="black" points="616.155,-178.466 605.628,-179.66 614.602,-185.292 616.155,-178.466"/>
</g>
<!-- \\db_connector\\RequestReportDetails -->
<g id="node7" class="node"><title>\\db_connector\\RequestReportDetails</title>
<polygon fill="none" stroke="black" points="622.5,-898 470.5,-898 470.5,-862 622.5,-862 622.5,-898"/>
<text text-anchor="middle" x="546.5" y="-877.2" font-family="Courier,monospace" font-size="11.00">RequestReportDetails</text>
</g>
<!-- \\db_connector\\RequestReportDetails&#45;&gt;\\db_connector\\JsonConnector -->
<g id="edge6" class="edge"><title>\\db_connector\\RequestReportDetails&#45;&gt;\\db_connector\\JsonConnector</title>
<path fill="none" stroke="black" d="M470.458,-871.835C458.172,-867.708 446.405,-861.7 437,-853 362.715,-784.285 434.515,-710.537 365,-637 362.525,-634.382 359.765,-632.013 356.811,-629.87"/>
<polygon fill="none" stroke="black" points="358.394,-626.732 348.057,-624.408 354.688,-632.67 358.394,-626.732"/>
</g>
<!-- \\db_connector\\InsertWishlist -->
<g id="node8" class="node"><title>\\db_connector\\InsertWishlist</title>
<polygon fill="none" stroke="black" points="869.5,-654 758.5,-654 758.5,-618 869.5,-618 869.5,-654"/>
<text text-anchor="middle" x="814" y="-633.2" font-family="Courier,monospace" font-size="11.00">InsertWishlist</text>
</g>
<!-- \\db_connector\\InsertWishlist&#45;&gt;\\db_connector\\InsertConnector -->
<g id="edge7" class="edge"><title>\\db_connector\\InsertWishlist&#45;&gt;\\db_connector\\InsertConnector</title>
<path fill="none" stroke="black" d="M758.276,-628.281C746.833,-624.248 735.868,-618.162 728,-609 593.752,-452.679 795.156,-302.969 656,-151 645.408,-139.432 630.693,-132.477 615.513,-128.375"/>
<polygon fill="none" stroke="black" points="616.04,-124.905 605.51,-126.072 614.469,-131.726 616.04,-124.905"/>
</g>
<!-- \\db_connector\\RequestLanguage -->
<g id="node9" class="node"><title>\\db_connector\\RequestLanguage</title>
<polygon fill="none" stroke="black" points="605.5,-844 487.5,-844 487.5,-808 605.5,-808 605.5,-844"/>
<text text-anchor="middle" x="546.5" y="-823.2" font-family="Courier,monospace" font-size="11.00">RequestLanguage</text>
</g>
<!-- \\db_connector\\RequestLanguage&#45;&gt;\\db_connector\\JsonConnector -->
<g id="edge8" class="edge"><title>\\db_connector\\RequestLanguage&#45;&gt;\\db_connector\\JsonConnector</title>
<path fill="none" stroke="black" d="M487.496,-821.462C469.708,-817.629 451.125,-810.855 437,-799 376.648,-748.348 421.824,-691.581 365,-637 362.572,-634.668 359.919,-632.53 357.112,-630.57"/>
<polygon fill="none" stroke="black" points="358.666,-627.419 348.304,-625.21 355.027,-633.399 358.666,-627.419"/>
</g>
<!-- \\db_connector\\InsertUserReview -->
<g id="node10" class="node"><title>\\db_connector\\InsertUserReview</title>
<polygon fill="none" stroke="black" points="876.5,-600 751.5,-600 751.5,-564 876.5,-564 876.5,-600"/>
<text text-anchor="middle" x="814" y="-579.2" font-family="Courier,monospace" font-size="11.00">InsertUserReview</text>
</g>
<!-- \\db_connector\\InsertUserReview&#45;&gt;\\db_connector\\InsertConnector -->
<g id="edge9" class="edge"><title>\\db_connector\\InsertUserReview&#45;&gt;\\db_connector\\InsertConnector</title>
<path fill="none" stroke="black" d="M751.445,-571.42C742.577,-567.524 734.328,-562.218 728,-555 607.766,-417.858 780.538,-284.246 656,-151 645.344,-139.6 630.682,-132.697 615.579,-128.591"/>
<polygon fill="none" stroke="black" points="616.162,-125.133 605.629,-126.277 614.577,-131.951 616.162,-125.133"/>
</g>
<!-- \\db_connector\\UpdateDocument -->
<g id="node11" class="node"><title>\\db_connector\\UpdateDocument</title>
<polygon fill="none" stroke="black" points="869.5,-870 758.5,-870 758.5,-834 869.5,-834 869.5,-870"/>
<text text-anchor="middle" x="814" y="-849.2" font-family="Courier,monospace" font-size="11.00">UpdateDocument</text>
</g>
<!-- \\db_connector\\UpdateDocument&#45;&gt;\\db_connector\\UpdateConnector -->
<g id="edge10" class="edge"><title>\\db_connector\\UpdateDocument&#45;&gt;\\db_connector\\UpdateConnector</title>
<path fill="none" stroke="black" d="M758.446,-844.663C746.854,-840.623 735.781,-834.438 728,-825 551.544,-610.948 839.18,-413.326 656,-205 645.591,-193.162 630.867,-186.117 615.613,-182.016"/>
<polygon fill="none" stroke="black" points="616.08,-178.533 605.553,-179.726 614.526,-185.358 616.08,-178.533"/>
</g>
<!-- \\db_connector\\InsertLanguage -->
<g id="node12" class="node"><title>\\db_connector\\InsertLanguage</title>
<polygon fill="none" stroke="black" points="869.5,-546 758.5,-546 758.5,-510 869.5,-510 869.5,-546"/>
<text text-anchor="middle" x="814" y="-525.2" font-family="Courier,monospace" font-size="11.00">InsertLanguage</text>
</g>
<!-- \\db_connector\\InsertLanguage&#45;&gt;\\db_connector\\InsertConnector -->
<g id="edge11" class="edge"><title>\\db_connector\\InsertLanguage&#45;&gt;\\db_connector\\InsertConnector</title>
<path fill="none" stroke="black" d="M758.145,-519.854C746.846,-515.833 735.978,-509.86 728,-501 621.731,-382.981 765.972,-265.577 656,-151 645.249,-139.799 630.626,-132.962 615.598,-128.855"/>
<polygon fill="none" stroke="black" points="616.237,-125.409 605.702,-126.531 614.637,-132.224 616.237,-125.409"/>
</g>
<!-- \\db_connector\\RequestUserLanguage -->
<g id="node13" class="node"><title>\\db_connector\\RequestUserLanguage</title>
<polygon fill="none" stroke="black" points="619,-790 474,-790 474,-754 619,-754 619,-790"/>
<text text-anchor="middle" x="546.5" y="-769.2" font-family="Courier,monospace" font-size="11.00">RequestUserLanguage</text>
</g>
<!-- \\db_connector\\RequestUserLanguage&#45;&gt;\\db_connector\\JsonConnector -->
<g id="edge12" class="edge"><title>\\db_connector\\RequestUserLanguage&#45;&gt;\\db_connector\\JsonConnector</title>
<path fill="none" stroke="black" d="M473.93,-762.168C460.883,-758.225 447.952,-752.71 437,-745 389.826,-711.794 409.843,-673.291 365,-637 362.561,-635.026 359.959,-633.182 357.249,-631.46"/>
<polygon fill="none" stroke="black" points="358.716,-628.268 348.292,-626.372 355.258,-634.355 358.716,-628.268"/>
</g>
<!-- \\db_connector\\InsertUserLanguage -->
<g id="node14" class="node"><title>\\db_connector\\InsertUserLanguage</title>
<polygon fill="none" stroke="black" points="883,-492 745,-492 745,-456 883,-456 883,-492"/>
<text text-anchor="middle" x="814" y="-471.2" font-family="Courier,monospace" font-size="11.00">InsertUserLanguage</text>
</g>
<!-- \\db_connector\\InsertUserLanguage&#45;&gt;\\db_connector\\InsertConnector -->
<g id="edge13" class="edge"><title>\\db_connector\\InsertUserLanguage&#45;&gt;\\db_connector\\InsertConnector</title>
<path fill="none" stroke="black" d="M744.645,-459.591C738.463,-456.231 732.754,-452.094 728,-447 635.621,-348.02 751.483,-246.989 656,-151 645.107,-140.049 630.504,-133.298 615.548,-129.193"/>
<polygon fill="none" stroke="black" points="616.243,-125.76 605.705,-126.86 614.629,-132.572 616.243,-125.76"/>
</g>
<!-- \\db_connector\\InsertReportDetails -->
<g id="node15" class="node"><title>\\db_connector\\InsertReportDetails</title>
<polygon fill="none" stroke="black" points="886.5,-438 741.5,-438 741.5,-402 886.5,-402 886.5,-438"/>
<text text-anchor="middle" x="814" y="-417.2" font-family="Courier,monospace" font-size="11.00">InsertReportDetails</text>
</g>
<!-- \\db_connector\\InsertReportDetails&#45;&gt;\\db_connector\\InsertConnector -->
<g id="edge14" class="edge"><title>\\db_connector\\InsertReportDetails&#45;&gt;\\db_connector\\InsertConnector</title>
<path fill="none" stroke="black" d="M741.222,-403.264C736.393,-400.37 731.905,-396.978 728,-393 649.385,-312.926 737.124,-228.531 656,-151 644.891,-140.383 630.278,-133.751 615.39,-129.654"/>
<polygon fill="none" stroke="black" points="616.141,-126.235 605.601,-127.311 614.512,-133.042 616.141,-126.235"/>
</g>
<!-- \\db_connector\\InsertItineraryLanguage -->
<g id="node16" class="node"><title>\\db_connector\\InsertItineraryLanguage</title>
<polygon fill="none" stroke="black" points="900,-384 728,-384 728,-348 900,-348 900,-384"/>
<text text-anchor="middle" x="814" y="-363.2" font-family="Courier,monospace" font-size="11.00">InsertItineraryLanguage</text>
</g>
<!-- \\db_connector\\InsertItineraryLanguage&#45;&gt;\\db_connector\\InsertConnector -->
<g id="edge15" class="edge"><title>\\db_connector\\InsertItineraryLanguage&#45;&gt;\\db_connector\\InsertConnector</title>
<path fill="none" stroke="black" d="M739.93,-347.97C735.635,-345.372 731.604,-342.4 728,-339 662.919,-277.6 723.002,-210.298 656,-151 644.721,-141.018 630.311,-134.606 615.705,-130.518"/>
<polygon fill="none" stroke="black" points="616.143,-127.022 605.598,-128.044 614.479,-133.821 616.143,-127.022"/>
</g>
<!-- \\db_connector\\RequestWishlist -->
<g id="node17" class="node"><title>\\db_connector\\RequestWishlist</title>
<polygon fill="none" stroke="black" points="605.5,-736 487.5,-736 487.5,-700 605.5,-700 605.5,-736"/>
<text text-anchor="middle" x="546.5" y="-715.2" font-family="Courier,monospace" font-size="11.00">RequestWishlist</text>
</g>
<!-- \\db_connector\\RequestWishlist&#45;&gt;\\db_connector\\JsonConnector -->
<g id="edge16" class="edge"><title>\\db_connector\\RequestWishlist&#45;&gt;\\db_connector\\JsonConnector</title>
<path fill="none" stroke="black" d="M487.424,-708.057C470.672,-704.001 452.691,-698.458 437,-691 400.873,-673.829 399.895,-656.553 365,-637 362.174,-635.417 359.237,-633.881 356.238,-632.399"/>
<polygon fill="none" stroke="black" points="357.647,-629.194 347.107,-628.12 354.677,-635.533 357.647,-629.194"/>
</g>
<!-- \\db_connector\\InsertRegisteredUser -->
<g id="node18" class="node"><title>\\db_connector\\InsertRegisteredUser</title>
<polygon fill="none" stroke="black" points="890,-330 738,-330 738,-294 890,-294 890,-330"/>
<text text-anchor="middle" x="814" y="-309.2" font-family="Courier,monospace" font-size="11.00">InsertRegisteredUser</text>
</g>
<!-- \\db_connector\\InsertRegisteredUser&#45;&gt;\\db_connector\\InsertConnector -->
<g id="edge17" class="edge"><title>\\db_connector\\InsertRegisteredUser&#45;&gt;\\db_connector\\InsertConnector</title>
<path fill="none" stroke="black" d="M741.239,-293.887C736.526,-291.307 732.051,-288.362 728,-285 675.972,-241.827 709.376,-192.495 656,-151 644.296,-141.901 629.918,-135.828 615.503,-131.785"/>
<polygon fill="none" stroke="black" points="616.101,-128.327 605.551,-129.298 614.404,-135.118 616.101,-128.327"/>
</g>
<!-- \\db_connector\\InsertReservation -->
<g id="node19" class="node"><title>\\db_connector\\InsertReservation</title>
<polygon fill="none" stroke="black" points="879.5,-276 748.5,-276 748.5,-240 879.5,-240 879.5,-276"/>
<text text-anchor="middle" x="814" y="-255.2" font-family="Courier,monospace" font-size="11.00">InsertReservation</text>
</g>
<!-- \\db_connector\\InsertReservation&#45;&gt;\\db_connector\\InsertConnector -->
<g id="edge18" class="edge"><title>\\db_connector\\InsertReservation&#45;&gt;\\db_connector\\InsertConnector</title>
<path fill="none" stroke="black" d="M748.214,-241.469C741.138,-238.495 734.246,-235.028 728,-231 687.799,-205.075 697.006,-175.632 656,-151 643.815,-143.681 629.724,-138.339 615.813,-134.443"/>
<polygon fill="none" stroke="black" points="616.303,-130.955 605.746,-131.854 614.559,-137.735 616.303,-130.955"/>
</g>
<!-- \\db_connector\\InsertDocument -->
<g id="node20" class="node"><title>\\db_connector\\InsertDocument</title>
<polygon fill="none" stroke="black" points="869.5,-222 758.5,-222 758.5,-186 869.5,-186 869.5,-222"/>
<text text-anchor="middle" x="814" y="-201.2" font-family="Courier,monospace" font-size="11.00">InsertDocument</text>
</g>
<!-- \\db_connector\\InsertDocument&#45;&gt;\\db_connector\\InsertConnector -->
<g id="edge19" class="edge"><title>\\db_connector\\InsertDocument&#45;&gt;\\db_connector\\InsertConnector</title>
<path fill="none" stroke="black" d="M758.483,-187.03C748.328,-183.77 737.824,-180.333 728,-177 695.781,-166.07 688.551,-160.899 656,-151 642.924,-147.023 628.833,-143.192 615.274,-139.726"/>
<polygon fill="none" stroke="black" points="616.07,-136.317 605.518,-137.271 614.361,-143.106 616.07,-136.317"/>
</g>
<!-- \\db_connector\\DatabaseConnector -->
<g id="node30" class="node"><title>\\db_connector\\DatabaseConnector</title>
<polygon fill="none" stroke="black" points="155,-628 24,-628 24,-592 155,-592 155,-628"/>
<text text-anchor="start" x="55.5" y="-613.2" font-family="Courier,monospace" font-size="11.00">«abstract»</text>
<text text-anchor="start" x="32" y="-601.2" font-family="Courier,monospace" font-size="11.00">DatabaseConnector</text>
</g>
<!-- \\db_connector\\JsonConnector&#45;&gt;\\db_connector\\DatabaseConnector -->
<g id="edge20" class="edge"><title>\\db_connector\\JsonConnector&#45;&gt;\\db_connector\\DatabaseConnector</title>
<path fill="none" stroke="black" d="M243.924,-610C220.216,-610 191.563,-610 165.467,-610"/>
<polygon fill="none" stroke="black" points="165.228,-606.5 155.228,-610 165.228,-613.5 165.228,-606.5"/>
</g>
<!-- \\db_connector\\RequestItineraryLanguage -->
<g id="node22" class="node"><title>\\db_connector\\RequestItineraryLanguage</title>
<polygon fill="none" stroke="black" points="636,-682 457,-682 457,-646 636,-646 636,-682"/>
<text text-anchor="middle" x="546.5" y="-661.2" font-family="Courier,monospace" font-size="11.00">RequestItineraryLanguage</text>
</g>
<!-- \\db_connector\\RequestItineraryLanguage&#45;&gt;\\db_connector\\JsonConnector -->
<g id="edge21" class="edge"><title>\\db_connector\\RequestItineraryLanguage&#45;&gt;\\db_connector\\JsonConnector</title>
<path fill="none" stroke="black" d="M462.408,-645.944C428.287,-638.529 389.498,-630.1 358.062,-623.269"/>
<polygon fill="none" stroke="black" points="358.644,-619.814 348.129,-621.111 357.158,-626.654 358.644,-619.814"/>
</g>
<!-- \\db_connector\\RequestItineraryReview -->
<g id="node23" class="node"><title>\\db_connector\\RequestItineraryReview</title>
<polygon fill="none" stroke="black" points="629,-628 464,-628 464,-592 629,-592 629,-628"/>
<text text-anchor="middle" x="546.5" y="-607.2" font-family="Courier,monospace" font-size="11.00">RequestItineraryReview</text>
</g>
<!-- \\db_connector\\RequestItineraryReview&#45;&gt;\\db_connector\\JsonConnector -->
<g id="edge22" class="edge"><title>\\db_connector\\RequestItineraryReview&#45;&gt;\\db_connector\\JsonConnector</title>
<path fill="none" stroke="black" d="M463.788,-610C429.451,-610 390.185,-610 358.38,-610"/>
<polygon fill="none" stroke="black" points="358.332,-606.5 348.332,-610 358.332,-613.5 358.332,-606.5"/>
</g>
<!-- \\db_connector\\DeleteWishlist -->
<g id="node24" class="node"><title>\\db_connector\\DeleteWishlist</title>
<polygon fill="none" stroke="black" points="869.5,-114 758.5,-114 758.5,-78 869.5,-78 869.5,-114"/>
<text text-anchor="middle" x="814" y="-93.2" font-family="Courier,monospace" font-size="11.00">DeleteWishlist</text>
</g>
<!-- \\db_connector\\DeleteConnector -->
<g id="node29" class="node"><title>\\db_connector\\DeleteConnector</title>
<polygon fill="none" stroke="black" points="605.5,-88 487.5,-88 487.5,-52 605.5,-52 605.5,-88"/>
<text text-anchor="start" x="512.5" y="-73.2" font-family="Courier,monospace" font-size="11.00">«abstract»</text>
<text text-anchor="start" x="495.5" y="-61.2" font-family="Courier,monospace" font-size="11.00">DeleteConnector</text>
</g>
<!-- \\db_connector\\DeleteWishlist&#45;&gt;\\db_connector\\DeleteConnector -->
<g id="edge23" class="edge"><title>\\db_connector\\DeleteWishlist&#45;&gt;\\db_connector\\DeleteConnector</title>
<path fill="none" stroke="black" d="M758.31,-90.6443C717.047,-86.6035 660.178,-81.0343 615.904,-76.6987"/>
<polygon fill="none" stroke="black" points="616.094,-73.2006 605.8,-75.7093 615.412,-80.1673 616.094,-73.2006"/>
</g>
<!-- \\db_connector\\BooleanConnector -->
<g id="node27" class="node"><title>\\db_connector\\BooleanConnector</title>
<polygon fill="none" stroke="black" points="358.5,-196 233.5,-196 233.5,-160 358.5,-160 358.5,-196"/>
<text text-anchor="start" x="262" y="-181.2" font-family="Courier,monospace" font-size="11.00">«abstract»</text>
<text text-anchor="start" x="241.5" y="-169.2" font-family="Courier,monospace" font-size="11.00">BooleanConnector</text>
</g>
<!-- \\db_connector\\UpdateConnector&#45;&gt;\\db_connector\\BooleanConnector -->
<g id="edge24" class="edge"><title>\\db_connector\\UpdateConnector&#45;&gt;\\db_connector\\BooleanConnector</title>
<path fill="none" stroke="black" d="M487.238,-178C451.965,-178 406.696,-178 369.167,-178"/>
<polygon fill="none" stroke="black" points="368.802,-174.5 358.802,-178 368.802,-181.5 368.802,-174.5"/>
</g>
<!-- \\db_connector\\InsertConnector&#45;&gt;\\db_connector\\BooleanConnector -->
<g id="edge25" class="edge"><title>\\db_connector\\InsertConnector&#45;&gt;\\db_connector\\BooleanConnector</title>
<path fill="none" stroke="black" d="M487.238,-136.661C451.814,-144.358 406.309,-154.247 368.687,-162.422"/>
<polygon fill="none" stroke="black" points="367.831,-159.026 358.802,-164.57 369.318,-165.867 367.831,-159.026"/>
</g>
<!-- \\db_connector\\BooleanConnector&#45;&gt;\\db_connector\\DatabaseConnector -->
<g id="edge26" class="edge"><title>\\db_connector\\BooleanConnector&#45;&gt;\\db_connector\\DatabaseConnector</title>
<path fill="none" stroke="black" d="M286.473,-196.013C254.512,-263.53 141.693,-501.856 103.358,-582.837"/>
<polygon fill="none" stroke="black" points="100.178,-581.375 99.0632,-591.911 106.505,-584.37 100.178,-581.375"/>
</g>
<!-- \\db_connector\\RequestItinerary -->
<g id="node28" class="node"><title>\\db_connector\\RequestItinerary</title>
<polygon fill="none" stroke="black" points="609,-574 484,-574 484,-538 609,-538 609,-574"/>
<text text-anchor="middle" x="546.5" y="-553.2" font-family="Courier,monospace" font-size="11.00">RequestItinerary</text>
</g>
<!-- \\db_connector\\RequestItinerary&#45;&gt;\\db_connector\\JsonConnector -->
<g id="edge27" class="edge"><title>\\db_connector\\RequestItinerary&#45;&gt;\\db_connector\\JsonConnector</title>
<path fill="none" stroke="black" d="M483.754,-569.418C445.488,-577.733 396.527,-588.372 358.337,-596.671"/>
<polygon fill="none" stroke="black" points="357.401,-593.293 348.373,-598.837 358.888,-600.133 357.401,-593.293"/>
</g>
<!-- \\db_connector\\DeleteConnector&#45;&gt;\\db_connector\\BooleanConnector -->
<g id="edge28" class="edge"><title>\\db_connector\\DeleteConnector&#45;&gt;\\db_connector\\BooleanConnector</title>
<path fill="none" stroke="black" d="M487.39,-81.2809C470.808,-85.3471 452.927,-90.5609 437,-97 399.062,-112.338 358.95,-136.462 331.433,-154.398"/>
<polygon fill="none" stroke="black" points="329.381,-151.558 322.96,-159.985 333.235,-157.402 329.381,-151.558"/>
</g>
<!-- \\db_connector\\UserDataDownloader -->
<g id="node31" class="node"><title>\\db_connector\\UserDataDownloader</title>
<polygon fill="none" stroke="black" points="365,-682 227,-682 227,-646 365,-646 365,-682"/>
<text text-anchor="middle" x="296" y="-661.2" font-family="Courier,monospace" font-size="11.00">UserDataDownloader</text>
</g>
<!-- \\db_connector\\UserDataDownloader&#45;&gt;\\db_connector\\DatabaseConnector -->
<g id="edge29" class="edge"><title>\\db_connector\\UserDataDownloader&#45;&gt;\\db_connector\\DatabaseConnector</title>
<path fill="none" stroke="black" d="M226.904,-646.019C207.034,-640.772 185.22,-635.012 164.977,-629.666"/>
<polygon fill="none" stroke="black" points="165.743,-626.249 155.181,-627.08 163.956,-633.017 165.743,-626.249"/>
</g>
<!-- \\db_connector\\UserLogin -->
<g id="node32" class="node"><title>\\db_connector\\UserLogin</title>
<polygon fill="none" stroke="black" points="585,-250 508,-250 508,-214 585,-214 585,-250"/>
<text text-anchor="middle" x="546.5" y="-229.2" font-family="Courier,monospace" font-size="11.00">UserLogin</text>
</g>
<!-- \\db_connector\\UserLogin&#45;&gt;\\db_connector\\BooleanConnector -->
<g id="edge30" class="edge"><title>\\db_connector\\UserLogin&#45;&gt;\\db_connector\\BooleanConnector</title>
<path fill="none" stroke="black" d="M507.758,-223.799C470.948,-215.8 414.029,-203.431 368.617,-193.563"/>
<polygon fill="none" stroke="black" points="369.334,-190.137 358.819,-191.433 367.847,-196.977 369.334,-190.137"/>
</g>
<!-- \\db_connector\\RequestRegisteredUser -->
<g id="node33" class="node"><title>\\db_connector\\RequestRegisteredUser</title>
<polygon fill="none" stroke="black" points="625.5,-520 467.5,-520 467.5,-484 625.5,-484 625.5,-520"/>
<text text-anchor="middle" x="546.5" y="-499.2" font-family="Courier,monospace" font-size="11.00">RequestRegisteredUser</text>
</g>
<!-- \\db_connector\\RequestRegisteredUser&#45;&gt;\\db_connector\\JsonConnector -->
<g id="edge31" class="edge"><title>\\db_connector\\RequestRegisteredUser&#45;&gt;\\db_connector\\JsonConnector</title>
<path fill="none" stroke="black" d="M467.308,-518.648C456.97,-521.663 446.628,-525.107 437,-529 399.062,-544.338 358.95,-568.462 331.433,-586.398"/>
<polygon fill="none" stroke="black" points="329.381,-583.558 322.96,-591.985 333.235,-589.402 329.381,-583.558"/>
</g>
<!-- \\db_connector\\RequestReport -->
<g id="node34" class="node"><title>\\db_connector\\RequestReport</title>
<polygon fill="none" stroke="black" points="598.5,-466 494.5,-466 494.5,-430 598.5,-430 598.5,-466"/>
<text text-anchor="middle" x="546.5" y="-445.2" font-family="Courier,monospace" font-size="11.00">RequestReport</text>
</g>
<!-- \\db_connector\\RequestReport&#45;&gt;\\db_connector\\JsonConnector -->
<g id="edge32" class="edge"><title>\\db_connector\\RequestReport&#45;&gt;\\db_connector\\JsonConnector</title>
<path fill="none" stroke="black" d="M494.303,-455.029C475.473,-459.055 454.493,-465.317 437,-475 387.045,-502.652 342,-552.677 317.175,-583.453"/>
<polygon fill="none" stroke="black" points="314.194,-581.579 310.722,-591.588 319.678,-585.929 314.194,-581.579"/>
</g>
<!-- \\db_connector\\InsertItineraryReview -->
<g id="node35" class="node"><title>\\db_connector\\InsertItineraryReview</title>
<polygon fill="none" stroke="black" points="893,-168 735,-168 735,-132 893,-132 893,-168"/>
<text text-anchor="middle" x="814" y="-147.2" font-family="Courier,monospace" font-size="11.00">InsertItineraryReview</text>
</g>
<!-- \\db_connector\\InsertItineraryReview&#45;&gt;\\db_connector\\InsertConnector -->
<g id="edge33" class="edge"><title>\\db_connector\\InsertItineraryReview&#45;&gt;\\db_connector\\InsertConnector</title>
<path fill="none" stroke="black" d="M734.777,-142.34C697.027,-138.643 652.156,-134.249 615.801,-130.689"/>
<polygon fill="none" stroke="black" points="616.079,-127.199 605.786,-129.708 615.397,-134.166 616.079,-127.199"/>
</g>
<!-- \\db_connector\\RequestWishlistJoinItinerary -->
<g id="node36" class="node"><title>\\db_connector\\RequestWishlistJoinItinerary</title>
<polygon fill="none" stroke="black" points="649.5,-412 443.5,-412 443.5,-376 649.5,-376 649.5,-412"/>
<text text-anchor="middle" x="546.5" y="-391.2" font-family="Courier,monospace" font-size="11.00">RequestWishlistJoinItinerary</text>
</g>
<!-- \\db_connector\\RequestWishlistJoinItinerary&#45;&gt;\\db_connector\\JsonConnector -->
<g id="edge34" class="edge"><title>\\db_connector\\RequestWishlistJoinItinerary&#45;&gt;\\db_connector\\JsonConnector</title>
<path fill="none" stroke="black" d="M453.257,-412.042C447.563,-414.637 442.086,-417.605 437,-421 374.901,-462.45 330.091,-541.103 309.551,-582.672"/>
<polygon fill="none" stroke="black" points="306.284,-581.39 305.083,-591.916 312.586,-584.436 306.284,-581.39"/>
</g>
<!-- \\db_connector\\RequestReportJoinReportDetails -->
<g id="node37" class="node"><title>\\db_connector\\RequestReportJoinReportDetails</title>
<polygon fill="none" stroke="black" points="656,-358 437,-358 437,-322 656,-322 656,-358"/>
<text text-anchor="middle" x="546.5" y="-337.2" font-family="Courier,monospace" font-size="11.00">RequestReportJoinReportDetails</text>
</g>
<!-- \\db_connector\\RequestReportJoinReportDetails&#45;&gt;\\db_connector\\JsonConnector -->
<g id="edge35" class="edge"><title>\\db_connector\\RequestReportJoinReportDetails&#45;&gt;\\db_connector\\JsonConnector</title>
<path fill="none" stroke="black" d="M451.464,-358.045C446.364,-360.644 441.495,-363.611 437,-367 362.62,-423.076 321.222,-531.056 305.051,-582.041"/>
<polygon fill="none" stroke="black" points="301.665,-581.144 302.065,-591.731 308.355,-583.205 301.665,-581.144"/>
</g>
<!-- \\db_connector\\RequestReservation -->
<g id="node38" class="node"><title>\\db_connector\\RequestReservation</title>
<polygon fill="none" stroke="black" points="615.5,-304 477.5,-304 477.5,-268 615.5,-268 615.5,-304"/>
<text text-anchor="middle" x="546.5" y="-283.2" font-family="Courier,monospace" font-size="11.00">RequestReservation</text>
</g>
<!-- \\db_connector\\RequestReservation&#45;&gt;\\db_connector\\JsonConnector -->
<g id="edge36" class="edge"><title>\\db_connector\\RequestReservation&#45;&gt;\\db_connector\\JsonConnector</title>
<path fill="none" stroke="black" d="M477.491,-293.236C462.975,-297.299 448.555,-303.519 437,-313 350.085,-384.311 313.996,-522.023 302.006,-581.499"/>
<polygon fill="none" stroke="black" points="298.503,-581.178 300.041,-591.66 305.376,-582.507 298.503,-581.178"/>
</g>
<!-- \\db_connector\\DeleteItinerary -->
<g id="node39" class="node"><title>\\db_connector\\DeleteItinerary</title>
<polygon fill="none" stroke="black" points="873,-60 755,-60 755,-24 873,-24 873,-60"/>
<text text-anchor="middle" x="814" y="-39.2" font-family="Courier,monospace" font-size="11.00">DeleteItinerary</text>
</g>
<!-- \\db_connector\\DeleteItinerary&#45;&gt;\\db_connector\\DeleteConnector -->
<g id="edge37" class="edge"><title>\\db_connector\\DeleteItinerary&#45;&gt;\\db_connector\\DeleteConnector</title>
<path fill="none" stroke="black" d="M754.735,-48.1447C713.753,-52.4667 658.769,-58.2654 615.735,-62.8038"/>
<polygon fill="none" stroke="black" points="615.207,-59.34 605.629,-63.8696 615.941,-66.3014 615.207,-59.34"/>
</g>
<!-- \\db_connector\\UpdateItinerary -->
<g id="node40" class="node"><title>\\db_connector\\UpdateItinerary</title>
<polygon fill="none" stroke="black" points="873,-816 755,-816 755,-780 873,-780 873,-816"/>
<text text-anchor="middle" x="814" y="-795.2" font-family="Courier,monospace" font-size="11.00">UpdateItinerary</text>
</g>
<!-- \\db_connector\\UpdateItinerary&#45;&gt;\\db_connector\\UpdateConnector -->
<g id="edge38" class="edge"><title>\\db_connector\\UpdateItinerary&#45;&gt;\\db_connector\\UpdateConnector</title>
<path fill="none" stroke="black" d="M754.581,-789.137C744.44,-785.117 734.94,-779.325 728,-771 565.633,-576.215 824.485,-394.518 656,-205 645.579,-193.278 630.927,-186.266 615.754,-182.158"/>
<polygon fill="none" stroke="black" points="616.277,-178.687 605.747,-179.858 614.708,-185.509 616.277,-178.687"/>
</g>
</g>
</svg>
