<?xml version="1.0" encoding="UTF-8" standalone="no"?>
<!DOCTYPE svg PUBLIC "-//W3C//DTD SVG 1.1//EN"
 "http://www.w3.org/Graphics/SVG/1.1/DTD/svg11.dtd">
<!-- Generated by graphviz version 2.38.0 (20140413.2041)
 -->
<!-- Title: G Pages: 1 -->
<svg width="932pt" height="1240pt"
 viewBox="0.00 0.00 932.00 1240.00" xmlns="http://www.w3.org/2000/svg" xmlns:xlink="http://www.w3.org/1999/xlink">
<g id="graph0" class="graph" transform="scale(1 1) rotate(0) translate(4 1236)">
<title>G</title>
<polygon fill="white" stroke="none" points="-4,4 -4,-1236 928,-1236 928,4 -4,4"/>
<g id="clust1" class="cluster"><title>cluster_Global</title>
<path fill="none" stroke="gray" d="M20,-8C20,-8 904,-8 904,-8 910,-8 916,-14 916,-20 916,-20 916,-1212 916,-1212 916,-1218 910,-1224 904,-1224 904,-1224 20,-1224 20,-1224 14,-1224 8,-1218 8,-1212 8,-1212 8,-20 8,-20 8,-14 14,-8 20,-8"/>
<text text-anchor="middle" x="462" y="-1211.2" font-family="Times New Roman,serif" font-size="11.00" fill="gray">Global</text>
</g>
<g id="clust2" class="cluster"><title>cluster_\db_connector</title>
<path fill="none" stroke="gray" d="M28,-16C28,-16 896,-16 896,-16 902,-16 908,-22 908,-28 908,-28 908,-1184 908,-1184 908,-1190 902,-1196 896,-1196 896,-1196 28,-1196 28,-1196 22,-1196 16,-1190 16,-1184 16,-1184 16,-28 16,-28 16,-22 22,-16 28,-16"/>
<text text-anchor="middle" x="462" y="-1183.2" font-family="Times New Roman,serif" font-size="11.00" fill="gray">db_connector</text>
</g>
<g id="clust3" class="cluster"><title>cluster_\db_connector\utilities</title>
<path fill="none" stroke="gray" d="M769,-1096C769,-1096 859,-1096 859,-1096 865,-1096 871,-1102 871,-1108 871,-1108 871,-1156 871,-1156 871,-1162 865,-1168 859,-1168 859,-1168 769,-1168 769,-1168 763,-1168 757,-1162 757,-1156 757,-1156 757,-1108 757,-1108 757,-1102 763,-1096 769,-1096"/>
<text text-anchor="middle" x="814" y="-1155.2" font-family="Times New Roman,serif" font-size="11.00" fill="gray">utilities</text>
</g>
<!-- \\db_connector\\utilities\\TableCreator -->
<g id="node1" class="node"><title>\\db_connector\\utilities\\TableCreator</title>
<polygon fill="none" stroke="black" points="863,-1140 765,-1140 765,-1104 863,-1104 863,-1140"/>
<text text-anchor="middle" x="814" y="-1119.2" font-family="Courier,monospace" font-size="11.00">TableCreator</text>
</g>
<!-- \\db_connector\\RequestUserReview -->
<g id="node2" class="node"><title>\\db_connector\\RequestUserReview</title>
<polygon fill="none" stroke="black" points="612,-1168 481,-1168 481,-1132 612,-1132 612,-1168"/>
<text text-anchor="middle" x="546.5" y="-1147.2" font-family="Courier,monospace" font-size="11.00">RequestUserReview</text>
</g>
<!-- \\db_connector\\JsonConnector -->
<g id="node21" class="node"><title>\\db_connector\\JsonConnector</title>
<polygon fill="none" stroke="black" points="348,-790 244,-790 244,-754 348,-754 348,-790"/>
<text text-anchor="start" x="262" y="-775.2" font-family="Courier,monospace" font-size="11.00">«abstract»</text>
<text text-anchor="start" x="252" y="-763.2" font-family="Courier,monospace" font-size="11.00">JsonConnector</text>
</g>
<!-- \\db_connector\\RequestUserReview&#45;&gt;\\db_connector\\JsonConnector -->
<g id="edge1" class="edge"><title>\\db_connector\\RequestUserReview&#45;&gt;\\db_connector\\JsonConnector</title>
<path fill="none" stroke="black" d="M480.925,-1145.91C464.723,-1141.92 448.654,-1134.95 437,-1123 334.017,-1017.39 460.677,-911.276 365,-799 362.549,-796.124 359.749,-793.551 356.715,-791.251"/>
<polygon fill="none" stroke="black" points="358.516,-788.248 348.214,-785.776 354.726,-794.133 358.516,-788.248"/>
</g>
<!-- \\db_connector\\InsertItinerary -->
<g id="node3" class="node"><title>\\db_connector\\InsertItinerary</title>
<polygon fill="none" stroke="black" points="873,-1086 755,-1086 755,-1050 873,-1050 873,-1086"/>
<text text-anchor="middle" x="814" y="-1065.2" font-family="Courier,monospace" font-size="11.00">InsertItinerary</text>
</g>
<!-- \\db_connector\\InsertConnector -->
<g id="node26" class="node"><title>\\db_connector\\InsertConnector</title>
<polygon fill="none" stroke="black" points="605.5,-358 487.5,-358 487.5,-322 605.5,-322 605.5,-358"/>
<text text-anchor="start" x="512.5" y="-343.2" font-family="Courier,monospace" font-size="11.00">«abstract»</text>
<text text-anchor="start" x="495.5" y="-331.2" font-family="Courier,monospace" font-size="11.00">InsertConnector</text>
</g>
<!-- \\db_connector\\InsertItinerary&#45;&gt;\\db_connector\\InsertConnector -->
<g id="edge2" class="edge"><title>\\db_connector\\InsertItinerary&#45;&gt;\\db_connector\\InsertConnector</title>
<path fill="none" stroke="black" d="M754.882,-1059.42C744.588,-1055.38 734.954,-1049.51 728,-1041 537.442,-807.665 853.889,-594.151 656,-367 645.645,-355.114 630.941,-348.052 615.689,-343.949"/>
<polygon fill="none" stroke="black" points="616.155,-340.466 605.628,-341.66 614.602,-347.292 616.155,-340.466"/>
</g>
<!-- \\db_connector\\RequestDocument -->
<g id="node4" class="node"><title>\\db_connector\\RequestDocument</title>
<polygon fill="none" stroke="black" points="605.5,-1114 487.5,-1114 487.5,-1078 605.5,-1078 605.5,-1114"/>
<text text-anchor="middle" x="546.5" y="-1093.2" font-family="Courier,monospace" font-size="11.00">RequestDocument</text>
</g>
<!-- \\db_connector\\RequestDocument&#45;&gt;\\db_connector\\JsonConnector -->
<g id="edge3" class="edge"><title>\\db_connector\\RequestDocument&#45;&gt;\\db_connector\\JsonConnector</title>
<path fill="none" stroke="black" d="M487.464,-1092.97C469.254,-1089.28 450.425,-1082.2 437,-1069 348.451,-981.919 447.516,-891.817 365,-799 362.489,-796.176 359.644,-793.643 356.575,-791.373"/>
<polygon fill="none" stroke="black" points="358.331,-788.342 348.008,-785.955 354.589,-794.258 358.331,-788.342"/>
</g>
<!-- \\db_connector\\InsertReport -->
<g id="node5" class="node"><title>\\db_connector\\InsertReport</title>
<polygon fill="none" stroke="black" points="863,-1032 765,-1032 765,-996 863,-996 863,-1032"/>
<text text-anchor="middle" x="814" y="-1011.2" font-family="Courier,monospace" font-size="11.00">InsertReport</text>
</g>
<!-- \\db_connector\\InsertReport&#45;&gt;\\db_connector\\InsertConnector -->
<g id="edge4" class="edge"><title>\\db_connector\\InsertReport&#45;&gt;\\db_connector\\InsertConnector</title>
<path fill="none" stroke="black" d="M764.643,-1008.61C750.882,-1004.71 737.159,-998.111 728,-987 551.544,-772.948 839.18,-575.326 656,-367 645.591,-355.162 630.867,-348.117 615.613,-344.016"/>
<polygon fill="none" stroke="black" points="616.08,-340.533 605.553,-341.726 614.526,-347.358 616.08,-340.533"/>
</g>
<!-- \\db_connector\\UpdateRegisteredUser -->
<g id="node6" class="node"><title>\\db_connector\\UpdateRegisteredUser</title>
<polygon fill="none" stroke="black" points="890,-438 738,-438 738,-402 890,-402 890,-438"/>
<text text-anchor="middle" x="814" y="-417.2" font-family="Courier,monospace" font-size="11.00">UpdateRegisteredUser</text>
</g>
<!-- \\db_connector\\UpdateConnector -->
<g id="node25" class="node"><title>\\db_connector\\UpdateConnector</title>
<polygon fill="none" stroke="black" points="605.5,-304 487.5,-304 487.5,-268 605.5,-268 605.5,-304"/>
<text text-anchor="start" x="512.5" y="-289.2" font-family="Courier,monospace" font-size="11.00">«abstract»</text>
<text text-anchor="start" x="495.5" y="-277.2" font-family="Courier,monospace" font-size="11.00">UpdateConnector</text>
</g>
<!-- \\db_connector\\UpdateRegisteredUser&#45;&gt;\\db_connector\\UpdateConnector -->
<g id="edge5" class="edge"><title>\\db_connector\\UpdateRegisteredUser&#45;&gt;\\db_connector\\UpdateConnector</title>
<path fill="none" stroke="black" d="M744.694,-401.94C738.859,-399.323 733.205,-396.357 728,-393 687.799,-367.075 697.006,-337.632 656,-313 643.815,-305.681 629.724,-300.339 615.813,-296.443"/>
<polygon fill="none" stroke="black" points="616.303,-292.955 605.746,-293.854 614.559,-299.735 616.303,-292.955"/>
</g>
<!-- \\db_connector\\RequestReportDetails -->
<g id="node7" class="node"><title>\\db_connector\\RequestReportDetails</title>
<polygon fill="none" stroke="black" points="622.5,-1060 470.5,-1060 470.5,-1024 622.5,-1024 622.5,-1060"/>
<text text-anchor="middle" x="546.5" y="-1039.2" font-family="Courier,monospace" font-size="11.00">RequestReportDetails</text>
</g>
<!-- \\db_connector\\RequestReportDetails&#45;&gt;\\db_connector\\JsonConnector -->
<g id="edge6" class="edge"><title>\\db_connector\\RequestReportDetails&#45;&gt;\\db_connector\\JsonConnector</title>
<path fill="none" stroke="black" d="M470.458,-1033.83C458.172,-1029.71 446.405,-1023.7 437,-1015 362.715,-946.285 434.515,-872.537 365,-799 362.525,-796.382 359.765,-794.013 356.811,-791.87"/>
<polygon fill="none" stroke="black" points="358.394,-788.732 348.057,-786.408 354.688,-794.67 358.394,-788.732"/>
</g>
<!-- \\db_connector\\InsertWishlist -->
<g id="node8" class="node"><title>\\db_connector\\InsertWishlist</title>
<polygon fill="none" stroke="black" points="869.5,-978 758.5,-978 758.5,-942 869.5,-942 869.5,-978"/>
<text text-anchor="middle" x="814" y="-957.2" font-family="Courier,monospace" font-size="11.00">InsertWishlist</text>
</g>
<!-- \\db_connector\\InsertWishlist&#45;&gt;\\db_connector\\InsertConnector -->
<g id="edge7" class="edge"><title>\\db_connector\\InsertWishlist&#45;&gt;\\db_connector\\InsertConnector</title>
<path fill="none" stroke="black" d="M758.08,-952.447C746.645,-948.407 735.733,-942.277 728,-933 565.633,-738.215 824.485,-556.518 656,-367 645.579,-355.278 630.927,-348.266 615.754,-344.158"/>
<polygon fill="none" stroke="black" points="616.277,-340.687 605.747,-341.858 614.708,-347.509 616.277,-340.687"/>
</g>
<!-- \\db_connector\\RequestLanguage -->
<g id="node9" class="node"><title>\\db_connector\\RequestLanguage</title>
<polygon fill="none" stroke="black" points="605.5,-1006 487.5,-1006 487.5,-970 605.5,-970 605.5,-1006"/>
<text text-anchor="middle" x="546.5" y="-985.2" font-family="Courier,monospace" font-size="11.00">RequestLanguage</text>
</g>
<!-- \\db_connector\\RequestLanguage&#45;&gt;\\db_connector\\JsonConnector -->
<g id="edge8" class="edge"><title>\\db_connector\\RequestLanguage&#45;&gt;\\db_connector\\JsonConnector</title>
<path fill="none" stroke="black" d="M487.496,-983.462C469.708,-979.629 451.125,-972.855 437,-961 376.648,-910.348 421.824,-853.581 365,-799 362.572,-796.668 359.919,-794.53 357.112,-792.57"/>
<polygon fill="none" stroke="black" points="358.666,-789.419 348.304,-787.21 355.027,-795.399 358.666,-789.419"/>
</g>
<!-- \\db_connector\\InsertUserReview -->
<g id="node10" class="node"><title>\\db_connector\\InsertUserReview</title>
<polygon fill="none" stroke="black" points="876.5,-924 751.5,-924 751.5,-888 876.5,-888 876.5,-924"/>
<text text-anchor="middle" x="814" y="-903.2" font-family="Courier,monospace" font-size="11.00">InsertUserReview</text>
</g>
<!-- \\db_connector\\InsertUserReview&#45;&gt;\\db_connector\\InsertConnector -->
<g id="edge9" class="edge"><title>\\db_connector\\InsertUserReview&#45;&gt;\\db_connector\\InsertConnector</title>
<path fill="none" stroke="black" d="M751.215,-895.618C742.375,-891.698 734.195,-886.333 728,-879 579.704,-703.461 809.808,-537.73 656,-367 645.502,-355.347 630.822,-348.36 615.646,-344.255"/>
<polygon fill="none" stroke="black" points="616.17,-340.784 605.64,-341.953 614.601,-347.606 616.17,-340.784"/>
</g>
<!-- \\db_connector\\UpdateDocument -->
<g id="node11" class="node"><title>\\db_connector\\UpdateDocument</title>
<polygon fill="none" stroke="black" points="869.5,-384 758.5,-384 758.5,-348 869.5,-348 869.5,-384"/>
<text text-anchor="middle" x="814" y="-363.2" font-family="Courier,monospace" font-size="11.00">UpdateDocument</text>
</g>
<!-- \\db_connector\\UpdateDocument&#45;&gt;\\db_connector\\UpdateConnector -->
<g id="edge10" class="edge"><title>\\db_connector\\UpdateDocument&#45;&gt;\\db_connector\\UpdateConnector</title>
<path fill="none" stroke="black" d="M758.483,-349.03C748.328,-345.77 737.824,-342.333 728,-339 695.781,-328.07 688.551,-322.899 656,-313 642.924,-309.023 628.833,-305.192 615.274,-301.726"/>
<polygon fill="none" stroke="black" points="616.07,-298.317 605.518,-299.271 614.361,-305.106 616.07,-298.317"/>
</g>
<!-- \\db_connector\\InsertLanguage -->
<g id="node12" class="node"><title>\\db_connector\\InsertLanguage</title>
<polygon fill="none" stroke="black" points="869.5,-870 758.5,-870 758.5,-834 869.5,-834 869.5,-870"/>
<text text-anchor="middle" x="814" y="-849.2" font-family="Courier,monospace" font-size="11.00">InsertLanguage</text>
</g>
<!-- \\db_connector\\InsertLanguage&#45;&gt;\\db_connector\\InsertConnector -->
<g id="edge11" class="edge"><title>\\db_connector\\InsertLanguage&#45;&gt;\\db_connector\\InsertConnector</title>
<path fill="none" stroke="black" d="M758.276,-844.281C746.833,-840.248 735.868,-834.162 728,-825 593.752,-668.679 795.156,-518.969 656,-367 645.408,-355.432 630.693,-348.477 615.513,-344.375"/>
<polygon fill="none" stroke="black" points="616.04,-340.905 605.51,-342.072 614.469,-347.726 616.04,-340.905"/>
</g>
<!-- \\db_connector\\RequestUserLanguage -->
<g id="node13" class="node"><title>\\db_connector\\RequestUserLanguage</title>
<polygon fill="none" stroke="black" points="619,-952 474,-952 474,-916 619,-916 619,-952"/>
<text text-anchor="middle" x="546.5" y="-931.2" font-family="Courier,monospace" font-size="11.00">RequestUserLanguage</text>
</g>
<!-- \\db_connector\\RequestUserLanguage&#45;&gt;\\db_connector\\JsonConnector -->
<g id="edge12" class="edge"><title>\\db_connector\\RequestUserLanguage&#45;&gt;\\db_connector\\JsonConnector</title>
<path fill="none" stroke="black" d="M473.93,-924.168C460.883,-920.225 447.952,-914.71 437,-907 389.826,-873.794 409.843,-835.291 365,-799 362.561,-797.026 359.959,-795.182 357.249,-793.46"/>
<polygon fill="none" stroke="black" points="358.716,-790.268 348.292,-788.372 355.258,-796.355 358.716,-790.268"/>
</g>
<!-- \\db_connector\\InsertUserLanguage -->
<g id="node14" class="node"><title>\\db_connector\\InsertUserLanguage</title>
<polygon fill="none" stroke="black" points="883,-816 745,-816 745,-780 883,-780 883,-816"/>
<text text-anchor="middle" x="814" y="-795.2" font-family="Courier,monospace" font-size="11.00">InsertUserLanguage</text>
</g>
<!-- \\db_connector\\InsertUserLanguage&#45;&gt;\\db_connector\\InsertConnector -->
<g id="edge13" class="edge"><title>\\db_connector\\InsertUserLanguage&#45;&gt;\\db_connector\\InsertConnector</title>
<path fill="none" stroke="black" d="M744.726,-784.114C738.448,-780.658 732.695,-776.356 728,-771 607.766,-633.858 780.538,-500.246 656,-367 645.344,-355.6 630.682,-348.697 615.579,-344.591"/>
<polygon fill="none" stroke="black" points="616.162,-341.133 605.629,-342.277 614.577,-347.951 616.162,-341.133"/>
</g>
<!-- \\db_connector\\InsertReportDetails -->
<g id="node15" class="node"><title>\\db_connector\\InsertReportDetails</title>
<polygon fill="none" stroke="black" points="886.5,-762 741.5,-762 741.5,-726 886.5,-726 886.5,-762"/>
<text text-anchor="middle" x="814" y="-741.2" font-family="Courier,monospace" font-size="11.00">InsertReportDetails</text>
</g>
<!-- \\db_connector\\InsertReportDetails&#45;&gt;\\db_connector\\InsertConnector -->
<g id="edge14" class="edge"><title>\\db_connector\\InsertReportDetails&#45;&gt;\\db_connector\\InsertConnector</title>
<path fill="none" stroke="black" d="M741.23,-727.876C736.334,-724.848 731.833,-721.257 728,-717 621.731,-598.981 765.972,-481.577 656,-367 645.249,-355.799 630.626,-348.962 615.598,-344.855"/>
<polygon fill="none" stroke="black" points="616.237,-341.409 605.702,-342.531 614.637,-348.224 616.237,-341.409"/>
</g>
<!-- \\db_connector\\InsertItineraryLanguage -->
<g id="node16" class="node"><title>\\db_connector\\InsertItineraryLanguage</title>
<polygon fill="none" stroke="black" points="900,-708 728,-708 728,-672 900,-672 900,-708"/>
<text text-anchor="middle" x="814" y="-687.2" font-family="Courier,monospace" font-size="11.00">InsertItineraryLanguage</text>
</g>
<!-- \\db_connector\\InsertItineraryLanguage&#45;&gt;\\db_connector\\InsertConnector -->
<g id="edge15" class="edge"><title>\\db_connector\\InsertItineraryLanguage&#45;&gt;\\db_connector\\InsertConnector</title>
<path fill="none" stroke="black" d="M738.639,-671.965C734.763,-669.367 731.169,-666.396 728,-663 635.621,-564.02 751.483,-462.989 656,-367 645.107,-356.049 630.504,-349.298 615.548,-345.193"/>
<polygon fill="none" stroke="black" points="616.243,-341.76 605.705,-342.86 614.629,-348.572 616.243,-341.76"/>
</g>
<!-- \\db_connector\\RequestWishlist -->
<g id="node17" class="node"><title>\\db_connector\\RequestWishlist</title>
<polygon fill="none" stroke="black" points="605.5,-898 487.5,-898 487.5,-862 605.5,-862 605.5,-898"/>
<text text-anchor="middle" x="546.5" y="-877.2" font-family="Courier,monospace" font-size="11.00">RequestWishlist</text>
</g>
<!-- \\db_connector\\RequestWishlist&#45;&gt;\\db_connector\\JsonConnector -->
<g id="edge16" class="edge"><title>\\db_connector\\RequestWishlist&#45;&gt;\\db_connector\\JsonConnector</title>
<path fill="none" stroke="black" d="M487.424,-870.057C470.672,-866.001 452.691,-860.458 437,-853 400.873,-835.829 399.895,-818.553 365,-799 362.174,-797.417 359.237,-795.881 356.238,-794.399"/>
<polygon fill="none" stroke="black" points="357.647,-791.194 347.107,-790.12 354.677,-797.533 357.647,-791.194"/>
</g>
<!-- \\db_connector\\InsertRegisteredUser -->
<g id="node18" class="node"><title>\\db_connector\\InsertRegisteredUser</title>
<polygon fill="none" stroke="black" points="890,-654 738,-654 738,-618 890,-618 890,-654"/>
<text text-anchor="middle" x="814" y="-633.2" font-family="Courier,monospace" font-size="11.00">InsertRegisteredUser</text>
</g>
<!-- \\db_connector\\InsertRegisteredUser&#45;&gt;\\db_connector\\InsertConnector -->
<g id="edge17" class="edge"><title>\\db_connector\\InsertRegisteredUser&#45;&gt;\\db_connector\\InsertConnector</title>
<path fill="none" stroke="black" d="M738.837,-617.775C734.913,-615.223 731.254,-612.315 728,-609 649.385,-528.926 737.124,-444.531 656,-367 644.891,-356.383 630.278,-349.751 615.39,-345.654"/>
<polygon fill="none" stroke="black" points="616.141,-342.235 605.601,-343.311 614.512,-349.042 616.141,-342.235"/>
</g>
<!-- \\db_connector\\InsertReservation -->
<g id="node19" class="node"><title>\\db_connector\\InsertReservation</title>
<polygon fill="none" stroke="black" points="879.5,-600 748.5,-600 748.5,-564 879.5,-564 879.5,-600"/>
<text text-anchor="middle" x="814" y="-579.2" font-family="Courier,monospace" font-size="11.00">InsertReservation</text>
</g>
<!-- \\db_connector\\InsertReservation&#45;&gt;\\db_connector\\InsertConnector -->
<g id="edge18" class="edge"><title>\\db_connector\\InsertReservation&#45;&gt;\\db_connector\\InsertConnector</title>
<path fill="none" stroke="black" d="M748.253,-568.415C740.841,-564.92 733.856,-560.525 728,-555 662.919,-493.6 723.002,-426.298 656,-367 644.721,-357.018 630.311,-350.606 615.705,-346.518"/>
<polygon fill="none" stroke="black" points="616.143,-343.022 605.598,-344.044 614.479,-349.821 616.143,-343.022"/>
</g>
<!-- \\db_connector\\InsertDocument -->
<g id="node20" class="node"><title>\\db_connector\\InsertDocument</title>
<polygon fill="none" stroke="black" points="869.5,-546 758.5,-546 758.5,-510 869.5,-510 869.5,-546"/>
<text text-anchor="middle" x="814" y="-525.2" font-family="Courier,monospace" font-size="11.00">InsertDocument</text>
</g>
<!-- \\db_connector\\InsertDocument&#45;&gt;\\db_connector\\InsertConnector -->
<g id="edge19" class="edge"><title>\\db_connector\\InsertDocument&#45;&gt;\\db_connector\\InsertConnector</title>
<path fill="none" stroke="black" d="M758.128,-517.399C747.347,-513.515 736.698,-508.218 728,-501 675.972,-457.827 709.376,-408.495 656,-367 644.296,-357.901 629.918,-351.828 615.503,-347.785"/>
<polygon fill="none" stroke="black" points="616.101,-344.327 605.551,-345.298 614.404,-351.118 616.101,-344.327"/>
</g>
<!-- \\db_connector\\DatabaseConnector -->
<g id="node30" class="node"><title>\\db_connector\\DatabaseConnector</title>
<polygon fill="none" stroke="black" points="155,-790 24,-790 24,-754 155,-754 155,-790"/>
<text text-anchor="start" x="55.5" y="-775.2" font-family="Courier,monospace" font-size="11.00">«abstract»</text>
<text text-anchor="start" x="32" y="-763.2" font-family="Courier,monospace" font-size="11.00">DatabaseConnector</text>
</g>
<!-- \\db_connector\\JsonConnector&#45;&gt;\\db_connector\\DatabaseConnector -->
<g id="edge20" class="edge"><title>\\db_connector\\JsonConnector&#45;&gt;\\db_connector\\DatabaseConnector</title>
<path fill="none" stroke="black" d="M243.924,-772C220.216,-772 191.563,-772 165.467,-772"/>
<polygon fill="none" stroke="black" points="165.228,-768.5 155.228,-772 165.228,-775.5 165.228,-768.5"/>
</g>
<!-- \\db_connector\\RequestItineraryLanguage -->
<g id="node22" class="node"><title>\\db_connector\\RequestItineraryLanguage</title>
<polygon fill="none" stroke="black" points="636,-844 457,-844 457,-808 636,-808 636,-844"/>
<text text-anchor="middle" x="546.5" y="-823.2" font-family="Courier,monospace" font-size="11.00">RequestItineraryLanguage</text>
</g>
<!-- \\db_connector\\RequestItineraryLanguage&#45;&gt;\\db_connector\\JsonConnector -->
<g id="edge21" class="edge"><title>\\db_connector\\RequestItineraryLanguage&#45;&gt;\\db_connector\\JsonConnector</title>
<path fill="none" stroke="black" d="M462.408,-807.944C428.287,-800.529 389.498,-792.1 358.062,-785.269"/>
<polygon fill="none" stroke="black" points="358.644,-781.814 348.129,-783.111 357.158,-788.654 358.644,-781.814"/>
</g>
<!-- \\db_connector\\RequestItineraryReview -->
<g id="node23" class="node"><title>\\db_connector\\RequestItineraryReview</title>
<polygon fill="none" stroke="black" points="629,-790 464,-790 464,-754 629,-754 629,-790"/>
<text text-anchor="middle" x="546.5" y="-769.2" font-family="Courier,monospace" font-size="11.00">RequestItineraryReview</text>
</g>
<!-- \\db_connector\\RequestItineraryReview&#45;&gt;\\db_connector\\JsonConnector -->
<g id="edge22" class="edge"><title>\\db_connector\\RequestItineraryReview&#45;&gt;\\db_connector\\JsonConnector</title>
<path fill="none" stroke="black" d="M463.788,-772C429.451,-772 390.185,-772 358.38,-772"/>
<polygon fill="none" stroke="black" points="358.332,-768.5 348.332,-772 358.332,-775.5 358.332,-768.5"/>
</g>
<!-- \\db_connector\\DeleteWishlist -->
<g id="node24" class="node"><title>\\db_connector\\DeleteWishlist</title>
<polygon fill="none" stroke="black" points="869.5,-222 758.5,-222 758.5,-186 869.5,-186 869.5,-222"/>
<text text-anchor="middle" x="814" y="-201.2" font-family="Courier,monospace" font-size="11.00">DeleteWishlist</text>
</g>
<!-- \\db_connector\\DeleteConnector -->
<g id="node29" class="node"><title>\\db_connector\\DeleteConnector</title>
<polygon fill="none" stroke="black" points="605.5,-168 487.5,-168 487.5,-132 605.5,-132 605.5,-168"/>
<text text-anchor="start" x="512.5" y="-153.2" font-family="Courier,monospace" font-size="11.00">«abstract»</text>
<text text-anchor="start" x="495.5" y="-141.2" font-family="Courier,monospace" font-size="11.00">DeleteConnector</text>
</g>
<!-- \\db_connector\\DeleteWishlist&#45;&gt;\\db_connector\\DeleteConnector -->
<g id="edge23" class="edge"><title>\\db_connector\\DeleteWishlist&#45;&gt;\\db_connector\\DeleteConnector</title>
<path fill="none" stroke="black" d="M758.31,-192.877C716.96,-184.466 659.938,-172.869 615.624,-163.856"/>
<polygon fill="none" stroke="black" points="616.297,-160.421 605.8,-161.858 614.902,-167.281 616.297,-160.421"/>
</g>
<!-- \\db_connector\\BooleanConnector -->
<g id="node27" class="node"><title>\\db_connector\\BooleanConnector</title>
<polygon fill="none" stroke="black" points="358.5,-358 233.5,-358 233.5,-322 358.5,-322 358.5,-358"/>
<text text-anchor="start" x="262" y="-343.2" font-family="Courier,monospace" font-size="11.00">«abstract»</text>
<text text-anchor="start" x="241.5" y="-331.2" font-family="Courier,monospace" font-size="11.00">BooleanConnector</text>
</g>
<!-- \\db_connector\\UpdateConnector&#45;&gt;\\db_connector\\BooleanConnector -->
<g id="edge24" class="edge"><title>\\db_connector\\UpdateConnector&#45;&gt;\\db_connector\\BooleanConnector</title>
<path fill="none" stroke="black" d="M487.238,-298.661C451.814,-306.358 406.309,-316.247 368.687,-324.422"/>
<polygon fill="none" stroke="black" points="367.831,-321.026 358.802,-326.57 369.318,-327.867 367.831,-321.026"/>
</g>
<!-- \\db_connector\\InsertConnector&#45;&gt;\\db_connector\\BooleanConnector -->
<g id="edge25" class="edge"><title>\\db_connector\\InsertConnector&#45;&gt;\\db_connector\\BooleanConnector</title>
<path fill="none" stroke="black" d="M487.238,-340C451.965,-340 406.696,-340 369.167,-340"/>
<polygon fill="none" stroke="black" points="368.802,-336.5 358.802,-340 368.802,-343.5 368.802,-336.5"/>
</g>
<!-- \\db_connector\\BooleanConnector&#45;&gt;\\db_connector\\DatabaseConnector -->
<g id="edge26" class="edge"><title>\\db_connector\\BooleanConnector&#45;&gt;\\db_connector\\DatabaseConnector</title>
<path fill="none" stroke="black" d="M286.473,-358.013C254.512,-425.53 141.693,-663.856 103.358,-744.837"/>
<polygon fill="none" stroke="black" points="100.178,-743.375 99.0632,-753.911 106.505,-746.37 100.178,-743.375"/>
</g>
<!-- \\db_connector\\RequestItinerary -->
<g id="node28" class="node"><title>\\db_connector\\RequestItinerary</title>
<polygon fill="none" stroke="black" points="609,-736 484,-736 484,-700 609,-700 609,-736"/>
<text text-anchor="middle" x="546.5" y="-715.2" font-family="Courier,monospace" font-size="11.00">RequestItinerary</text>
</g>
<!-- \\db_connector\\RequestItinerary&#45;&gt;\\db_connector\\JsonConnector -->
<g id="edge27" class="edge"><title>\\db_connector\\RequestItinerary&#45;&gt;\\db_connector\\JsonConnector</title>
<path fill="none" stroke="black" d="M483.754,-731.418C445.488,-739.733 396.527,-750.372 358.337,-758.671"/>
<polygon fill="none" stroke="black" points="357.401,-755.293 348.373,-760.837 358.888,-762.133 357.401,-755.293"/>
</g>
<!-- \\db_connector\\DeleteConnector&#45;&gt;\\db_connector\\BooleanConnector -->
<g id="edge28" class="edge"><title>\\db_connector\\DeleteConnector&#45;&gt;\\db_connector\\BooleanConnector</title>
<path fill="none" stroke="black" d="M521.673,-168.218C476.679,-202.62 379.209,-277.144 328.731,-315.739"/>
<polygon fill="none" stroke="black" points="326.573,-312.983 320.755,-321.837 330.825,-318.544 326.573,-312.983"/>
</g>
<!-- \\db_connector\\UserDataDownloader -->
<g id="node31" class="node"><title>\\db_connector\\UserDataDownloader</title>
<polygon fill="none" stroke="black" points="365,-844 227,-844 227,-808 365,-808 365,-844"/>
<text text-anchor="middle" x="296" y="-823.2" font-family="Courier,monospace" font-size="11.00">UserDataDownloader</text>
</g>
<!-- \\db_connector\\UserDataDownloader&#45;&gt;\\db_connector\\DatabaseConnector -->
<g id="edge29" class="edge"><title>\\db_connector\\UserDataDownloader&#45;&gt;\\db_connector\\DatabaseConnector</title>
<path fill="none" stroke="black" d="M226.904,-808.019C207.034,-802.772 185.22,-797.012 164.977,-791.666"/>
<polygon fill="none" stroke="black" points="165.743,-788.249 155.181,-789.08 163.956,-795.017 165.743,-788.249"/>
</g>
<!-- \\db_connector\\UserLogin -->
<g id="node32" class="node"><title>\\db_connector\\UserLogin</title>
<polygon fill="none" stroke="black" points="585,-412 508,-412 508,-376 585,-376 585,-412"/>
<text text-anchor="middle" x="546.5" y="-391.2" font-family="Courier,monospace" font-size="11.00">UserLogin</text>
</g>
<!-- \\db_connector\\UserLogin&#45;&gt;\\db_connector\\BooleanConnector -->
<g id="edge30" class="edge"><title>\\db_connector\\UserLogin&#45;&gt;\\db_connector\\BooleanConnector</title>
<path fill="none" stroke="black" d="M507.758,-385.799C470.948,-377.8 414.029,-365.431 368.617,-355.563"/>
<polygon fill="none" stroke="black" points="369.334,-352.137 358.819,-353.433 367.847,-358.977 369.334,-352.137"/>
</g>
<!-- \\db_connector\\RequestRegisteredUser -->
<g id="node33" class="node"><title>\\db_connector\\RequestRegisteredUser</title>
<polygon fill="none" stroke="black" points="625.5,-682 467.5,-682 467.5,-646 625.5,-646 625.5,-682"/>
<text text-anchor="middle" x="546.5" y="-661.2" font-family="Courier,monospace" font-size="11.00">RequestRegisteredUser</text>
</g>
<!-- \\db_connector\\RequestRegisteredUser&#45;&gt;\\db_connector\\JsonConnector -->
<g id="edge31" class="edge"><title>\\db_connector\\RequestRegisteredUser&#45;&gt;\\db_connector\\JsonConnector</title>
<path fill="none" stroke="black" d="M467.308,-680.648C456.97,-683.663 446.628,-687.107 437,-691 399.062,-706.338 358.95,-730.462 331.433,-748.398"/>
<polygon fill="none" stroke="black" points="329.381,-745.558 322.96,-753.985 333.235,-751.402 329.381,-745.558"/>
</g>
<!-- \\db_connector\\RequestReport -->
<g id="node34" class="node"><title>\\db_connector\\RequestReport</title>
<polygon fill="none" stroke="black" points="598.5,-628 494.5,-628 494.5,-592 598.5,-592 598.5,-628"/>
<text text-anchor="middle" x="546.5" y="-607.2" font-family="Courier,monospace" font-size="11.00">RequestReport</text>
</g>
<!-- \\db_connector\\RequestReport&#45;&gt;\\db_connector\\JsonConnector -->
<g id="edge32" class="edge"><title>\\db_connector\\RequestReport&#45;&gt;\\db_connector\\JsonConnector</title>
<path fill="none" stroke="black" d="M494.303,-617.029C475.473,-621.055 454.493,-627.317 437,-637 387.045,-664.652 342,-714.677 317.175,-745.453"/>
<polygon fill="none" stroke="black" points="314.194,-743.579 310.722,-753.588 319.678,-747.929 314.194,-743.579"/>
</g>
<!-- \\db_connector\\InsertItineraryReview -->
<g id="node35" class="node"><title>\\db_connector\\InsertItineraryReview</title>
<polygon fill="none" stroke="black" points="893,-492 735,-492 735,-456 893,-456 893,-492"/>
<text text-anchor="middle" x="814" y="-471.2" font-family="Courier,monospace" font-size="11.00">InsertItineraryReview</text>
</g>
<!-- \\db_connector\\InsertItineraryReview&#45;&gt;\\db_connector\\InsertConnector -->
<g id="edge33" class="edge"><title>\\db_connector\\InsertItineraryReview&#45;&gt;\\db_connector\\InsertConnector</title>
<path fill="none" stroke="black" d="M744.694,-455.94C738.859,-453.323 733.205,-450.357 728,-447 687.799,-421.075 697.006,-391.632 656,-367 643.815,-359.681 629.724,-354.339 615.813,-350.443"/>
<polygon fill="none" stroke="black" points="616.303,-346.955 605.746,-347.854 614.559,-353.735 616.303,-346.955"/>
</g>
<!-- \\db_connector\\RequestWishlistJoinItinerary -->
<g id="node36" class="node"><title>\\db_connector\\RequestWishlistJoinItinerary</title>
<polygon fill="none" stroke="black" points="649.5,-574 443.5,-574 443.5,-538 649.5,-538 649.5,-574"/>
<text text-anchor="middle" x="546.5" y="-553.2" font-family="Courier,monospace" font-size="11.00">RequestWishlistJoinItinerary</text>
</g>
<!-- \\db_connector\\RequestWishlistJoinItinerary&#45;&gt;\\db_connector\\JsonConnector -->
<g id="edge34" class="edge"><title>\\db_connector\\RequestWishlistJoinItinerary&#45;&gt;\\db_connector\\JsonConnector</title>
<path fill="none" stroke="black" d="M453.257,-574.042C447.563,-576.637 442.086,-579.605 437,-583 374.901,-624.45 330.091,-703.103 309.551,-744.672"/>
<polygon fill="none" stroke="black" points="306.284,-743.39 305.083,-753.916 312.586,-746.436 306.284,-743.39"/>
</g>
<!-- \\db_connector\\RequestReportJoinReportDetails -->
<g id="node37" class="node"><title>\\db_connector\\RequestReportJoinReportDetails</title>
<polygon fill="none" stroke="black" points="656,-520 437,-520 437,-484 656,-484 656,-520"/>
<text text-anchor="middle" x="546.5" y="-499.2" font-family="Courier,monospace" font-size="11.00">RequestReportJoinReportDetails</text>
</g>
<!-- \\db_connector\\RequestReportJoinReportDetails&#45;&gt;\\db_connector\\JsonConnector -->
<g id="edge35" class="edge"><title>\\db_connector\\RequestReportJoinReportDetails&#45;&gt;\\db_connector\\JsonConnector</title>
<path fill="none" stroke="black" d="M451.464,-520.045C446.364,-522.644 441.495,-525.611 437,-529 362.62,-585.076 321.222,-693.056 305.051,-744.041"/>
<polygon fill="none" stroke="black" points="301.665,-743.144 302.065,-753.731 308.355,-745.205 301.665,-743.144"/>
</g>
<!-- \\db_connector\\RequestReservation -->
<g id="node38" class="node"><title>\\db_connector\\RequestReservation</title>
<polygon fill="none" stroke="black" points="615.5,-466 477.5,-466 477.5,-430 615.5,-430 615.5,-466"/>
<text text-anchor="middle" x="546.5" y="-445.2" font-family="Courier,monospace" font-size="11.00">RequestReservation</text>
</g>
<!-- \\db_connector\\RequestReservation&#45;&gt;\\db_connector\\JsonConnector -->
<g id="edge36" class="edge"><title>\\db_connector\\RequestReservation&#45;&gt;\\db_connector\\JsonConnector</title>
<path fill="none" stroke="black" d="M477.491,-455.236C462.975,-459.299 448.555,-465.519 437,-475 350.085,-546.311 313.996,-684.023 302.006,-743.499"/>
<polygon fill="none" stroke="black" points="298.503,-743.178 300.041,-753.66 305.376,-744.507 298.503,-743.178"/>
</g>
<!-- \\db_connector\\DeleteItinerary -->
<g id="node39" class="node"><title>\\db_connector\\DeleteItinerary</title>
<polygon fill="none" stroke="black" points="873,-168 755,-168 755,-132 873,-132 873,-168"/>
<text text-anchor="middle" x="814" y="-147.2" font-family="Courier,monospace" font-size="11.00">DeleteItinerary</text>
</g>
<!-- \\db_connector\\DeleteItinerary&#45;&gt;\\db_connector\\DeleteConnector -->
<g id="edge37" class="edge"><title>\\db_connector\\DeleteItinerary&#45;&gt;\\db_connector\\DeleteConnector</title>
<path fill="none" stroke="black" d="M754.735,-150C713.753,-150 658.769,-150 615.735,-150"/>
<polygon fill="none" stroke="black" points="615.629,-146.5 605.629,-150 615.629,-153.5 615.629,-146.5"/>
</g>
<!-- \\db_connector\\UpdateItinerary -->
<g id="node40" class="node"><title>\\db_connector\\UpdateItinerary</title>
<polygon fill="none" stroke="black" points="873,-330 755,-330 755,-294 873,-294 873,-330"/>
<text text-anchor="middle" x="814" y="-309.2" font-family="Courier,monospace" font-size="11.00">UpdateItinerary</text>
</g>
<!-- \\db_connector\\UpdateItinerary&#45;&gt;\\db_connector\\UpdateConnector -->
<g id="edge38" class="edge"><title>\\db_connector\\UpdateItinerary&#45;&gt;\\db_connector\\UpdateConnector</title>
<path fill="none" stroke="black" d="M754.735,-306.294C713.753,-302.281 658.769,-296.896 615.735,-292.682"/>
<polygon fill="none" stroke="black" points="615.923,-289.184 605.629,-291.693 615.24,-296.151 615.923,-289.184"/>
</g>
<!-- \\db_connector\\ClearWishlist -->
<g id="node41" class="node"><title>\\db_connector\\ClearWishlist</title>
<polygon fill="none" stroke="black" points="866,-114 762,-114 762,-78 866,-78 866,-114"/>
<text text-anchor="middle" x="814" y="-93.2" font-family="Courier,monospace" font-size="11.00">ClearWishlist</text>
</g>
<!-- \\db_connector\\ClearWishlist&#45;&gt;\\db_connector\\DeleteConnector -->
<g id="edge39" class="edge"><title>\\db_connector\\ClearWishlist&#45;&gt;\\db_connector\\DeleteConnector</title>
<path fill="none" stroke="black" d="M761.809,-106.412C720.255,-114.863 661.293,-126.856 615.73,-136.123"/>
<polygon fill="none" stroke="black" points="615.031,-132.693 605.929,-138.116 616.426,-139.553 615.031,-132.693"/>
</g>
<!-- \\db_connector\\DeleteUserReview -->
<g id="node42" class="node"><title>\\db_connector\\DeleteUserReview</title>
<polygon fill="none" stroke="black" points="876.5,-60 751.5,-60 751.5,-24 876.5,-24 876.5,-60"/>
<text text-anchor="middle" x="814" y="-39.2" font-family="Courier,monospace" font-size="11.00">DeleteUserReview</text>
</g>
<!-- \\db_connector\\DeleteUserReview&#45;&gt;\\db_connector\\DeleteConnector -->
<g id="edge40" class="edge"><title>\\db_connector\\DeleteUserReview&#45;&gt;\\db_connector\\DeleteConnector</title>
<path fill="none" stroke="black" d="M753.255,-60.0267C744.724,-62.8759 736.101,-65.9075 728,-69 681.459,-86.7679 629.716,-110.403 593.605,-127.553"/>
<polygon fill="none" stroke="black" points="591.831,-124.522 584.313,-131.987 594.845,-130.839 591.831,-124.522"/>
</g>
<!-- \\db_connector\\UpdateUserReview -->
<g id="node43" class="node"><title>\\db_connector\\UpdateUserReview</title>
<polygon fill="none" stroke="black" points="876.5,-276 751.5,-276 751.5,-240 876.5,-240 876.5,-276"/>
<text text-anchor="middle" x="814" y="-255.2" font-family="Courier,monospace" font-size="11.00">UpdateUserReview</text>
</g>
<!-- \\db_connector\\UpdateUserReview&#45;&gt;\\db_connector\\UpdateConnector -->
<g id="edge41" class="edge"><title>\\db_connector\\UpdateUserReview&#45;&gt;\\db_connector\\UpdateConnector</title>
<path fill="none" stroke="black" d="M751.422,-264.494C710.806,-268.778 657.571,-274.392 615.678,-278.81"/>
<polygon fill="none" stroke="black" points="615.138,-275.347 605.56,-279.877 615.872,-282.309 615.138,-275.347"/>
</g>
</g>
</svg>
