<?xml version="1.0" encoding="UTF-8" standalone="no"?>
<!DOCTYPE svg PUBLIC "-//W3C//DTD SVG 1.1//EN"
 "http://www.w3.org/Graphics/SVG/1.1/DTD/svg11.dtd">
<!-- Generated by graphviz version 2.38.0 (20140413.2041)
 -->
<!-- Title: G Pages: 1 -->
<svg width="939pt" height="1724pt"
 viewBox="0.00 0.00 939.00 1724.00" xmlns="http://www.w3.org/2000/svg" xmlns:xlink="http://www.w3.org/1999/xlink">
<g id="graph0" class="graph" transform="scale(1 1) rotate(0) translate(4 1720)">
<title>G</title>
<polygon fill="white" stroke="none" points="-4,4 -4,-1720 935,-1720 935,4 -4,4"/>
<g id="clust1" class="cluster"><title>cluster_Global</title>
<path fill="none" stroke="gray" d="M20,-8C20,-8 911,-8 911,-8 917,-8 923,-14 923,-20 923,-20 923,-1696 923,-1696 923,-1702 917,-1708 911,-1708 911,-1708 20,-1708 20,-1708 14,-1708 8,-1702 8,-1696 8,-1696 8,-20 8,-20 8,-14 14,-8 20,-8"/>
<text text-anchor="middle" x="465.5" y="-1695.2" font-family="Times New Roman,serif" font-size="11.00" fill="gray">Global</text>
</g>
<g id="clust2" class="cluster"><title>cluster_\db_connector</title>
<path fill="none" stroke="gray" d="M28,-176C28,-176 903,-176 903,-176 909,-176 915,-182 915,-188 915,-188 915,-1668 915,-1668 915,-1674 909,-1680 903,-1680 903,-1680 28,-1680 28,-1680 22,-1680 16,-1674 16,-1668 16,-1668 16,-188 16,-188 16,-182 22,-176 28,-176"/>
<text text-anchor="middle" x="465.5" y="-1667.2" font-family="Times New Roman,serif" font-size="11.00" fill="gray">db_connector</text>
</g>
<g id="clust3" class="cluster"><title>cluster_\db_connector\utilities</title>
<path fill="none" stroke="gray" d="M776,-1580C776,-1580 866,-1580 866,-1580 872,-1580 878,-1586 878,-1592 878,-1592 878,-1640 878,-1640 878,-1646 872,-1652 866,-1652 866,-1652 776,-1652 776,-1652 770,-1652 764,-1646 764,-1640 764,-1640 764,-1592 764,-1592 764,-1586 770,-1580 776,-1580"/>
<text text-anchor="middle" x="821" y="-1639.2" font-family="Times New Roman,serif" font-size="11.00" fill="gray">utilities</text>
</g>
<g id="clust4" class="cluster"><title>cluster_\email_sender</title>
<path fill="none" stroke="gray" d="M795.5,-96C795.5,-96 846.5,-96 846.5,-96 852.5,-96 858.5,-102 858.5,-108 858.5,-108 858.5,-156 858.5,-156 858.5,-162 852.5,-168 846.5,-168 846.5,-168 795.5,-168 795.5,-168 789.5,-168 783.5,-162 783.5,-156 783.5,-156 783.5,-108 783.5,-108 783.5,-102 789.5,-96 795.5,-96"/>
<text text-anchor="middle" x="821" y="-155.2" font-family="Times New Roman,serif" font-size="11.00" fill="gray">email_sender</text>
</g>
<g id="clust5" class="cluster"><title>cluster_\img_uploader</title>
<path fill="none" stroke="gray" d="M789.5,-16C789.5,-16 852.5,-16 852.5,-16 858.5,-16 864.5,-22 864.5,-28 864.5,-28 864.5,-76 864.5,-76 864.5,-82 858.5,-88 852.5,-88 852.5,-88 789.5,-88 789.5,-88 783.5,-88 777.5,-82 777.5,-76 777.5,-76 777.5,-28 777.5,-28 777.5,-22 783.5,-16 789.5,-16"/>
<text text-anchor="middle" x="821" y="-75.2" font-family="Times New Roman,serif" font-size="11.00" fill="gray">img_uploader</text>
</g>
<!-- \\db_connector\\utilities\\TableCreator -->
<g id="node1" class="node"><title>\\db_connector\\utilities\\TableCreator</title>
<polygon fill="none" stroke="black" points="870,-1624 772,-1624 772,-1588 870,-1588 870,-1624"/>
<text text-anchor="middle" x="821" y="-1603.2" font-family="Courier,monospace" font-size="11.00">TableCreator</text>
</g>
<!-- \\db_connector\\RequestUserReview -->
<g id="node2" class="node"><title>\\db_connector\\RequestUserReview</title>
<polygon fill="none" stroke="black" points="615.5,-1652 484.5,-1652 484.5,-1616 615.5,-1616 615.5,-1652"/>
<text text-anchor="middle" x="550" y="-1631.2" font-family="Courier,monospace" font-size="11.00">RequestUserReview</text>
</g>
<!-- \\db_connector\\JsonConnector -->
<g id="node27" class="node"><title>\\db_connector\\JsonConnector</title>
<polygon fill="none" stroke="black" points="348,-1220 244,-1220 244,-1184 348,-1184 348,-1220"/>
<text text-anchor="start" x="262" y="-1205.2" font-family="Courier,monospace" font-size="11.00">«abstract»</text>
<text text-anchor="start" x="252" y="-1193.2" font-family="Courier,monospace" font-size="11.00">JsonConnector</text>
</g>
<!-- \\db_connector\\RequestUserReview&#45;&gt;\\db_connector\\JsonConnector -->
<g id="edge1" class="edge"><title>\\db_connector\\RequestUserReview&#45;&gt;\\db_connector\\JsonConnector</title>
<path fill="none" stroke="black" d="M484.459,-1631.1C466.947,-1627.24 449.418,-1620.03 437,-1607 319.028,-1483.18 473.93,-1360.84 365,-1229 362.55,-1226.03 359.728,-1223.39 356.657,-1221.04"/>
<polygon fill="none" stroke="black" points="358.326,-1217.95 348.028,-1215.46 354.526,-1223.83 358.326,-1217.95"/>
</g>
<!-- \\db_connector\\InsertItinerary -->
<g id="node3" class="node"><title>\\db_connector\\InsertItinerary</title>
<polygon fill="none" stroke="black" points="880,-1570 762,-1570 762,-1534 880,-1534 880,-1570"/>
<text text-anchor="middle" x="821" y="-1549.2" font-family="Courier,monospace" font-size="11.00">InsertItinerary</text>
</g>
<!-- \\db_connector\\InsertConnector -->
<g id="node34" class="node"><title>\\db_connector\\InsertConnector</title>
<polygon fill="none" stroke="black" points="609,-680 491,-680 491,-644 609,-644 609,-680"/>
<text text-anchor="start" x="516" y="-665.2" font-family="Courier,monospace" font-size="11.00">«abstract»</text>
<text text-anchor="start" x="499" y="-653.2" font-family="Courier,monospace" font-size="11.00">InsertConnector</text>
</g>
<!-- \\db_connector\\InsertItinerary&#45;&gt;\\db_connector\\InsertConnector -->
<g id="edge2" class="edge"><title>\\db_connector\\InsertItinerary&#45;&gt;\\db_connector\\InsertConnector</title>
<path fill="none" stroke="black" d="M761.745,-1543.53C751.462,-1539.49 741.866,-1533.59 735,-1525 618.541,-1379.38 784.555,-830.399 663,-689 651.828,-676.004 635.588,-668.683 618.923,-664.694"/>
<polygon fill="none" stroke="black" points="619.592,-661.258 609.098,-662.712 618.209,-668.12 619.592,-661.258"/>
</g>
<!-- \\db_connector\\RequestDocument -->
<g id="node4" class="node"><title>\\db_connector\\RequestDocument</title>
<polygon fill="none" stroke="black" points="609,-1598 491,-1598 491,-1562 609,-1562 609,-1598"/>
<text text-anchor="middle" x="550" y="-1577.2" font-family="Courier,monospace" font-size="11.00">RequestDocument</text>
</g>
<!-- \\db_connector\\RequestDocument&#45;&gt;\\db_connector\\JsonConnector -->
<g id="edge3" class="edge"><title>\\db_connector\\RequestDocument&#45;&gt;\\db_connector\\JsonConnector</title>
<path fill="none" stroke="black" d="M490.823,-1578.09C471.374,-1574.58 451.086,-1567.34 437,-1553 333.63,-1447.76 460.677,-1341.28 365,-1229 362.549,-1226.12 359.749,-1223.55 356.715,-1221.25"/>
<polygon fill="none" stroke="black" points="358.516,-1218.25 348.214,-1215.78 354.726,-1224.13 358.516,-1218.25"/>
</g>
<!-- \\db_connector\\InsertReport -->
<g id="node5" class="node"><title>\\db_connector\\InsertReport</title>
<polygon fill="none" stroke="black" points="870,-1516 772,-1516 772,-1480 870,-1480 870,-1516"/>
<text text-anchor="middle" x="821" y="-1495.2" font-family="Courier,monospace" font-size="11.00">InsertReport</text>
</g>
<!-- \\db_connector\\InsertReport&#45;&gt;\\db_connector\\InsertConnector -->
<g id="edge4" class="edge"><title>\\db_connector\\InsertReport&#45;&gt;\\db_connector\\InsertConnector</title>
<path fill="none" stroke="black" d="M771.925,-1492.87C758.007,-1488.99 744.124,-1482.34 735,-1471 625.604,-1335.03 777.153,-820.999 663,-689 651.79,-676.037 635.537,-668.727 618.873,-664.738"/>
<polygon fill="none" stroke="black" points="619.543,-661.303 609.048,-662.755 618.158,-668.164 619.543,-661.303"/>
</g>
<!-- \\db_connector\\UpdateRegisteredUser -->
<g id="node6" class="node"><title>\\db_connector\\UpdateRegisteredUser</title>
<polygon fill="none" stroke="black" points="897,-922 745,-922 745,-886 897,-886 897,-922"/>
<text text-anchor="middle" x="821" y="-901.2" font-family="Courier,monospace" font-size="11.00">UpdateRegisteredUser</text>
</g>
<!-- \\db_connector\\UpdateConnector -->
<g id="node32" class="node"><title>\\db_connector\\UpdateConnector</title>
<polygon fill="none" stroke="black" points="609,-626 491,-626 491,-590 609,-590 609,-626"/>
<text text-anchor="start" x="516" y="-611.2" font-family="Courier,monospace" font-size="11.00">«abstract»</text>
<text text-anchor="start" x="499" y="-599.2" font-family="Courier,monospace" font-size="11.00">UpdateConnector</text>
</g>
<!-- \\db_connector\\UpdateRegisteredUser&#45;&gt;\\db_connector\\UpdateConnector -->
<g id="edge5" class="edge"><title>\\db_connector\\UpdateRegisteredUser&#45;&gt;\\db_connector\\UpdateConnector</title>
<path fill="none" stroke="black" d="M745.837,-885.775C741.913,-883.223 738.254,-880.315 735,-877 656.385,-796.926 744.408,-712.233 663,-635 651.044,-623.657 635.181,-616.819 619.165,-612.76"/>
<polygon fill="none" stroke="black" points="619.724,-609.3 609.207,-610.577 618.225,-616.137 619.724,-609.3"/>
</g>
<!-- \\db_connector\\RequestReportDetails -->
<g id="node7" class="node"><title>\\db_connector\\RequestReportDetails</title>
<polygon fill="none" stroke="black" points="626,-1544 474,-1544 474,-1508 626,-1508 626,-1544"/>
<text text-anchor="middle" x="550" y="-1523.2" font-family="Courier,monospace" font-size="11.00">RequestReportDetails</text>
</g>
<!-- \\db_connector\\RequestReportDetails&#45;&gt;\\db_connector\\JsonConnector -->
<g id="edge6" class="edge"><title>\\db_connector\\RequestReportDetails&#45;&gt;\\db_connector\\JsonConnector</title>
<path fill="none" stroke="black" d="M473.987,-1519.62C460.302,-1515.41 447.162,-1508.92 437,-1499 348.133,-1412.24 447.516,-1321.82 365,-1229 362.489,-1226.18 359.644,-1223.64 356.575,-1221.37"/>
<polygon fill="none" stroke="black" points="358.331,-1218.34 348.008,-1215.96 354.589,-1224.26 358.331,-1218.34"/>
</g>
<!-- \\db_connector\\UpdateReportDetails -->
<g id="node8" class="node"><title>\\db_connector\\UpdateReportDetails</title>
<polygon fill="none" stroke="black" points="893.5,-868 748.5,-868 748.5,-832 893.5,-832 893.5,-868"/>
<text text-anchor="middle" x="821" y="-847.2" font-family="Courier,monospace" font-size="11.00">UpdateReportDetails</text>
</g>
<!-- \\db_connector\\UpdateReportDetails&#45;&gt;\\db_connector\\UpdateConnector -->
<g id="edge7" class="edge"><title>\\db_connector\\UpdateReportDetails&#45;&gt;\\db_connector\\UpdateConnector</title>
<path fill="none" stroke="black" d="M748.145,-832.691C743.395,-829.926 738.942,-826.719 735,-823 669.919,-761.6 730.219,-694.052 663,-635 650.743,-624.232 634.926,-617.585 619.061,-613.526"/>
<polygon fill="none" stroke="black" points="619.732,-610.09 609.209,-611.319 618.202,-616.92 619.732,-610.09"/>
</g>
<!-- \\db_connector\\InsertWishlist -->
<g id="node9" class="node"><title>\\db_connector\\InsertWishlist</title>
<polygon fill="none" stroke="black" points="876.5,-1462 765.5,-1462 765.5,-1426 876.5,-1426 876.5,-1462"/>
<text text-anchor="middle" x="821" y="-1441.2" font-family="Courier,monospace" font-size="11.00">InsertWishlist</text>
</g>
<!-- \\db_connector\\InsertWishlist&#45;&gt;\\db_connector\\InsertConnector -->
<g id="edge8" class="edge"><title>\\db_connector\\InsertWishlist&#45;&gt;\\db_connector\\InsertConnector</title>
<path fill="none" stroke="black" d="M765.331,-1436.76C753.742,-1432.71 742.7,-1426.5 735,-1417 632.665,-1290.68 769.755,-811.603 663,-689 651.905,-676.258 635.939,-668.986 619.523,-664.96"/>
<polygon fill="none" stroke="black" points="619.784,-661.44 609.283,-662.853 618.373,-668.297 619.784,-661.44"/>
</g>
<!-- \\db_connector\\RequestLanguage -->
<g id="node10" class="node"><title>\\db_connector\\RequestLanguage</title>
<polygon fill="none" stroke="black" points="609,-1490 491,-1490 491,-1454 609,-1454 609,-1490"/>
<text text-anchor="middle" x="550" y="-1469.2" font-family="Courier,monospace" font-size="11.00">RequestLanguage</text>
</g>
<!-- \\db_connector\\RequestLanguage&#45;&gt;\\db_connector\\JsonConnector -->
<g id="edge9" class="edge"><title>\\db_connector\\RequestLanguage&#45;&gt;\\db_connector\\JsonConnector</title>
<path fill="none" stroke="black" d="M490.752,-1469.1C471.64,-1465.46 451.585,-1458.39 437,-1445 362.464,-1376.56 434.515,-1302.54 365,-1229 362.525,-1226.38 359.765,-1224.01 356.811,-1221.87"/>
<polygon fill="none" stroke="black" points="358.394,-1218.73 348.057,-1216.41 354.688,-1224.67 358.394,-1218.73"/>
</g>
<!-- \\db_connector\\InsertUserReview -->
<g id="node11" class="node"><title>\\db_connector\\InsertUserReview</title>
<polygon fill="none" stroke="black" points="883.5,-1408 758.5,-1408 758.5,-1372 883.5,-1372 883.5,-1408"/>
<text text-anchor="middle" x="821" y="-1387.2" font-family="Courier,monospace" font-size="11.00">InsertUserReview</text>
</g>
<!-- \\db_connector\\InsertUserReview&#45;&gt;\\db_connector\\InsertConnector -->
<g id="edge10" class="edge"><title>\\db_connector\\InsertUserReview&#45;&gt;\\db_connector\\InsertConnector</title>
<path fill="none" stroke="black" d="M758.431,-1379.98C749.451,-1376.03 741.17,-1370.56 735,-1363 544.442,-1129.67 861.721,-915.423 663,-689 651.856,-676.302 635.872,-669.044 619.456,-665.019"/>
<polygon fill="none" stroke="black" points="619.718,-661.499 609.218,-662.91 618.306,-668.355 619.718,-661.499"/>
</g>
<!-- \\db_connector\\UpdateDocument -->
<g id="node12" class="node"><title>\\db_connector\\UpdateDocument</title>
<polygon fill="none" stroke="black" points="876.5,-814 765.5,-814 765.5,-778 876.5,-778 876.5,-814"/>
<text text-anchor="middle" x="821" y="-793.2" font-family="Courier,monospace" font-size="11.00">UpdateDocument</text>
</g>
<!-- \\db_connector\\UpdateDocument&#45;&gt;\\db_connector\\UpdateConnector -->
<g id="edge11" class="edge"><title>\\db_connector\\UpdateDocument&#45;&gt;\\db_connector\\UpdateConnector</title>
<path fill="none" stroke="black" d="M765.128,-785.399C754.347,-781.515 743.698,-776.218 735,-769 682.972,-725.827 716.528,-676.299 663,-635 650.399,-625.278 634.811,-618.991 619.311,-614.943"/>
<polygon fill="none" stroke="black" points="619.701,-611.441 609.169,-612.593 618.121,-618.26 619.701,-611.441"/>
</g>
<!-- \\db_connector\\CheckIfUserCanReviewUser -->
<g id="node13" class="node"><title>\\db_connector\\CheckIfUserCanReviewUser</title>
<polygon fill="none" stroke="black" points="639.5,-788 460.5,-788 460.5,-752 639.5,-752 639.5,-788"/>
<text text-anchor="middle" x="550" y="-767.2" font-family="Courier,monospace" font-size="11.00">CheckIfUserCanReviewUser</text>
</g>
<!-- \\db_connector\\BooleanConnector -->
<g id="node35" class="node"><title>\\db_connector\\BooleanConnector</title>
<polygon fill="none" stroke="black" points="358.5,-707 233.5,-707 233.5,-671 358.5,-671 358.5,-707"/>
<text text-anchor="start" x="262" y="-692.2" font-family="Courier,monospace" font-size="11.00">«abstract»</text>
<text text-anchor="start" x="241.5" y="-680.2" font-family="Courier,monospace" font-size="11.00">BooleanConnector</text>
</g>
<!-- \\db_connector\\CheckIfUserCanReviewUser&#45;&gt;\\db_connector\\BooleanConnector -->
<g id="edge12" class="edge"><title>\\db_connector\\CheckIfUserCanReviewUser&#45;&gt;\\db_connector\\BooleanConnector</title>
<path fill="none" stroke="black" d="M468.504,-751.947C457.85,-749.163 447.12,-746.156 437,-743 407.32,-733.743 374.887,-721.381 348.718,-710.821"/>
<polygon fill="none" stroke="black" points="349.958,-707.547 339.376,-707.021 347.32,-714.031 349.958,-707.547"/>
</g>
<!-- \\db_connector\\InsertLanguage -->
<g id="node14" class="node"><title>\\db_connector\\InsertLanguage</title>
<polygon fill="none" stroke="black" points="876.5,-1354 765.5,-1354 765.5,-1318 876.5,-1318 876.5,-1354"/>
<text text-anchor="middle" x="821" y="-1333.2" font-family="Courier,monospace" font-size="11.00">InsertLanguage</text>
</g>
<!-- \\db_connector\\InsertLanguage&#45;&gt;\\db_connector\\InsertConnector -->
<g id="edge13" class="edge"><title>\\db_connector\\InsertLanguage&#45;&gt;\\db_connector\\InsertConnector</title>
<path fill="none" stroke="black" d="M765.446,-1328.66C753.854,-1324.62 742.781,-1318.44 735,-1309 558.544,-1094.95 846.943,-896.653 663,-689 651.797,-676.353 635.794,-669.113 619.377,-665.088"/>
<polygon fill="none" stroke="black" points="619.642,-661.569 609.142,-662.977 618.229,-668.425 619.642,-661.569"/>
</g>
<!-- \\db_connector\\DeleteItineraryReview -->
<g id="node15" class="node"><title>\\db_connector\\DeleteItineraryReview</title>
<polygon fill="none" stroke="black" points="900,-544 742,-544 742,-508 900,-508 900,-544"/>
<text text-anchor="middle" x="821" y="-523.2" font-family="Courier,monospace" font-size="11.00">DeleteItineraryReview</text>
</g>
<!-- \\db_connector\\DeleteConnector -->
<g id="node38" class="node"><title>\\db_connector\\DeleteConnector</title>
<polygon fill="none" stroke="black" points="609,-409 491,-409 491,-373 609,-373 609,-409"/>
<text text-anchor="start" x="516" y="-394.2" font-family="Courier,monospace" font-size="11.00">«abstract»</text>
<text text-anchor="start" x="499" y="-382.2" font-family="Courier,monospace" font-size="11.00">DeleteConnector</text>
</g>
<!-- \\db_connector\\DeleteItineraryReview&#45;&gt;\\db_connector\\DeleteConnector -->
<g id="edge14" class="edge"><title>\\db_connector\\DeleteItineraryReview&#45;&gt;\\db_connector\\DeleteConnector</title>
<path fill="none" stroke="black" d="M757.652,-507.971C749.926,-505.219 742.213,-502.214 735,-499 680.728,-474.818 622.228,-438.538 586.106,-414.815"/>
<polygon fill="none" stroke="black" points="587.692,-411.668 577.421,-409.07 583.83,-417.506 587.692,-411.668"/>
</g>
<!-- \\db_connector\\RequestUserLanguage -->
<g id="node16" class="node"><title>\\db_connector\\RequestUserLanguage</title>
<polygon fill="none" stroke="black" points="622.5,-1436 477.5,-1436 477.5,-1400 622.5,-1400 622.5,-1436"/>
<text text-anchor="middle" x="550" y="-1415.2" font-family="Courier,monospace" font-size="11.00">RequestUserLanguage</text>
</g>
<!-- \\db_connector\\RequestUserLanguage&#45;&gt;\\db_connector\\JsonConnector -->
<g id="edge15" class="edge"><title>\\db_connector\\RequestUserLanguage&#45;&gt;\\db_connector\\JsonConnector</title>
<path fill="none" stroke="black" d="M477.492,-1410.99C462.911,-1406.89 448.526,-1400.6 437,-1391 376.462,-1340.57 421.824,-1283.58 365,-1229 362.572,-1226.67 359.919,-1224.53 357.112,-1222.57"/>
<polygon fill="none" stroke="black" points="358.666,-1219.42 348.304,-1217.21 355.027,-1225.4 358.666,-1219.42"/>
</g>
<!-- \\db_connector\\InsertUserLanguage -->
<g id="node17" class="node"><title>\\db_connector\\InsertUserLanguage</title>
<polygon fill="none" stroke="black" points="890,-1300 752,-1300 752,-1264 890,-1264 890,-1300"/>
<text text-anchor="middle" x="821" y="-1279.2" font-family="Courier,monospace" font-size="11.00">InsertUserLanguage</text>
</g>
<!-- \\db_connector\\InsertUserLanguage&#45;&gt;\\db_connector\\InsertConnector -->
<g id="edge16" class="edge"><title>\\db_connector\\InsertUserLanguage&#45;&gt;\\db_connector\\InsertConnector</title>
<path fill="none" stroke="black" d="M751.86,-1268.57C745.473,-1265.04 739.66,-1260.59 735,-1255 572.633,-1060.22 832.179,-877.898 663,-689 651.728,-676.415 635.702,-669.195 619.285,-665.17"/>
<polygon fill="none" stroke="black" points="619.552,-661.652 609.051,-663.058 618.137,-668.507 619.552,-661.652"/>
</g>
<!-- \\db_connector\\RequestItineraryJoinReservation -->
<g id="node18" class="node"><title>\\db_connector\\RequestItineraryJoinReservation</title>
<polygon fill="none" stroke="black" points="663,-1382 437,-1382 437,-1346 663,-1346 663,-1382"/>
<text text-anchor="middle" x="550" y="-1361.2" font-family="Courier,monospace" font-size="11.00">RequestItineraryJoinReservation</text>
</g>
<!-- \\db_connector\\RequestItineraryJoinReservation&#45;&gt;\\db_connector\\JsonConnector -->
<g id="edge17" class="edge"><title>\\db_connector\\RequestItineraryJoinReservation&#45;&gt;\\db_connector\\JsonConnector</title>
<path fill="none" stroke="black" d="M452.479,-1345.93C447.047,-1343.34 441.837,-1340.38 437,-1337 389.705,-1303.97 409.843,-1265.29 365,-1229 362.561,-1227.03 359.959,-1225.18 357.249,-1223.46"/>
<polygon fill="none" stroke="black" points="358.716,-1220.27 348.292,-1218.37 355.258,-1226.35 358.716,-1220.27"/>
</g>
<!-- \\db_connector\\InsertReportDetails -->
<g id="node19" class="node"><title>\\db_connector\\InsertReportDetails</title>
<polygon fill="none" stroke="black" points="893.5,-1246 748.5,-1246 748.5,-1210 893.5,-1210 893.5,-1246"/>
<text text-anchor="middle" x="821" y="-1225.2" font-family="Courier,monospace" font-size="11.00">InsertReportDetails</text>
</g>
<!-- \\db_connector\\InsertReportDetails&#45;&gt;\\db_connector\\InsertConnector -->
<g id="edge18" class="edge"><title>\\db_connector\\InsertReportDetails&#45;&gt;\\db_connector\\InsertConnector</title>
<path fill="none" stroke="black" d="M748.323,-1212.39C743.34,-1209.25 738.797,-1205.49 735,-1201 586.704,-1025.46 817.433,-859.164 663,-689 651.701,-676.55 635.748,-669.366 619.415,-665.33"/>
<polygon fill="none" stroke="black" points="619.738,-661.822 609.234,-663.206 618.308,-668.675 619.738,-661.822"/>
</g>
<!-- \\db_connector\\InsertItineraryLanguage -->
<g id="node20" class="node"><title>\\db_connector\\InsertItineraryLanguage</title>
<polygon fill="none" stroke="black" points="907,-1192 735,-1192 735,-1156 907,-1156 907,-1192"/>
<text text-anchor="middle" x="821" y="-1171.2" font-family="Courier,monospace" font-size="11.00">InsertItineraryLanguage</text>
</g>
<!-- \\db_connector\\InsertItineraryLanguage&#45;&gt;\\db_connector\\InsertConnector -->
<g id="edge19" class="edge"><title>\\db_connector\\InsertItineraryLanguage&#45;&gt;\\db_connector\\InsertConnector</title>
<path fill="none" stroke="black" d="M744.926,-1156C741.279,-1153.39 737.925,-1150.41 735,-1147 600.752,-990.679 802.713,-840.457 663,-689 651.601,-676.643 635.613,-669.489 619.278,-665.455"/>
<polygon fill="none" stroke="black" points="619.606,-661.948 609.101,-663.327 618.173,-668.799 619.606,-661.948"/>
</g>
<!-- \\db_connector\\RequestWishlist -->
<g id="node21" class="node"><title>\\db_connector\\RequestWishlist</title>
<polygon fill="none" stroke="black" points="609,-1328 491,-1328 491,-1292 609,-1292 609,-1328"/>
<text text-anchor="middle" x="550" y="-1307.2" font-family="Courier,monospace" font-size="11.00">RequestWishlist</text>
</g>
<!-- \\db_connector\\RequestWishlist&#45;&gt;\\db_connector\\JsonConnector -->
<g id="edge20" class="edge"><title>\\db_connector\\RequestWishlist&#45;&gt;\\db_connector\\JsonConnector</title>
<path fill="none" stroke="black" d="M490.784,-1300.67C473.004,-1296.59 453.739,-1290.88 437,-1283 400.81,-1265.96 399.895,-1248.55 365,-1229 362.174,-1227.42 359.237,-1225.88 356.238,-1224.4"/>
<polygon fill="none" stroke="black" points="357.647,-1221.19 347.107,-1220.12 354.677,-1227.53 357.647,-1221.19"/>
</g>
<!-- \\db_connector\\InsertRegisteredUser -->
<g id="node22" class="node"><title>\\db_connector\\InsertRegisteredUser</title>
<polygon fill="none" stroke="black" points="897,-1138 745,-1138 745,-1102 897,-1102 897,-1138"/>
<text text-anchor="middle" x="821" y="-1117.2" font-family="Courier,monospace" font-size="11.00">InsertRegisteredUser</text>
</g>
<!-- \\db_connector\\InsertRegisteredUser&#45;&gt;\\db_connector\\InsertConnector -->
<g id="edge21" class="edge"><title>\\db_connector\\InsertRegisteredUser&#45;&gt;\\db_connector\\InsertConnector</title>
<path fill="none" stroke="black" d="M745.008,-1101.93C741.34,-1099.33 737.96,-1096.38 735,-1093 614.766,-955.858 788.026,-821.788 663,-689 651.532,-676.82 635.602,-669.717 619.35,-665.673"/>
<polygon fill="none" stroke="black" points="619.734,-662.177 609.226,-663.533 618.286,-669.026 619.734,-662.177"/>
</g>
<!-- \\db_connector\\DeleteRegisteredUser -->
<g id="node23" class="node"><title>\\db_connector\\DeleteRegisteredUser</title>
<polygon fill="none" stroke="black" points="897,-490 745,-490 745,-454 897,-454 897,-490"/>
<text text-anchor="middle" x="821" y="-469.2" font-family="Courier,monospace" font-size="11.00">DeleteRegisteredUser</text>
</g>
<!-- \\db_connector\\DeleteRegisteredUser&#45;&gt;\\db_connector\\DeleteConnector -->
<g id="edge22" class="edge"><title>\\db_connector\\DeleteRegisteredUser&#45;&gt;\\db_connector\\DeleteConnector</title>
<path fill="none" stroke="black" d="M759.966,-453.923C718.074,-441.309 662.11,-424.457 618.64,-411.368"/>
<polygon fill="none" stroke="black" points="619.588,-407.998 609.004,-408.466 617.57,-414.7 619.588,-407.998"/>
</g>
<!-- \\db_connector\\InsertReservation -->
<g id="node24" class="node"><title>\\db_connector\\InsertReservation</title>
<polygon fill="none" stroke="black" points="886.5,-1084 755.5,-1084 755.5,-1048 886.5,-1048 886.5,-1084"/>
<text text-anchor="middle" x="821" y="-1063.2" font-family="Courier,monospace" font-size="11.00">InsertReservation</text>
</g>
<!-- \\db_connector\\InsertReservation&#45;&gt;\\db_connector\\InsertConnector -->
<g id="edge23" class="edge"><title>\\db_connector\\InsertReservation&#45;&gt;\\db_connector\\InsertConnector</title>
<path fill="none" stroke="black" d="M755.201,-1053.7C747.611,-1050.01 740.595,-1045.21 735,-1039 628.731,-920.981 773.391,-803.172 663,-689 651.371,-676.973 635.386,-669.923 619.132,-665.881"/>
<polygon fill="none" stroke="black" points="619.521,-662.386 609.013,-663.736 618.069,-669.234 619.521,-662.386"/>
</g>
<!-- \\db_connector\\InsertDocument -->
<g id="node25" class="node"><title>\\db_connector\\InsertDocument</title>
<polygon fill="none" stroke="black" points="876.5,-1030 765.5,-1030 765.5,-994 876.5,-994 876.5,-1030"/>
<text text-anchor="middle" x="821" y="-1009.2" font-family="Courier,monospace" font-size="11.00">InsertDocument</text>
</g>
<!-- \\db_connector\\InsertDocument&#45;&gt;\\db_connector\\InsertConnector -->
<g id="edge24" class="edge"><title>\\db_connector\\InsertDocument&#45;&gt;\\db_connector\\InsertConnector</title>
<path fill="none" stroke="black" d="M765.375,-1003.64C754.066,-999.631 743.135,-993.716 735,-985 642.621,-886.02 758.834,-784.638 663,-689 651.217,-677.241 635.258,-670.274 619.083,-666.227"/>
<polygon fill="none" stroke="black" points="619.532,-662.743 609.02,-664.067 618.063,-669.587 619.532,-662.743"/>
</g>
<!-- \\db_connector\\UpdateUserReview -->
<g id="node26" class="node"><title>\\db_connector\\UpdateUserReview</title>
<polygon fill="none" stroke="black" points="883.5,-760 758.5,-760 758.5,-724 883.5,-724 883.5,-760"/>
<text text-anchor="middle" x="821" y="-739.2" font-family="Courier,monospace" font-size="11.00">UpdateUserReview</text>
</g>
<!-- \\db_connector\\UpdateUserReview&#45;&gt;\\db_connector\\UpdateConnector -->
<g id="edge25" class="edge"><title>\\db_connector\\UpdateUserReview&#45;&gt;\\db_connector\\UpdateConnector</title>
<path fill="none" stroke="black" d="M758.32,-726.739C750.162,-723.494 742.157,-719.615 735,-715 694.799,-689.075 704.096,-659.482 663,-635 649.679,-627.065 634.156,-621.459 618.986,-617.501"/>
<polygon fill="none" stroke="black" points="619.635,-614.057 609.095,-615.129 618.003,-620.864 619.635,-614.057"/>
</g>
<!-- \\db_connector\\DatabaseConnector -->
<g id="node39" class="node"><title>\\db_connector\\DatabaseConnector</title>
<polygon fill="none" stroke="black" points="155,-1220 24,-1220 24,-1184 155,-1184 155,-1220"/>
<text text-anchor="start" x="55.5" y="-1205.2" font-family="Courier,monospace" font-size="11.00">«abstract»</text>
<text text-anchor="start" x="32" y="-1193.2" font-family="Courier,monospace" font-size="11.00">DatabaseConnector</text>
</g>
<!-- \\db_connector\\JsonConnector&#45;&gt;\\db_connector\\DatabaseConnector -->
<g id="edge26" class="edge"><title>\\db_connector\\JsonConnector&#45;&gt;\\db_connector\\DatabaseConnector</title>
<path fill="none" stroke="black" d="M243.924,-1202C220.216,-1202 191.563,-1202 165.467,-1202"/>
<polygon fill="none" stroke="black" points="165.228,-1198.5 155.228,-1202 165.228,-1205.5 165.228,-1198.5"/>
</g>
<!-- \\db_connector\\RequestItineraryLanguage -->
<g id="node28" class="node"><title>\\db_connector\\RequestItineraryLanguage</title>
<polygon fill="none" stroke="black" points="639.5,-1274 460.5,-1274 460.5,-1238 639.5,-1238 639.5,-1274"/>
<text text-anchor="middle" x="550" y="-1253.2" font-family="Courier,monospace" font-size="11.00">RequestItineraryLanguage</text>
</g>
<!-- \\db_connector\\RequestItineraryLanguage&#45;&gt;\\db_connector\\JsonConnector -->
<g id="edge27" class="edge"><title>\\db_connector\\RequestItineraryLanguage&#45;&gt;\\db_connector\\JsonConnector</title>
<path fill="none" stroke="black" d="M464.737,-1237.94C429.878,-1230.47 390.213,-1221.97 358.21,-1215.12"/>
<polygon fill="none" stroke="black" points="358.615,-1211.62 348.104,-1212.95 357.149,-1218.47 358.615,-1211.62"/>
</g>
<!-- \\db_connector\\UpdateReservation -->
<g id="node29" class="node"><title>\\db_connector\\UpdateReservation</title>
<polygon fill="none" stroke="black" points="886.5,-706 755.5,-706 755.5,-670 886.5,-670 886.5,-706"/>
<text text-anchor="middle" x="821" y="-685.2" font-family="Courier,monospace" font-size="11.00">UpdateReservation</text>
</g>
<!-- \\db_connector\\UpdateReservation&#45;&gt;\\db_connector\\UpdateConnector -->
<g id="edge28" class="edge"><title>\\db_connector\\UpdateReservation&#45;&gt;\\db_connector\\UpdateConnector</title>
<path fill="none" stroke="black" d="M761.832,-669.855C752.829,-666.951 743.651,-663.935 735,-661 702.781,-650.07 695.587,-644.779 663,-635 648.913,-630.773 633.679,-626.746 619.118,-623.154"/>
<polygon fill="none" stroke="black" points="619.711,-619.696 609.167,-620.739 618.06,-626.499 619.711,-619.696"/>
</g>
<!-- \\db_connector\\RequestItineraryReview -->
<g id="node30" class="node"><title>\\db_connector\\RequestItineraryReview</title>
<polygon fill="none" stroke="black" points="632.5,-1220 467.5,-1220 467.5,-1184 632.5,-1184 632.5,-1220"/>
<text text-anchor="middle" x="550" y="-1199.2" font-family="Courier,monospace" font-size="11.00">RequestItineraryReview</text>
</g>
<!-- \\db_connector\\RequestItineraryReview&#45;&gt;\\db_connector\\JsonConnector -->
<g id="edge29" class="edge"><title>\\db_connector\\RequestItineraryReview&#45;&gt;\\db_connector\\JsonConnector</title>
<path fill="none" stroke="black" d="M467.183,-1202C431.91,-1202 391.347,-1202 358.672,-1202"/>
<polygon fill="none" stroke="black" points="358.357,-1198.5 348.357,-1202 358.357,-1205.5 358.357,-1198.5"/>
</g>
<!-- \\db_connector\\DeleteWishlist -->
<g id="node31" class="node"><title>\\db_connector\\DeleteWishlist</title>
<polygon fill="none" stroke="black" points="876.5,-436 765.5,-436 765.5,-400 876.5,-400 876.5,-436"/>
<text text-anchor="middle" x="821" y="-415.2" font-family="Courier,monospace" font-size="11.00">DeleteWishlist</text>
</g>
<!-- \\db_connector\\DeleteWishlist&#45;&gt;\\db_connector\\DeleteConnector -->
<g id="edge30" class="edge"><title>\\db_connector\\DeleteWishlist&#45;&gt;\\db_connector\\DeleteConnector</title>
<path fill="none" stroke="black" d="M765.24,-412.504C723.109,-408.275 664.642,-402.406 619.428,-397.868"/>
<polygon fill="none" stroke="black" points="619.709,-394.379 609.41,-396.863 619.01,-401.344 619.709,-394.379"/>
</g>
<!-- \\db_connector\\UpdateConnector&#45;&gt;\\db_connector\\BooleanConnector -->
<g id="edge31" class="edge"><title>\\db_connector\\UpdateConnector&#45;&gt;\\db_connector\\BooleanConnector</title>
<path fill="none" stroke="black" d="M490.761,-620.505C473.34,-624.657 454.28,-629.61 437,-635 407.32,-644.257 374.887,-656.619 348.718,-667.179"/>
<polygon fill="none" stroke="black" points="347.32,-663.969 339.376,-670.979 349.958,-670.453 347.32,-663.969"/>
</g>
<!-- \\db_connector\\RequestActiveItinerary -->
<g id="node33" class="node"><title>\\db_connector\\RequestActiveItinerary</title>
<polygon fill="none" stroke="black" points="632.5,-1166 467.5,-1166 467.5,-1130 632.5,-1130 632.5,-1166"/>
<text text-anchor="middle" x="550" y="-1145.2" font-family="Courier,monospace" font-size="11.00">RequestActiveItinerary</text>
</g>
<!-- \\db_connector\\RequestActiveItinerary&#45;&gt;\\db_connector\\JsonConnector -->
<g id="edge32" class="edge"><title>\\db_connector\\RequestActiveItinerary&#45;&gt;\\db_connector\\JsonConnector</title>
<path fill="none" stroke="black" d="M467.183,-1165.53C431.757,-1173.12 390.996,-1181.86 358.248,-1188.88"/>
<polygon fill="none" stroke="black" points="357.401,-1185.48 348.357,-1190.99 358.868,-1192.32 357.401,-1185.48"/>
</g>
<!-- \\db_connector\\InsertConnector&#45;&gt;\\db_connector\\BooleanConnector -->
<g id="edge33" class="edge"><title>\\db_connector\\InsertConnector&#45;&gt;\\db_connector\\BooleanConnector</title>
<path fill="none" stroke="black" d="M490.87,-668.228C454.576,-672.117 407.575,-677.153 368.941,-681.292"/>
<polygon fill="none" stroke="black" points="368.368,-677.833 358.797,-682.379 369.113,-684.794 368.368,-677.833"/>
</g>
<!-- \\db_connector\\BooleanConnector&#45;&gt;\\db_connector\\DatabaseConnector -->
<g id="edge34" class="edge"><title>\\db_connector\\BooleanConnector&#45;&gt;\\db_connector\\DatabaseConnector</title>
<path fill="none" stroke="black" d="M287.722,-707.258C257.066,-784.159 138.347,-1081.97 101.483,-1174.45"/>
<polygon fill="none" stroke="black" points="98.1429,-1173.38 97.6911,-1183.96 104.645,-1175.97 98.1429,-1173.38"/>
</g>
<!-- \\db_connector\\DeleteReservation -->
<g id="node36" class="node"><title>\\db_connector\\DeleteReservation</title>
<polygon fill="none" stroke="black" points="886.5,-382 755.5,-382 755.5,-346 886.5,-346 886.5,-382"/>
<text text-anchor="middle" x="821" y="-361.2" font-family="Courier,monospace" font-size="11.00">DeleteReservation</text>
</g>
<!-- \\db_connector\\DeleteReservation&#45;&gt;\\db_connector\\DeleteConnector -->
<g id="edge35" class="edge"><title>\\db_connector\\DeleteReservation&#45;&gt;\\db_connector\\DeleteConnector</title>
<path fill="none" stroke="black" d="M755.225,-370.502C714.15,-374.624 661.082,-379.951 619.338,-384.141"/>
<polygon fill="none" stroke="black" points="618.857,-380.671 609.256,-385.153 619.556,-387.636 618.857,-380.671"/>
</g>
<!-- \\db_connector\\RequestItinerary -->
<g id="node37" class="node"><title>\\db_connector\\RequestItinerary</title>
<polygon fill="none" stroke="black" points="612.5,-1112 487.5,-1112 487.5,-1076 612.5,-1076 612.5,-1112"/>
<text text-anchor="middle" x="550" y="-1091.2" font-family="Courier,monospace" font-size="11.00">RequestItinerary</text>
</g>
<!-- \\db_connector\\RequestItinerary&#45;&gt;\\db_connector\\JsonConnector -->
<g id="edge36" class="edge"><title>\\db_connector\\RequestItinerary&#45;&gt;\\db_connector\\JsonConnector</title>
<path fill="none" stroke="black" d="M487.264,-1105.52C470.643,-1109.53 452.878,-1114.65 437,-1121 399.006,-1136.2 358.902,-1160.34 331.401,-1178.32"/>
<polygon fill="none" stroke="black" points="329.343,-1175.49 322.934,-1183.92 333.206,-1181.32 329.343,-1175.49"/>
</g>
<!-- \\db_connector\\DeleteConnector&#45;&gt;\\db_connector\\BooleanConnector -->
<g id="edge37" class="edge"><title>\\db_connector\\DeleteConnector&#45;&gt;\\db_connector\\BooleanConnector</title>
<path fill="none" stroke="black" d="M533.616,-409.193C490.648,-460.004 369.237,-603.576 319.091,-662.877"/>
<polygon fill="none" stroke="black" points="316.288,-660.771 312.503,-670.667 321.633,-665.291 316.288,-660.771"/>
</g>
<!-- \\db_connector\\UserDataDownloader -->
<g id="node40" class="node"><title>\\db_connector\\UserDataDownloader</title>
<polygon fill="none" stroke="black" points="365,-1274 227,-1274 227,-1238 365,-1238 365,-1274"/>
<text text-anchor="middle" x="296" y="-1253.2" font-family="Courier,monospace" font-size="11.00">UserDataDownloader</text>
</g>
<!-- \\db_connector\\UserDataDownloader&#45;&gt;\\db_connector\\DatabaseConnector -->
<g id="edge38" class="edge"><title>\\db_connector\\UserDataDownloader&#45;&gt;\\db_connector\\DatabaseConnector</title>
<path fill="none" stroke="black" d="M226.904,-1238.02C207.034,-1232.77 185.22,-1227.01 164.977,-1221.67"/>
<polygon fill="none" stroke="black" points="165.743,-1218.25 155.181,-1219.08 163.956,-1225.02 165.743,-1218.25"/>
</g>
<!-- \\db_connector\\DeleteUserReview -->
<g id="node41" class="node"><title>\\db_connector\\DeleteUserReview</title>
<polygon fill="none" stroke="black" points="883.5,-328 758.5,-328 758.5,-292 883.5,-292 883.5,-328"/>
<text text-anchor="middle" x="821" y="-307.2" font-family="Courier,monospace" font-size="11.00">DeleteUserReview</text>
</g>
<!-- \\db_connector\\DeleteUserReview&#45;&gt;\\db_connector\\DeleteConnector -->
<g id="edge39" class="edge"><title>\\db_connector\\DeleteUserReview&#45;&gt;\\db_connector\\DeleteConnector</title>
<path fill="none" stroke="black" d="M759.966,-328.077C718.074,-340.691 662.11,-357.543 618.64,-370.632"/>
<polygon fill="none" stroke="black" points="617.57,-367.3 609.004,-373.534 619.588,-374.002 617.57,-367.3"/>
</g>
<!-- \\db_connector\\UserLogin -->
<g id="node42" class="node"><title>\\db_connector\\UserLogin</title>
<polygon fill="none" stroke="black" points="588.5,-734 511.5,-734 511.5,-698 588.5,-698 588.5,-734"/>
<text text-anchor="middle" x="550" y="-713.2" font-family="Courier,monospace" font-size="11.00">UserLogin</text>
</g>
<!-- \\db_connector\\UserLogin&#45;&gt;\\db_connector\\BooleanConnector -->
<g id="edge40" class="edge"><title>\\db_connector\\UserLogin&#45;&gt;\\db_connector\\BooleanConnector</title>
<path fill="none" stroke="black" d="M511.273,-711.958C473.665,-707.928 414.973,-701.64 368.518,-696.663"/>
<polygon fill="none" stroke="black" points="368.819,-693.175 358.503,-695.59 368.073,-700.135 368.819,-693.175"/>
</g>
<!-- \\db_connector\\RequestRegisteredUser -->
<g id="node43" class="node"><title>\\db_connector\\RequestRegisteredUser</title>
<polygon fill="none" stroke="black" points="629,-1058 471,-1058 471,-1022 629,-1022 629,-1058"/>
<text text-anchor="middle" x="550" y="-1037.2" font-family="Courier,monospace" font-size="11.00">RequestRegisteredUser</text>
</g>
<!-- \\db_connector\\RequestRegisteredUser&#45;&gt;\\db_connector\\JsonConnector -->
<g id="edge41" class="edge"><title>\\db_connector\\RequestRegisteredUser&#45;&gt;\\db_connector\\JsonConnector</title>
<path fill="none" stroke="black" d="M470.779,-1053.18C459.067,-1056.75 447.433,-1061.27 437,-1067 386.944,-1094.47 341.931,-1144.55 317.14,-1175.39"/>
<polygon fill="none" stroke="black" points="314.151,-1173.53 310.696,-1183.54 319.643,-1177.87 314.151,-1173.53"/>
</g>
<!-- \\db_connector\\RequestReport -->
<g id="node44" class="node"><title>\\db_connector\\RequestReport</title>
<polygon fill="none" stroke="black" points="602,-1004 498,-1004 498,-968 602,-968 602,-1004"/>
<text text-anchor="middle" x="550" y="-983.2" font-family="Courier,monospace" font-size="11.00">RequestReport</text>
</g>
<!-- \\db_connector\\RequestReport&#45;&gt;\\db_connector\\JsonConnector -->
<g id="edge42" class="edge"><title>\\db_connector\\RequestReport&#45;&gt;\\db_connector\\JsonConnector</title>
<path fill="none" stroke="black" d="M497.759,-990.732C477.548,-994.466 454.927,-1001.13 437,-1013 374.75,-1054.22 330.004,-1132.97 309.514,-1174.62"/>
<polygon fill="none" stroke="black" points="306.24,-1173.35 305.057,-1183.88 312.547,-1176.38 306.24,-1173.35"/>
</g>
<!-- \\db_connector\\UpdateItineraryReview -->
<g id="node45" class="node"><title>\\db_connector\\UpdateItineraryReview</title>
<polygon fill="none" stroke="black" points="900,-652 742,-652 742,-616 900,-616 900,-652"/>
<text text-anchor="middle" x="821" y="-631.2" font-family="Courier,monospace" font-size="11.00">UpdateItineraryReview</text>
</g>
<!-- \\db_connector\\UpdateItineraryReview&#45;&gt;\\db_connector\\UpdateConnector -->
<g id="edge43" class="edge"><title>\\db_connector\\UpdateItineraryReview&#45;&gt;\\db_connector\\UpdateConnector</title>
<path fill="none" stroke="black" d="M741.833,-626.445C703.123,-622.703 656.816,-618.228 619.512,-614.622"/>
<polygon fill="none" stroke="black" points="619.533,-611.108 609.243,-613.629 618.86,-618.075 619.533,-611.108"/>
</g>
<!-- \\db_connector\\InsertItineraryReview -->
<g id="node46" class="node"><title>\\db_connector\\InsertItineraryReview</title>
<polygon fill="none" stroke="black" points="900,-976 742,-976 742,-940 900,-940 900,-976"/>
<text text-anchor="middle" x="821" y="-955.2" font-family="Courier,monospace" font-size="11.00">InsertItineraryReview</text>
</g>
<!-- \\db_connector\\InsertItineraryReview&#45;&gt;\\db_connector\\InsertConnector -->
<g id="edge44" class="edge"><title>\\db_connector\\InsertItineraryReview&#45;&gt;\\db_connector\\InsertConnector</title>
<path fill="none" stroke="black" d="M745.837,-939.775C741.913,-937.223 738.254,-934.315 735,-931 656.385,-850.926 744.408,-766.233 663,-689 651.044,-677.657 635.181,-670.819 619.165,-666.76"/>
<polygon fill="none" stroke="black" points="619.724,-663.3 609.207,-664.577 618.225,-670.137 619.724,-663.3"/>
</g>
<!-- \\db_connector\\RequestWishlistJoinItinerary -->
<g id="node47" class="node"><title>\\db_connector\\RequestWishlistJoinItinerary</title>
<polygon fill="none" stroke="black" points="653,-950 447,-950 447,-914 653,-914 653,-950"/>
<text text-anchor="middle" x="550" y="-929.2" font-family="Courier,monospace" font-size="11.00">RequestWishlistJoinItinerary</text>
</g>
<!-- \\db_connector\\RequestWishlistJoinItinerary&#45;&gt;\\db_connector\\JsonConnector -->
<g id="edge45" class="edge"><title>\\db_connector\\RequestWishlistJoinItinerary&#45;&gt;\\db_connector\\JsonConnector</title>
<path fill="none" stroke="black" d="M451.397,-950.118C446.327,-952.701 441.484,-955.645 437,-959 362.415,-1014.8 321.118,-1122.92 305.011,-1173.99"/>
<polygon fill="none" stroke="black" points="301.62,-1173.11 302.039,-1183.7 308.314,-1175.16 301.62,-1173.11"/>
</g>
<!-- \\db_connector\\RequestReportJoinReportDetails -->
<g id="node48" class="node"><title>\\db_connector\\RequestReportJoinReportDetails</title>
<polygon fill="none" stroke="black" points="659.5,-896 440.5,-896 440.5,-860 659.5,-860 659.5,-896"/>
<text text-anchor="middle" x="550" y="-875.2" font-family="Courier,monospace" font-size="11.00">RequestReportJoinReportDetails</text>
</g>
<!-- \\db_connector\\RequestReportJoinReportDetails&#45;&gt;\\db_connector\\JsonConnector -->
<g id="edge46" class="edge"><title>\\db_connector\\RequestReportJoinReportDetails&#45;&gt;\\db_connector\\JsonConnector</title>
<path fill="none" stroke="black" d="M450.261,-896.122C445.569,-898.71 441.11,-901.653 437,-905 349.616,-976.162 313.705,-1114.54 301.88,-1173.87"/>
<polygon fill="none" stroke="black" points="298.384,-1173.52 299.945,-1184 305.26,-1174.83 298.384,-1173.52"/>
</g>
<!-- \\db_connector\\RequestReservation -->
<g id="node49" class="node"><title>\\db_connector\\RequestReservation</title>
<polygon fill="none" stroke="black" points="619,-842 481,-842 481,-806 619,-806 619,-842"/>
<text text-anchor="middle" x="550" y="-821.2" font-family="Courier,monospace" font-size="11.00">RequestReservation</text>
</g>
<!-- \\db_connector\\RequestReservation&#45;&gt;\\db_connector\\JsonConnector -->
<g id="edge47" class="edge"><title>\\db_connector\\RequestReservation&#45;&gt;\\db_connector\\JsonConnector</title>
<path fill="none" stroke="black" d="M480.709,-829.729C464.954,-833.793 449.245,-840.391 437,-851 336.718,-937.88 307.508,-1106.55 299.662,-1173.56"/>
<polygon fill="none" stroke="black" points="296.152,-1173.45 298.541,-1183.77 303.111,-1174.21 296.152,-1173.45"/>
</g>
<!-- \\db_connector\\DeleteItinerary -->
<g id="node50" class="node"><title>\\db_connector\\DeleteItinerary</title>
<polygon fill="none" stroke="black" points="880,-274 762,-274 762,-238 880,-238 880,-274"/>
<text text-anchor="middle" x="821" y="-253.2" font-family="Courier,monospace" font-size="11.00">DeleteItinerary</text>
</g>
<!-- \\db_connector\\DeleteItinerary&#45;&gt;\\db_connector\\DeleteConnector -->
<g id="edge48" class="edge"><title>\\db_connector\\DeleteItinerary&#45;&gt;\\db_connector\\DeleteConnector</title>
<path fill="none" stroke="black" d="M761.742,-272.597C752.663,-275.727 743.486,-279.219 735,-283 680.728,-307.182 622.228,-343.462 586.106,-367.185"/>
<polygon fill="none" stroke="black" points="583.83,-364.494 577.421,-372.93 587.692,-370.332 583.83,-364.494"/>
</g>
<!-- \\db_connector\\ClearWishlist -->
<g id="node51" class="node"><title>\\db_connector\\ClearWishlist</title>
<polygon fill="none" stroke="black" points="873,-220 769,-220 769,-184 873,-184 873,-220"/>
<text text-anchor="middle" x="821" y="-199.2" font-family="Courier,monospace" font-size="11.00">ClearWishlist</text>
</g>
<!-- \\db_connector\\ClearWishlist&#45;&gt;\\db_connector\\DeleteConnector -->
<g id="edge49" class="edge"><title>\\db_connector\\ClearWishlist&#45;&gt;\\db_connector\\DeleteConnector</title>
<path fill="none" stroke="black" d="M768.665,-214.533C757.202,-218.349 745.377,-223.131 735,-229 669.044,-266.304 605.835,-330.073 573.451,-365.455"/>
<polygon fill="none" stroke="black" points="570.762,-363.21 566.645,-372.972 575.951,-367.909 570.762,-363.21"/>
</g>
<!-- \\db_connector\\UpdateItinerary -->
<g id="node52" class="node"><title>\\db_connector\\UpdateItinerary</title>
<polygon fill="none" stroke="black" points="880,-598 762,-598 762,-562 880,-562 880,-598"/>
<text text-anchor="middle" x="821" y="-577.2" font-family="Courier,monospace" font-size="11.00">UpdateItinerary</text>
</g>
<!-- \\db_connector\\UpdateItinerary&#45;&gt;\\db_connector\\UpdateConnector -->
<g id="edge50" class="edge"><title>\\db_connector\\UpdateItinerary&#45;&gt;\\db_connector\\UpdateConnector</title>
<path fill="none" stroke="black" d="M761.962,-586.041C720.122,-590.396 663.499,-596.29 619.449,-600.875"/>
<polygon fill="none" stroke="black" points="618.981,-597.405 609.397,-601.921 619.706,-604.367 618.981,-597.405"/>
</g>
<!-- \\email_sender\\Sender -->
<g id="node53" class="node"><title>\\email_sender\\Sender</title>
<polygon fill="none" stroke="black" points="849.5,-140 792.5,-140 792.5,-104 849.5,-104 849.5,-140"/>
<text text-anchor="middle" x="821" y="-119.2" font-family="Courier,monospace" font-size="11.00">Sender</text>
</g>
<!-- \\img_uploader\\Uploader -->
<g id="node54" class="node"><title>\\img_uploader\\Uploader</title>
<polygon fill="none" stroke="black" points="856.5,-60 785.5,-60 785.5,-24 856.5,-24 856.5,-60"/>
<text text-anchor="middle" x="821" y="-39.2" font-family="Courier,monospace" font-size="11.00">Uploader</text>
</g>
</g>
</svg>
