<?xml version="1.0" encoding="UTF-8" standalone="no"?>
<!DOCTYPE svg PUBLIC "-//W3C//DTD SVG 1.1//EN"
 "http://www.w3.org/Graphics/SVG/1.1/DTD/svg11.dtd">
<!-- Generated by graphviz version 2.38.0 (20140413.2041)
 -->
<!-- Title: G Pages: 1 -->
<svg width="932pt" height="1402pt"
 viewBox="0.00 0.00 932.00 1402.00" xmlns="http://www.w3.org/2000/svg" xmlns:xlink="http://www.w3.org/1999/xlink">
<g id="graph0" class="graph" transform="scale(1 1) rotate(0) translate(4 1398)">
<title>G</title>
<polygon fill="white" stroke="none" points="-4,4 -4,-1398 928,-1398 928,4 -4,4"/>
<g id="clust1" class="cluster"><title>cluster_Global</title>
<path fill="none" stroke="gray" d="M20,-8C20,-8 904,-8 904,-8 910,-8 916,-14 916,-20 916,-20 916,-1374 916,-1374 916,-1380 910,-1386 904,-1386 904,-1386 20,-1386 20,-1386 14,-1386 8,-1380 8,-1374 8,-1374 8,-20 8,-20 8,-14 14,-8 20,-8"/>
<text text-anchor="middle" x="462" y="-1373.2" font-family="Times New Roman,serif" font-size="11.00" fill="gray">Global</text>
</g>
<g id="clust2" class="cluster"><title>cluster_\db_connector</title>
<path fill="none" stroke="gray" d="M28,-16C28,-16 896,-16 896,-16 902,-16 908,-22 908,-28 908,-28 908,-1346 908,-1346 908,-1352 902,-1358 896,-1358 896,-1358 28,-1358 28,-1358 22,-1358 16,-1352 16,-1346 16,-1346 16,-28 16,-28 16,-22 22,-16 28,-16"/>
<text text-anchor="middle" x="462" y="-1345.2" font-family="Times New Roman,serif" font-size="11.00" fill="gray">db_connector</text>
</g>
<g id="clust3" class="cluster"><title>cluster_\db_connector\utilities</title>
<path fill="none" stroke="gray" d="M769,-1258C769,-1258 859,-1258 859,-1258 865,-1258 871,-1264 871,-1270 871,-1270 871,-1318 871,-1318 871,-1324 865,-1330 859,-1330 859,-1330 769,-1330 769,-1330 763,-1330 757,-1324 757,-1318 757,-1318 757,-1270 757,-1270 757,-1264 763,-1258 769,-1258"/>
<text text-anchor="middle" x="814" y="-1317.2" font-family="Times New Roman,serif" font-size="11.00" fill="gray">utilities</text>
</g>
<!-- \\db_connector\\utilities\\TableCreator -->
<g id="node1" class="node"><title>\\db_connector\\utilities\\TableCreator</title>
<polygon fill="none" stroke="black" points="863,-1302 765,-1302 765,-1266 863,-1266 863,-1302"/>
<text text-anchor="middle" x="814" y="-1281.2" font-family="Courier,monospace" font-size="11.00">TableCreator</text>
</g>
<!-- \\db_connector\\RequestUserReview -->
<g id="node2" class="node"><title>\\db_connector\\RequestUserReview</title>
<polygon fill="none" stroke="black" points="612,-1330 481,-1330 481,-1294 612,-1294 612,-1330"/>
<text text-anchor="middle" x="546.5" y="-1309.2" font-family="Courier,monospace" font-size="11.00">RequestUserReview</text>
</g>
<!-- \\db_connector\\JsonConnector -->
<g id="node23" class="node"><title>\\db_connector\\JsonConnector</title>
<polygon fill="none" stroke="black" points="348,-925 244,-925 244,-889 348,-889 348,-925"/>
<text text-anchor="start" x="262" y="-910.2" font-family="Courier,monospace" font-size="11.00">«abstract»</text>
<text text-anchor="start" x="252" y="-898.2" font-family="Courier,monospace" font-size="11.00">JsonConnector</text>
</g>
<!-- \\db_connector\\RequestUserReview&#45;&gt;\\db_connector\\JsonConnector -->
<g id="edge1" class="edge"><title>\\db_connector\\RequestUserReview&#45;&gt;\\db_connector\\JsonConnector</title>
<path fill="none" stroke="black" d="M480.795,-1308.03C464.593,-1304.05 448.556,-1297.05 437,-1285 326.759,-1170.08 467.295,-1056.05 365,-934 362.573,-931.104 359.791,-928.516 356.77,-926.204"/>
<polygon fill="none" stroke="black" points="358.59,-923.213 348.295,-920.707 354.78,-929.085 358.59,-923.213"/>
</g>
<!-- \\db_connector\\InsertItinerary -->
<g id="node3" class="node"><title>\\db_connector\\InsertItinerary</title>
<polygon fill="none" stroke="black" points="873,-1248 755,-1248 755,-1212 873,-1212 873,-1248"/>
<text text-anchor="middle" x="814" y="-1227.2" font-family="Courier,monospace" font-size="11.00">InsertItinerary</text>
</g>
<!-- \\db_connector\\InsertConnector -->
<g id="node29" class="node"><title>\\db_connector\\InsertConnector</title>
<polygon fill="none" stroke="black" points="605.5,-466 487.5,-466 487.5,-430 605.5,-430 605.5,-466"/>
<text text-anchor="start" x="512.5" y="-451.2" font-family="Courier,monospace" font-size="11.00">«abstract»</text>
<text text-anchor="start" x="495.5" y="-439.2" font-family="Courier,monospace" font-size="11.00">InsertConnector</text>
</g>
<!-- \\db_connector\\InsertItinerary&#45;&gt;\\db_connector\\InsertConnector -->
<g id="edge2" class="edge"><title>\\db_connector\\InsertItinerary&#45;&gt;\\db_connector\\InsertConnector</title>
<path fill="none" stroke="black" d="M754.83,-1221.46C744.54,-1217.42 734.92,-1211.54 728,-1203 625.665,-1076.68 762.304,-597.994 656,-475 645.692,-463.073 631.005,-455.997 615.755,-451.893"/>
<polygon fill="none" stroke="black" points="616.219,-448.409 605.692,-449.604 614.667,-455.235 616.219,-448.409"/>
</g>
<!-- \\db_connector\\RequestDocument -->
<g id="node4" class="node"><title>\\db_connector\\RequestDocument</title>
<polygon fill="none" stroke="black" points="605.5,-1276 487.5,-1276 487.5,-1240 605.5,-1240 605.5,-1276"/>
<text text-anchor="middle" x="546.5" y="-1255.2" font-family="Courier,monospace" font-size="11.00">RequestDocument</text>
</g>
<!-- \\db_connector\\RequestDocument&#45;&gt;\\db_connector\\JsonConnector -->
<g id="edge3" class="edge"><title>\\db_connector\\RequestDocument&#45;&gt;\\db_connector\\JsonConnector</title>
<path fill="none" stroke="black" d="M487.289,-1255.15C469.066,-1251.46 450.274,-1244.35 437,-1231 341.25,-1134.67 454.082,-1036.53 365,-934 362.522,-931.147 359.701,-928.593 356.651,-926.307"/>
<polygon fill="none" stroke="black" points="358.431,-923.291 348.119,-920.857 354.663,-929.19 358.431,-923.291"/>
</g>
<!-- \\db_connector\\InsertReport -->
<g id="node5" class="node"><title>\\db_connector\\InsertReport</title>
<polygon fill="none" stroke="black" points="863,-1194 765,-1194 765,-1158 863,-1158 863,-1194"/>
<text text-anchor="middle" x="814" y="-1173.2" font-family="Courier,monospace" font-size="11.00">InsertReport</text>
</g>
<!-- \\db_connector\\InsertReport&#45;&gt;\\db_connector\\InsertConnector -->
<g id="edge4" class="edge"><title>\\db_connector\\InsertReport&#45;&gt;\\db_connector\\InsertConnector</title>
<path fill="none" stroke="black" d="M764.581,-1170.67C750.817,-1166.77 737.108,-1160.15 728,-1149 537.442,-915.665 853.889,-702.151 656,-475 645.645,-463.114 630.941,-456.052 615.689,-451.949"/>
<polygon fill="none" stroke="black" points="616.155,-448.466 605.628,-449.66 614.602,-455.292 616.155,-448.466"/>
</g>
<!-- \\db_connector\\UpdateRegisteredUser -->
<g id="node6" class="node"><title>\\db_connector\\UpdateRegisteredUser</title>
<polygon fill="none" stroke="black" points="890,-600 738,-600 738,-564 890,-564 890,-600"/>
<text text-anchor="middle" x="814" y="-579.2" font-family="Courier,monospace" font-size="11.00">UpdateRegisteredUser</text>
</g>
<!-- \\db_connector\\UpdateConnector -->
<g id="node27" class="node"><title>\\db_connector\\UpdateConnector</title>
<polygon fill="none" stroke="black" points="605.5,-412 487.5,-412 487.5,-376 605.5,-376 605.5,-412"/>
<text text-anchor="start" x="512.5" y="-397.2" font-family="Courier,monospace" font-size="11.00">«abstract»</text>
<text text-anchor="start" x="495.5" y="-385.2" font-family="Courier,monospace" font-size="11.00">UpdateConnector</text>
</g>
<!-- \\db_connector\\UpdateRegisteredUser&#45;&gt;\\db_connector\\UpdateConnector -->
<g id="edge5" class="edge"><title>\\db_connector\\UpdateRegisteredUser&#45;&gt;\\db_connector\\UpdateConnector</title>
<path fill="none" stroke="black" d="M741.239,-563.887C736.526,-561.307 732.051,-558.362 728,-555 675.972,-511.827 709.376,-462.495 656,-421 644.296,-411.901 629.918,-405.828 615.503,-401.785"/>
<polygon fill="none" stroke="black" points="616.101,-398.327 605.551,-399.298 614.404,-405.118 616.101,-398.327"/>
</g>
<!-- \\db_connector\\RequestReportDetails -->
<g id="node7" class="node"><title>\\db_connector\\RequestReportDetails</title>
<polygon fill="none" stroke="black" points="622.5,-1222 470.5,-1222 470.5,-1186 622.5,-1186 622.5,-1222"/>
<text text-anchor="middle" x="546.5" y="-1201.2" font-family="Courier,monospace" font-size="11.00">RequestReportDetails</text>
</g>
<!-- \\db_connector\\RequestReportDetails&#45;&gt;\\db_connector\\JsonConnector -->
<g id="edge6" class="edge"><title>\\db_connector\\RequestReportDetails&#45;&gt;\\db_connector\\JsonConnector</title>
<path fill="none" stroke="black" d="M470.493,-1196.19C458.13,-1192.03 446.327,-1185.92 437,-1177 355.612,-1099.13 440.989,-1017.15 365,-934 362.57,-931.341 359.844,-928.94 356.917,-926.772"/>
<polygon fill="none" stroke="black" points="358.537,-923.655 348.216,-921.259 354.79,-929.568 358.537,-923.655"/>
</g>
<!-- \\db_connector\\InsertWishlist -->
<g id="node8" class="node"><title>\\db_connector\\InsertWishlist</title>
<polygon fill="none" stroke="black" points="869.5,-1140 758.5,-1140 758.5,-1104 869.5,-1104 869.5,-1140"/>
<text text-anchor="middle" x="814" y="-1119.2" font-family="Courier,monospace" font-size="11.00">InsertWishlist</text>
</g>
<!-- \\db_connector\\InsertWishlist&#45;&gt;\\db_connector\\InsertConnector -->
<g id="edge7" class="edge"><title>\\db_connector\\InsertWishlist&#45;&gt;\\db_connector\\InsertConnector</title>
<path fill="none" stroke="black" d="M758.446,-1114.66C746.854,-1110.62 735.781,-1104.44 728,-1095 551.544,-880.948 839.18,-683.326 656,-475 645.591,-463.162 630.867,-456.117 615.613,-452.016"/>
<polygon fill="none" stroke="black" points="616.08,-448.533 605.553,-449.726 614.526,-455.358 616.08,-448.533"/>
</g>
<!-- \\db_connector\\RequestLanguage -->
<g id="node9" class="node"><title>\\db_connector\\RequestLanguage</title>
<polygon fill="none" stroke="black" points="605.5,-1168 487.5,-1168 487.5,-1132 605.5,-1132 605.5,-1168"/>
<text text-anchor="middle" x="546.5" y="-1147.2" font-family="Courier,monospace" font-size="11.00">RequestLanguage</text>
</g>
<!-- \\db_connector\\RequestLanguage&#45;&gt;\\db_connector\\JsonConnector -->
<g id="edge8" class="edge"><title>\\db_connector\\RequestLanguage&#45;&gt;\\db_connector\\JsonConnector</title>
<path fill="none" stroke="black" d="M487.389,-1145.97C469.492,-1142.18 450.871,-1135.3 437,-1123 369.739,-1063.37 428.115,-998.004 365,-934 362.517,-931.482 359.769,-929.192 356.844,-927.11"/>
<polygon fill="none" stroke="black" points="358.552,-924.052 348.204,-921.78 354.877,-930.009 358.552,-924.052"/>
</g>
<!-- \\db_connector\\InsertUserReview -->
<g id="node10" class="node"><title>\\db_connector\\InsertUserReview</title>
<polygon fill="none" stroke="black" points="876.5,-1086 751.5,-1086 751.5,-1050 876.5,-1050 876.5,-1086"/>
<text text-anchor="middle" x="814" y="-1065.2" font-family="Courier,monospace" font-size="11.00">InsertUserReview</text>
</g>
<!-- \\db_connector\\InsertUserReview&#45;&gt;\\db_connector\\InsertConnector -->
<g id="edge9" class="edge"><title>\\db_connector\\InsertUserReview&#45;&gt;\\db_connector\\InsertConnector</title>
<path fill="none" stroke="black" d="M751.132,-1057.69C742.302,-1053.76 734.147,-1048.37 728,-1041 565.633,-846.215 824.485,-664.518 656,-475 645.579,-463.278 630.927,-456.266 615.754,-452.158"/>
<polygon fill="none" stroke="black" points="616.277,-448.687 605.747,-449.858 614.708,-455.509 616.277,-448.687"/>
</g>
<!-- \\db_connector\\UpdateDocument -->
<g id="node11" class="node"><title>\\db_connector\\UpdateDocument</title>
<polygon fill="none" stroke="black" points="869.5,-546 758.5,-546 758.5,-510 869.5,-510 869.5,-546"/>
<text text-anchor="middle" x="814" y="-525.2" font-family="Courier,monospace" font-size="11.00">UpdateDocument</text>
</g>
<!-- \\db_connector\\UpdateDocument&#45;&gt;\\db_connector\\UpdateConnector -->
<g id="edge10" class="edge"><title>\\db_connector\\UpdateDocument&#45;&gt;\\db_connector\\UpdateConnector</title>
<path fill="none" stroke="black" d="M758.462,-515.413C747.891,-511.688 737.239,-506.958 728,-501 687.799,-475.075 697.006,-445.632 656,-421 643.815,-413.681 629.724,-408.339 615.813,-404.443"/>
<polygon fill="none" stroke="black" points="616.303,-400.955 605.746,-401.854 614.559,-407.735 616.303,-400.955"/>
</g>
<!-- \\db_connector\\InsertLanguage -->
<g id="node12" class="node"><title>\\db_connector\\InsertLanguage</title>
<polygon fill="none" stroke="black" points="869.5,-1032 758.5,-1032 758.5,-996 869.5,-996 869.5,-1032"/>
<text text-anchor="middle" x="814" y="-1011.2" font-family="Courier,monospace" font-size="11.00">InsertLanguage</text>
</g>
<!-- \\db_connector\\InsertLanguage&#45;&gt;\\db_connector\\InsertConnector -->
<g id="edge11" class="edge"><title>\\db_connector\\InsertLanguage&#45;&gt;\\db_connector\\InsertConnector</title>
<path fill="none" stroke="black" d="M758.168,-1006.37C746.729,-1002.34 735.794,-996.226 728,-987 579.704,-811.461 809.808,-645.73 656,-475 645.502,-463.347 630.822,-456.36 615.646,-452.255"/>
<polygon fill="none" stroke="black" points="616.17,-448.784 605.64,-449.953 614.601,-455.606 616.17,-448.784"/>
</g>
<!-- \\db_connector\\RequestUserLanguage -->
<g id="node13" class="node"><title>\\db_connector\\RequestUserLanguage</title>
<polygon fill="none" stroke="black" points="619,-1114 474,-1114 474,-1078 619,-1078 619,-1114"/>
<text text-anchor="middle" x="546.5" y="-1093.2" font-family="Courier,monospace" font-size="11.00">RequestUserLanguage</text>
</g>
<!-- \\db_connector\\RequestUserLanguage&#45;&gt;\\db_connector\\JsonConnector -->
<g id="edge12" class="edge"><title>\\db_connector\\RequestUserLanguage&#45;&gt;\\db_connector\\JsonConnector</title>
<path fill="none" stroke="black" d="M473.869,-1087.19C460.682,-1083.16 447.715,-1077.36 437,-1069 383.379,-1027.18 415.699,-979.317 365,-934 362.538,-931.799 359.874,-929.767 357.076,-927.891"/>
<polygon fill="none" stroke="black" points="358.73,-924.804 348.341,-922.725 355.166,-930.829 358.73,-924.804"/>
</g>
<!-- \\db_connector\\InsertUserLanguage -->
<g id="node14" class="node"><title>\\db_connector\\InsertUserLanguage</title>
<polygon fill="none" stroke="black" points="883,-978 745,-978 745,-942 883,-942 883,-978"/>
<text text-anchor="middle" x="814" y="-957.2" font-family="Courier,monospace" font-size="11.00">InsertUserLanguage</text>
</g>
<!-- \\db_connector\\InsertUserLanguage&#45;&gt;\\db_connector\\InsertConnector -->
<g id="edge13" class="edge"><title>\\db_connector\\InsertUserLanguage&#45;&gt;\\db_connector\\InsertConnector</title>
<path fill="none" stroke="black" d="M744.615,-946.21C738.358,-942.737 732.64,-938.403 728,-933 593.752,-776.679 795.156,-626.969 656,-475 645.408,-463.432 630.693,-456.477 615.513,-452.375"/>
<polygon fill="none" stroke="black" points="616.04,-448.905 605.51,-450.072 614.469,-455.726 616.04,-448.905"/>
</g>
<!-- \\db_connector\\InsertReportDetails -->
<g id="node15" class="node"><title>\\db_connector\\InsertReportDetails</title>
<polygon fill="none" stroke="black" points="886.5,-924 741.5,-924 741.5,-888 886.5,-888 886.5,-924"/>
<text text-anchor="middle" x="814" y="-903.2" font-family="Courier,monospace" font-size="11.00">InsertReportDetails</text>
</g>
<!-- \\db_connector\\InsertReportDetails&#45;&gt;\\db_connector\\InsertConnector -->
<g id="edge14" class="edge"><title>\\db_connector\\InsertReportDetails&#45;&gt;\\db_connector\\InsertConnector</title>
<path fill="none" stroke="black" d="M741.105,-889.987C736.237,-886.934 731.777,-883.308 728,-879 607.766,-741.858 780.538,-608.246 656,-475 645.344,-463.6 630.682,-456.697 615.579,-452.591"/>
<polygon fill="none" stroke="black" points="616.162,-449.133 605.629,-450.277 614.577,-455.951 616.162,-449.133"/>
</g>
<!-- \\db_connector\\InsertItineraryLanguage -->
<g id="node16" class="node"><title>\\db_connector\\InsertItineraryLanguage</title>
<polygon fill="none" stroke="black" points="900,-870 728,-870 728,-834 900,-834 900,-870"/>
<text text-anchor="middle" x="814" y="-849.2" font-family="Courier,monospace" font-size="11.00">InsertItineraryLanguage</text>
</g>
<!-- \\db_connector\\InsertItineraryLanguage&#45;&gt;\\db_connector\\InsertConnector -->
<g id="edge15" class="edge"><title>\\db_connector\\InsertItineraryLanguage&#45;&gt;\\db_connector\\InsertConnector</title>
<path fill="none" stroke="black" d="M738.112,-833.832C734.419,-831.264 731.005,-828.337 728,-825 621.731,-706.981 765.972,-589.577 656,-475 645.249,-463.799 630.626,-456.962 615.598,-452.855"/>
<polygon fill="none" stroke="black" points="616.237,-449.409 605.702,-450.531 614.637,-456.224 616.237,-449.409"/>
</g>
<!-- \\db_connector\\RequestWishlist -->
<g id="node17" class="node"><title>\\db_connector\\RequestWishlist</title>
<polygon fill="none" stroke="black" points="605.5,-1060 487.5,-1060 487.5,-1024 605.5,-1024 605.5,-1060"/>
<text text-anchor="middle" x="546.5" y="-1039.2" font-family="Courier,monospace" font-size="11.00">RequestWishlist</text>
</g>
<!-- \\db_connector\\RequestWishlist&#45;&gt;\\db_connector\\JsonConnector -->
<g id="edge16" class="edge"><title>\\db_connector\\RequestWishlist&#45;&gt;\\db_connector\\JsonConnector</title>
<path fill="none" stroke="black" d="M487.499,-1034.27C470.392,-1030.26 452.197,-1024.19 437,-1015 395.787,-990.07 404.45,-961.635 365,-934 362.48,-932.235 359.829,-930.562 357.093,-928.98"/>
<polygon fill="none" stroke="black" points="358.602,-925.819 348.127,-924.234 355.327,-932.006 358.602,-925.819"/>
</g>
<!-- \\db_connector\\InsertRegisteredUser -->
<g id="node18" class="node"><title>\\db_connector\\InsertRegisteredUser</title>
<polygon fill="none" stroke="black" points="890,-816 738,-816 738,-780 890,-780 890,-816"/>
<text text-anchor="middle" x="814" y="-795.2" font-family="Courier,monospace" font-size="11.00">InsertRegisteredUser</text>
</g>
<!-- \\db_connector\\InsertRegisteredUser&#45;&gt;\\db_connector\\InsertConnector -->
<g id="edge17" class="edge"><title>\\db_connector\\InsertRegisteredUser&#45;&gt;\\db_connector\\InsertConnector</title>
<path fill="none" stroke="black" d="M738.639,-779.965C734.763,-777.367 731.169,-774.396 728,-771 635.621,-672.02 751.483,-570.989 656,-475 645.107,-464.049 630.504,-457.298 615.548,-453.193"/>
<polygon fill="none" stroke="black" points="616.243,-449.76 605.705,-450.86 614.629,-456.572 616.243,-449.76"/>
</g>
<!-- \\db_connector\\DeleteRegisteredUser -->
<g id="node19" class="node"><title>\\db_connector\\DeleteRegisteredUser</title>
<polygon fill="none" stroke="black" points="890,-330 738,-330 738,-294 890,-294 890,-330"/>
<text text-anchor="middle" x="814" y="-309.2" font-family="Courier,monospace" font-size="11.00">DeleteRegisteredUser</text>
</g>
<!-- \\db_connector\\DeleteConnector -->
<g id="node32" class="node"><title>\\db_connector\\DeleteConnector</title>
<polygon fill="none" stroke="black" points="605.5,-222 487.5,-222 487.5,-186 605.5,-186 605.5,-222"/>
<text text-anchor="start" x="512.5" y="-207.2" font-family="Courier,monospace" font-size="11.00">«abstract»</text>
<text text-anchor="start" x="495.5" y="-195.2" font-family="Courier,monospace" font-size="11.00">DeleteConnector</text>
</g>
<!-- \\db_connector\\DeleteRegisteredUser&#45;&gt;\\db_connector\\DeleteConnector -->
<g id="edge18" class="edge"><title>\\db_connector\\DeleteRegisteredUser&#45;&gt;\\db_connector\\DeleteConnector</title>
<path fill="none" stroke="black" d="M753.255,-293.973C744.724,-291.124 736.101,-288.093 728,-285 681.459,-267.232 629.716,-243.597 593.605,-226.447"/>
<polygon fill="none" stroke="black" points="594.845,-223.161 584.313,-222.013 591.831,-229.478 594.845,-223.161"/>
</g>
<!-- \\db_connector\\InsertReservation -->
<g id="node20" class="node"><title>\\db_connector\\InsertReservation</title>
<polygon fill="none" stroke="black" points="879.5,-762 748.5,-762 748.5,-726 879.5,-726 879.5,-762"/>
<text text-anchor="middle" x="814" y="-741.2" font-family="Courier,monospace" font-size="11.00">InsertReservation</text>
</g>
<!-- \\db_connector\\InsertReservation&#45;&gt;\\db_connector\\InsertConnector -->
<g id="edge19" class="edge"><title>\\db_connector\\InsertReservation&#45;&gt;\\db_connector\\InsertConnector</title>
<path fill="none" stroke="black" d="M748.266,-731.039C740.761,-727.444 733.749,-722.856 728,-717 649.385,-636.926 737.124,-552.531 656,-475 644.891,-464.383 630.278,-457.751 615.39,-453.654"/>
<polygon fill="none" stroke="black" points="616.141,-450.235 605.601,-451.311 614.512,-457.042 616.141,-450.235"/>
</g>
<!-- \\db_connector\\InsertDocument -->
<g id="node21" class="node"><title>\\db_connector\\InsertDocument</title>
<polygon fill="none" stroke="black" points="869.5,-708 758.5,-708 758.5,-672 869.5,-672 869.5,-708"/>
<text text-anchor="middle" x="814" y="-687.2" font-family="Courier,monospace" font-size="11.00">InsertDocument</text>
</g>
<!-- \\db_connector\\InsertDocument&#45;&gt;\\db_connector\\InsertConnector -->
<g id="edge20" class="edge"><title>\\db_connector\\InsertDocument&#45;&gt;\\db_connector\\InsertConnector</title>
<path fill="none" stroke="black" d="M758.279,-680.545C747.24,-676.586 736.447,-670.969 728,-663 662.919,-601.6 723.002,-534.298 656,-475 644.721,-465.018 630.311,-458.606 615.705,-454.518"/>
<polygon fill="none" stroke="black" points="616.143,-451.022 605.598,-452.044 614.479,-457.821 616.143,-451.022"/>
</g>
<!-- \\db_connector\\UpdateUserReview -->
<g id="node22" class="node"><title>\\db_connector\\UpdateUserReview</title>
<polygon fill="none" stroke="black" points="876.5,-492 751.5,-492 751.5,-456 876.5,-456 876.5,-492"/>
<text text-anchor="middle" x="814" y="-471.2" font-family="Courier,monospace" font-size="11.00">UpdateUserReview</text>
</g>
<!-- \\db_connector\\UpdateUserReview&#45;&gt;\\db_connector\\UpdateConnector -->
<g id="edge21" class="edge"><title>\\db_connector\\UpdateUserReview&#45;&gt;\\db_connector\\UpdateConnector</title>
<path fill="none" stroke="black" d="M754.832,-455.855C745.829,-452.951 736.651,-449.935 728,-447 695.781,-436.07 688.551,-430.899 656,-421 642.924,-417.023 628.833,-413.192 615.274,-409.726"/>
<polygon fill="none" stroke="black" points="616.07,-406.317 605.518,-407.271 614.361,-413.106 616.07,-406.317"/>
</g>
<!-- \\db_connector\\DatabaseConnector -->
<g id="node33" class="node"><title>\\db_connector\\DatabaseConnector</title>
<polygon fill="none" stroke="black" points="155,-925 24,-925 24,-889 155,-889 155,-925"/>
<text text-anchor="start" x="55.5" y="-910.2" font-family="Courier,monospace" font-size="11.00">«abstract»</text>
<text text-anchor="start" x="32" y="-898.2" font-family="Courier,monospace" font-size="11.00">DatabaseConnector</text>
</g>
<!-- \\db_connector\\JsonConnector&#45;&gt;\\db_connector\\DatabaseConnector -->
<g id="edge22" class="edge"><title>\\db_connector\\JsonConnector&#45;&gt;\\db_connector\\DatabaseConnector</title>
<path fill="none" stroke="black" d="M243.924,-907C220.216,-907 191.563,-907 165.467,-907"/>
<polygon fill="none" stroke="black" points="165.228,-903.5 155.228,-907 165.228,-910.5 165.228,-903.5"/>
</g>
<!-- \\db_connector\\RequestItineraryLanguage -->
<g id="node24" class="node"><title>\\db_connector\\RequestItineraryLanguage</title>
<polygon fill="none" stroke="black" points="636,-1006 457,-1006 457,-970 636,-970 636,-1006"/>
<text text-anchor="middle" x="546.5" y="-985.2" font-family="Courier,monospace" font-size="11.00">RequestItineraryLanguage</text>
</g>
<!-- \\db_connector\\RequestItineraryLanguage&#45;&gt;\\db_connector\\JsonConnector -->
<g id="edge23" class="edge"><title>\\db_connector\\RequestItineraryLanguage&#45;&gt;\\db_connector\\JsonConnector</title>
<path fill="none" stroke="black" d="M468.116,-969.996C457.601,-967.185 446.995,-964.158 437,-961 428.335,-958.262 387.525,-942.467 352.186,-928.661"/>
<polygon fill="none" stroke="black" points="353.458,-925.401 342.87,-925.019 350.908,-931.92 353.458,-925.401"/>
</g>
<!-- \\db_connector\\RequestItineraryReview -->
<g id="node25" class="node"><title>\\db_connector\\RequestItineraryReview</title>
<polygon fill="none" stroke="black" points="629,-952 464,-952 464,-916 629,-916 629,-952"/>
<text text-anchor="middle" x="546.5" y="-931.2" font-family="Courier,monospace" font-size="11.00">RequestItineraryReview</text>
</g>
<!-- \\db_connector\\RequestItineraryReview&#45;&gt;\\db_connector\\JsonConnector -->
<g id="edge24" class="edge"><title>\\db_connector\\RequestItineraryReview&#45;&gt;\\db_connector\\JsonConnector</title>
<path fill="none" stroke="black" d="M463.788,-925.122C429.451,-921.391 390.185,-917.125 358.38,-913.669"/>
<polygon fill="none" stroke="black" points="358.652,-910.178 348.332,-912.577 357.896,-917.137 358.652,-910.178"/>
</g>
<!-- \\db_connector\\DeleteWishlist -->
<g id="node26" class="node"><title>\\db_connector\\DeleteWishlist</title>
<polygon fill="none" stroke="black" points="869.5,-276 758.5,-276 758.5,-240 869.5,-240 869.5,-276"/>
<text text-anchor="middle" x="814" y="-255.2" font-family="Courier,monospace" font-size="11.00">DeleteWishlist</text>
</g>
<!-- \\db_connector\\DeleteWishlist&#45;&gt;\\db_connector\\DeleteConnector -->
<g id="edge25" class="edge"><title>\\db_connector\\DeleteWishlist&#45;&gt;\\db_connector\\DeleteConnector</title>
<path fill="none" stroke="black" d="M758.31,-246.877C716.96,-238.466 659.938,-226.869 615.624,-217.856"/>
<polygon fill="none" stroke="black" points="616.297,-214.421 605.8,-215.858 614.902,-221.281 616.297,-214.421"/>
</g>
<!-- \\db_connector\\BooleanConnector -->
<g id="node30" class="node"><title>\\db_connector\\BooleanConnector</title>
<polygon fill="none" stroke="black" points="358.5,-466 233.5,-466 233.5,-430 358.5,-430 358.5,-466"/>
<text text-anchor="start" x="262" y="-451.2" font-family="Courier,monospace" font-size="11.00">«abstract»</text>
<text text-anchor="start" x="241.5" y="-439.2" font-family="Courier,monospace" font-size="11.00">BooleanConnector</text>
</g>
<!-- \\db_connector\\UpdateConnector&#45;&gt;\\db_connector\\BooleanConnector -->
<g id="edge26" class="edge"><title>\\db_connector\\UpdateConnector&#45;&gt;\\db_connector\\BooleanConnector</title>
<path fill="none" stroke="black" d="M487.238,-406.661C451.814,-414.358 406.309,-424.247 368.687,-432.422"/>
<polygon fill="none" stroke="black" points="367.831,-429.026 358.802,-434.57 369.318,-435.867 367.831,-429.026"/>
</g>
<!-- \\db_connector\\RequestActiveItinerary -->
<g id="node28" class="node"><title>\\db_connector\\RequestActiveItinerary</title>
<polygon fill="none" stroke="black" points="629,-898 464,-898 464,-862 629,-862 629,-898"/>
<text text-anchor="middle" x="546.5" y="-877.2" font-family="Courier,monospace" font-size="11.00">RequestActiveItinerary</text>
</g>
<!-- \\db_connector\\RequestActiveItinerary&#45;&gt;\\db_connector\\JsonConnector -->
<g id="edge27" class="edge"><title>\\db_connector\\RequestActiveItinerary&#45;&gt;\\db_connector\\JsonConnector</title>
<path fill="none" stroke="black" d="M463.788,-888.878C429.451,-892.609 390.185,-896.875 358.38,-900.331"/>
<polygon fill="none" stroke="black" points="357.896,-896.863 348.332,-901.423 358.652,-903.822 357.896,-896.863"/>
</g>
<!-- \\db_connector\\InsertConnector&#45;&gt;\\db_connector\\BooleanConnector -->
<g id="edge28" class="edge"><title>\\db_connector\\InsertConnector&#45;&gt;\\db_connector\\BooleanConnector</title>
<path fill="none" stroke="black" d="M487.238,-448C451.965,-448 406.696,-448 369.167,-448"/>
<polygon fill="none" stroke="black" points="368.802,-444.5 358.802,-448 368.802,-451.5 368.802,-444.5"/>
</g>
<!-- \\db_connector\\BooleanConnector&#45;&gt;\\db_connector\\DatabaseConnector -->
<g id="edge29" class="edge"><title>\\db_connector\\BooleanConnector&#45;&gt;\\db_connector\\DatabaseConnector</title>
<path fill="none" stroke="black" d="M286.857,-466.277C255.273,-537.167 140.742,-794.231 102.803,-879.387"/>
<polygon fill="none" stroke="black" points="99.5388,-878.112 98.6661,-888.671 105.933,-880.961 99.5388,-878.112"/>
</g>
<!-- \\db_connector\\RequestItinerary -->
<g id="node31" class="node"><title>\\db_connector\\RequestItinerary</title>
<polygon fill="none" stroke="black" points="609,-844 484,-844 484,-808 609,-808 609,-844"/>
<text text-anchor="middle" x="546.5" y="-823.2" font-family="Courier,monospace" font-size="11.00">RequestItinerary</text>
</g>
<!-- \\db_connector\\RequestItinerary&#45;&gt;\\db_connector\\JsonConnector -->
<g id="edge30" class="edge"><title>\\db_connector\\RequestItinerary&#45;&gt;\\db_connector\\JsonConnector</title>
<path fill="none" stroke="black" d="M483.731,-839.961C468.36,-843.821 451.993,-848.263 437,-853 407.465,-862.331 375.165,-874.643 349.04,-885.154"/>
<polygon fill="none" stroke="black" points="347.663,-881.936 339.711,-888.936 350.293,-888.423 347.663,-881.936"/>
</g>
<!-- \\db_connector\\DeleteConnector&#45;&gt;\\db_connector\\BooleanConnector -->
<g id="edge31" class="edge"><title>\\db_connector\\DeleteConnector&#45;&gt;\\db_connector\\BooleanConnector</title>
<path fill="none" stroke="black" d="M526.822,-222.34C482.911,-265.456 373.046,-373.331 322.805,-422.663"/>
<polygon fill="none" stroke="black" points="320.239,-420.277 315.556,-429.78 325.143,-425.272 320.239,-420.277"/>
</g>
<!-- \\db_connector\\UserDataDownloader -->
<g id="node34" class="node"><title>\\db_connector\\UserDataDownloader</title>
<polygon fill="none" stroke="black" points="365,-979 227,-979 227,-943 365,-943 365,-979"/>
<text text-anchor="middle" x="296" y="-958.2" font-family="Courier,monospace" font-size="11.00">UserDataDownloader</text>
</g>
<!-- \\db_connector\\UserDataDownloader&#45;&gt;\\db_connector\\DatabaseConnector -->
<g id="edge32" class="edge"><title>\\db_connector\\UserDataDownloader&#45;&gt;\\db_connector\\DatabaseConnector</title>
<path fill="none" stroke="black" d="M226.904,-943.019C207.034,-937.772 185.22,-932.012 164.977,-926.666"/>
<polygon fill="none" stroke="black" points="165.743,-923.249 155.181,-924.08 163.956,-930.017 165.743,-923.249"/>
</g>
<!-- \\db_connector\\DeleteUserReview -->
<g id="node35" class="node"><title>\\db_connector\\DeleteUserReview</title>
<polygon fill="none" stroke="black" points="876.5,-222 751.5,-222 751.5,-186 876.5,-186 876.5,-222"/>
<text text-anchor="middle" x="814" y="-201.2" font-family="Courier,monospace" font-size="11.00">DeleteUserReview</text>
</g>
<!-- \\db_connector\\DeleteUserReview&#45;&gt;\\db_connector\\DeleteConnector -->
<g id="edge33" class="edge"><title>\\db_connector\\DeleteUserReview&#45;&gt;\\db_connector\\DeleteConnector</title>
<path fill="none" stroke="black" d="M751.422,-204C710.806,-204 657.571,-204 615.678,-204"/>
<polygon fill="none" stroke="black" points="615.56,-200.5 605.56,-204 615.56,-207.5 615.56,-200.5"/>
</g>
<!-- \\db_connector\\UserLogin -->
<g id="node36" class="node"><title>\\db_connector\\UserLogin</title>
<polygon fill="none" stroke="black" points="585,-520 508,-520 508,-484 585,-484 585,-520"/>
<text text-anchor="middle" x="546.5" y="-499.2" font-family="Courier,monospace" font-size="11.00">UserLogin</text>
</g>
<!-- \\db_connector\\UserLogin&#45;&gt;\\db_connector\\BooleanConnector -->
<g id="edge34" class="edge"><title>\\db_connector\\UserLogin&#45;&gt;\\db_connector\\BooleanConnector</title>
<path fill="none" stroke="black" d="M507.758,-493.799C470.948,-485.8 414.029,-473.431 368.617,-463.563"/>
<polygon fill="none" stroke="black" points="369.334,-460.137 358.819,-461.433 367.847,-466.977 369.334,-460.137"/>
</g>
<!-- \\db_connector\\RequestRegisteredUser -->
<g id="node37" class="node"><title>\\db_connector\\RequestRegisteredUser</title>
<polygon fill="none" stroke="black" points="625.5,-790 467.5,-790 467.5,-754 625.5,-754 625.5,-790"/>
<text text-anchor="middle" x="546.5" y="-769.2" font-family="Courier,monospace" font-size="11.00">RequestRegisteredUser</text>
</g>
<!-- \\db_connector\\RequestRegisteredUser&#45;&gt;\\db_connector\\JsonConnector -->
<g id="edge35" class="edge"><title>\\db_connector\\RequestRegisteredUser&#45;&gt;\\db_connector\\JsonConnector</title>
<path fill="none" stroke="black" d="M467.36,-787.289C456.91,-790.525 446.524,-794.394 437,-799 392.733,-820.41 349.048,-857.313 322.55,-881.936"/>
<polygon fill="none" stroke="black" points="320.099,-879.437 315.222,-888.843 324.9,-884.532 320.099,-879.437"/>
</g>
<!-- \\db_connector\\RequestReport -->
<g id="node38" class="node"><title>\\db_connector\\RequestReport</title>
<polygon fill="none" stroke="black" points="598.5,-736 494.5,-736 494.5,-700 598.5,-700 598.5,-736"/>
<text text-anchor="middle" x="546.5" y="-715.2" font-family="Courier,monospace" font-size="11.00">RequestReport</text>
</g>
<!-- \\db_connector\\RequestReport&#45;&gt;\\db_connector\\JsonConnector -->
<g id="edge36" class="edge"><title>\\db_connector\\RequestReport&#45;&gt;\\db_connector\\JsonConnector</title>
<path fill="none" stroke="black" d="M494.362,-724.074C475.332,-727.993 454.2,-734.431 437,-745 380.797,-779.536 335.24,-844.038 312.576,-880.364"/>
<polygon fill="none" stroke="black" points="309.552,-878.601 307.315,-888.958 315.522,-882.257 309.552,-878.601"/>
</g>
<!-- \\db_connector\\InsertItineraryReview -->
<g id="node39" class="node"><title>\\db_connector\\InsertItineraryReview</title>
<polygon fill="none" stroke="black" points="893,-654 735,-654 735,-618 893,-618 893,-654"/>
<text text-anchor="middle" x="814" y="-633.2" font-family="Courier,monospace" font-size="11.00">InsertItineraryReview</text>
</g>
<!-- \\db_connector\\InsertItineraryReview&#45;&gt;\\db_connector\\InsertConnector -->
<g id="edge37" class="edge"><title>\\db_connector\\InsertItineraryReview&#45;&gt;\\db_connector\\InsertConnector</title>
<path fill="none" stroke="black" d="M741.239,-617.887C736.526,-615.307 732.051,-612.362 728,-609 675.972,-565.827 709.376,-516.495 656,-475 644.296,-465.901 629.918,-459.828 615.503,-455.785"/>
<polygon fill="none" stroke="black" points="616.101,-452.327 605.551,-453.298 614.404,-459.118 616.101,-452.327"/>
</g>
<!-- \\db_connector\\RequestWishlistJoinItinerary -->
<g id="node40" class="node"><title>\\db_connector\\RequestWishlistJoinItinerary</title>
<polygon fill="none" stroke="black" points="649.5,-682 443.5,-682 443.5,-646 649.5,-646 649.5,-682"/>
<text text-anchor="middle" x="546.5" y="-661.2" font-family="Courier,monospace" font-size="11.00">RequestWishlistJoinItinerary</text>
</g>
<!-- \\db_connector\\RequestWishlistJoinItinerary&#45;&gt;\\db_connector\\JsonConnector -->
<g id="edge38" class="edge"><title>\\db_connector\\RequestWishlistJoinItinerary&#45;&gt;\\db_connector\\JsonConnector</title>
<path fill="none" stroke="black" d="M452.204,-682.066C446.859,-684.657 441.74,-687.617 437,-691 368.714,-739.73 325.294,-833.143 306.991,-879.503"/>
<polygon fill="none" stroke="black" points="303.695,-878.321 303.368,-888.911 310.228,-880.837 303.695,-878.321"/>
</g>
<!-- \\db_connector\\RequestReportJoinReportDetails -->
<g id="node41" class="node"><title>\\db_connector\\RequestReportJoinReportDetails</title>
<polygon fill="none" stroke="black" points="656,-628 437,-628 437,-592 656,-592 656,-628"/>
<text text-anchor="middle" x="546.5" y="-607.2" font-family="Courier,monospace" font-size="11.00">RequestReportJoinReportDetails</text>
</g>
<!-- \\db_connector\\RequestReportJoinReportDetails&#45;&gt;\\db_connector\\JsonConnector -->
<g id="edge39" class="edge"><title>\\db_connector\\RequestReportJoinReportDetails&#45;&gt;\\db_connector\\JsonConnector</title>
<path fill="none" stroke="black" d="M450.762,-628.089C445.897,-630.679 441.266,-633.633 437,-637 356.204,-700.77 317.278,-823.978 303.306,-879.127"/>
<polygon fill="none" stroke="black" points="299.889,-878.363 300.91,-888.908 306.689,-880.028 299.889,-878.363"/>
</g>
<!-- \\db_connector\\RequestReservation -->
<g id="node42" class="node"><title>\\db_connector\\RequestReservation</title>
<polygon fill="none" stroke="black" points="615.5,-574 477.5,-574 477.5,-538 615.5,-538 615.5,-574"/>
<text text-anchor="middle" x="546.5" y="-553.2" font-family="Courier,monospace" font-size="11.00">RequestReservation</text>
</g>
<!-- \\db_connector\\RequestReservation&#45;&gt;\\db_connector\\JsonConnector -->
<g id="edge40" class="edge"><title>\\db_connector\\RequestReservation&#45;&gt;\\db_connector\\JsonConnector</title>
<path fill="none" stroke="black" d="M477.262,-562.961C462.757,-567.037 448.399,-573.332 437,-583 343.567,-662.244 310.682,-815.333 300.759,-878.588"/>
<polygon fill="none" stroke="black" points="297.275,-878.225 299.261,-888.632 304.198,-879.258 297.275,-878.225"/>
</g>
<!-- \\db_connector\\DeleteItinerary -->
<g id="node43" class="node"><title>\\db_connector\\DeleteItinerary</title>
<polygon fill="none" stroke="black" points="873,-168 755,-168 755,-132 873,-132 873,-168"/>
<text text-anchor="middle" x="814" y="-147.2" font-family="Courier,monospace" font-size="11.00">DeleteItinerary</text>
</g>
<!-- \\db_connector\\DeleteItinerary&#45;&gt;\\db_connector\\DeleteConnector -->
<g id="edge41" class="edge"><title>\\db_connector\\DeleteItinerary&#45;&gt;\\db_connector\\DeleteConnector</title>
<path fill="none" stroke="black" d="M754.735,-161.851C713.667,-170.203 658.537,-181.416 615.463,-190.177"/>
<polygon fill="none" stroke="black" points="614.731,-186.754 605.629,-192.177 616.126,-193.614 614.731,-186.754"/>
</g>
<!-- \\db_connector\\ClearWishlist -->
<g id="node44" class="node"><title>\\db_connector\\ClearWishlist</title>
<polygon fill="none" stroke="black" points="866,-114 762,-114 762,-78 866,-78 866,-114"/>
<text text-anchor="middle" x="814" y="-93.2" font-family="Courier,monospace" font-size="11.00">ClearWishlist</text>
</g>
<!-- \\db_connector\\ClearWishlist&#45;&gt;\\db_connector\\DeleteConnector -->
<g id="edge42" class="edge"><title>\\db_connector\\ClearWishlist&#45;&gt;\\db_connector\\DeleteConnector</title>
<path fill="none" stroke="black" d="M761.882,-111.194C750.637,-114.826 738.849,-118.858 728,-123 681.459,-140.768 629.716,-164.403 593.605,-181.553"/>
<polygon fill="none" stroke="black" points="591.831,-178.522 584.313,-185.987 594.845,-184.839 591.831,-178.522"/>
</g>
<!-- \\db_connector\\UpdateItinerary -->
<g id="node45" class="node"><title>\\db_connector\\UpdateItinerary</title>
<polygon fill="none" stroke="black" points="873,-438 755,-438 755,-402 873,-402 873,-438"/>
<text text-anchor="middle" x="814" y="-417.2" font-family="Courier,monospace" font-size="11.00">UpdateItinerary</text>
</g>
<!-- \\db_connector\\UpdateItinerary&#45;&gt;\\db_connector\\UpdateConnector -->
<g id="edge43" class="edge"><title>\\db_connector\\UpdateItinerary&#45;&gt;\\db_connector\\UpdateConnector</title>
<path fill="none" stroke="black" d="M754.735,-414.294C713.753,-410.281 658.769,-404.896 615.735,-400.682"/>
<polygon fill="none" stroke="black" points="615.923,-397.184 605.629,-399.693 615.24,-404.151 615.923,-397.184"/>
</g>
<!-- \\db_connector\\DeleteItineraryReview -->
<g id="node46" class="node"><title>\\db_connector\\DeleteItineraryReview</title>
<polygon fill="none" stroke="black" points="893,-60 735,-60 735,-24 893,-24 893,-60"/>
<text text-anchor="middle" x="814" y="-39.2" font-family="Courier,monospace" font-size="11.00">DeleteItineraryReview</text>
</g>
<!-- \\db_connector\\DeleteItineraryReview&#45;&gt;\\db_connector\\DeleteConnector -->
<g id="edge44" class="edge"><title>\\db_connector\\DeleteItineraryReview&#45;&gt;\\db_connector\\DeleteConnector</title>
<path fill="none" stroke="black" d="M748.034,-60.1239C741.137,-62.7855 734.334,-65.7435 728,-69 668.717,-99.4779 608.409,-149.169 574.689,-179.009"/>
<polygon fill="none" stroke="black" points="572.232,-176.511 567.106,-185.783 576.896,-181.731 572.232,-176.511"/>
</g>
<!-- \\db_connector\\UpdateItineraryReview -->
<g id="node47" class="node"><title>\\db_connector\\UpdateItineraryReview</title>
<polygon fill="none" stroke="black" points="893,-384 735,-384 735,-348 893,-348 893,-384"/>
<text text-anchor="middle" x="814" y="-363.2" font-family="Courier,monospace" font-size="11.00">UpdateItineraryReview</text>
</g>
<!-- \\db_connector\\UpdateItineraryReview&#45;&gt;\\db_connector\\UpdateConnector -->
<g id="edge45" class="edge"><title>\\db_connector\\UpdateItineraryReview&#45;&gt;\\db_connector\\UpdateConnector</title>
<path fill="none" stroke="black" d="M734.777,-374.249C697.027,-378.231 652.156,-382.963 615.801,-386.797"/>
<polygon fill="none" stroke="black" points="615.363,-383.324 605.786,-387.853 616.098,-390.285 615.363,-383.324"/>
</g>
</g>
</svg>
